<?xml version="1.0" encoding="UTF-8" standalone="no"?>
<svg
   xmlns:dc="http://purl.org/dc/elements/1.1/"
   xmlns:cc="http://creativecommons.org/ns#"
   xmlns:rdf="http://www.w3.org/1999/02/22-rdf-syntax-ns#"
   xmlns:svg="http://www.w3.org/2000/svg"
   xmlns="http://www.w3.org/2000/svg"
   xmlns:sodipodi="http://sodipodi.sourceforge.net/DTD/sodipodi-0.dtd"
   xmlns:inkscape="http://www.inkscape.org/namespaces/inkscape"
   width="120"
   height="26.191999"
   viewBox="0 0 120 26.191999"
   version="1.1"
   id="svg4"
   sodipodi:docname="Coinbase.svg"
   inkscape:version="0.92.4 (5da689c313, 2019-01-14)">
  <metadata
     id="metadata10">
    <rdf:RDF>
      <cc:Work
         rdf:about="">
        <dc:format>image/svg+xml</dc:format>
        <dc:type
           rdf:resource="http://purl.org/dc/dcmitype/StillImage" />
        <dc:title></dc:title>
      </cc:Work>
    </rdf:RDF>
  </metadata>
  <defs
     id="defs8" />
  <sodipodi:namedview
     pagecolor="#ffffff"
     bordercolor="#666666"
     borderopacity="1"
     objecttolerance="10"
     gridtolerance="10"
     guidetolerance="10"
     inkscape:pageopacity="0"
     inkscape:pageshadow="2"
     inkscape:window-width="2560"
     inkscape:window-height="1377"
     id="namedview6"
     showgrid="false"
     inkscape:zoom="2.3278689"
     inkscape:cx="61"
     inkscape:cy="14"
     inkscape:window-x="-8"
     inkscape:window-y="-8"
     inkscape:window-maximized="1"
     inkscape:current-layer="svg4" />
  <path
     d="m 9.34,22.89003 c 0.93,0 1.8,-0.170001 2.62,-0.500001 0,0.03 1.67,2.620003 1.7,2.630003 A 9.88,9.8800129 0 0 1 8.85,26.190034 C 3.72,26.200034 0,22.81003 0,17.420023 0,11.990015 3.9,8.6200107 8.85,8.6200107 c 1.75,0 3.14,0.3800005 4.53,1.1200015 l -1.6,2.7000038 c -0.84,-0.33 -1.7,-0.480001 -2.6,-0.480001 -3.03,0 -5.38,1.930003 -5.38,5.460008 0,3.340004 2.27,5.470007 5.54,5.470007 z M 22.27,8.6200107 c 5.04,0 8.69,3.5700053 8.69,8.8000123 0,5.200006 -3.65,8.770011 -8.7,8.770011 -5,0 -8.65,-3.570005 -8.65,-8.770011 0,-5.230007 3.65,-8.8000123 8.66,-8.8000123 z m 0,3.2200043 c -2.81,0 -4.86,2.170003 -4.86,5.580008 0,3.380004 2.05,5.550007 4.86,5.550007 2.88,0 4.9,-2.170003 4.9,-5.550007 0,-3.410005 -2.02,-5.580008 -4.9,-5.580008 z M 33.35,25.810034 V 9.0000112 h 3.76 V 25.800033 H 33.35 Z M 32.85,3.8300044 a 2.36,2.3600031 0 0 1 4.71,0 2.4,2.4000031 0 0 1 -2.35,2.4000032 2.4,2.4000031 0 0 1 -2.35,-2.4000032 z m 7.54,6.2300086 a 22.54,22.54003 0 0 1 7.7,-1.4400023 c 4.3,0 7.02,1.6300023 7.02,6.3700083 V 25.810034 H 51.4 V 15.34002 c 0,-2.430003 -1.51,-3.300005 -3.6,-3.300005 -1.33,0 -2.66,0.180001 -3.65,0.490001 V 25.800033 H 40.4 V 10.060013 Z M 58.26,-5.576948e-7 h 3.76 V 9.4500118 c 0.8,-0.4200006 2.35,-0.8300011 3.83,-0.8300011 4.86,0 8.5,3.1000043 8.5,8.5000113 0,5.430007 -3.6,9.070012 -9.82,9.070012 -2.43,0 -4.56,-0.500001 -6.27,-1.100001 z M 62.02,22.620029 c 0.72,0.230001 1.67,0.350001 2.62,0.350001 3.45,0 5.92,-1.900003 5.92,-5.770008 0,-3.270004 -2.32,-5.200007 -5.16,-5.200007 -1.48,0 -2.62,0.380001 -3.38,0.800001 z m 23.2,-8.08001 c 0,-1.820003 -1.38,-2.660004 -3.24,-2.660004 -1.93,0 -3.45,0.570001 -4.85,1.370002 V 9.9800125 a 11.21,11.210015 0 0 1 5.46,-1.3600018 c 3.68,0 6.3,1.5200023 6.3,5.7300083 v 11.120014 c -1.6,0.420001 -3.87,0.680001 -5.77,0.680001 -4.36,0 -7.55,-1.320002 -7.55,-5.120007 0,-3.420004 2.92,-5.090006 7.78,-5.090006 h 1.86 v -1.400002 z m 0,3.900005 h -1.6 c -2.62,0 -4.33,0.770001 -4.33,2.480003 0,1.740002 1.6,2.420003 3.87,2.420003 0.57,0 1.37,-0.07 2.05,-0.18 v -4.710006 z m 6.4,2.820004 a 8.82,8.8200115 0 0 0 5.13,1.900002 c 1.67,0 2.77,-0.570001 2.77,-1.900002 0,-1.370002 -0.99,-1.860003 -3.15,-2.430004 -3.5,-0.800001 -4.97,-2.200003 -4.97,-5.130006 0,-3.410005 2.58,-5.0800073 6,-5.0800073 1.9,0 3.41,0.4100005 4.82,1.2900017 v 3.4500046 a 7.79,7.7900102 0 0 0 -4.71,-1.700002 c -1.63,0 -2.5,0.800001 -2.5,1.900002 0,1.100002 0.71,1.660003 2.65,2.200003 3.84,0.830001 5.5,2.270003 5.5,5.300007 0,3.540005 -2.69,5.130007 -6.33,5.130007 a 9.87,9.8700129 0 0 1 -5.2,-1.360002 v -3.570004 z m 16.69,-3.000004 v 0.07 c 0.23,3.000004 2.8,4.640006 5.43,4.640006 2.31,0 3.98,-0.540001 5.65,-1.640002 v 3.300004 c -1.52,1.070001 -3.76,1.560002 -5.92,1.560002 -5.24,0 -8.8,-3.340004 -8.8,-8.650011 0,-5.350007 3.49,-8.9200123 8.12,-8.9200123 4.9,0 7.21,3.1500043 7.21,7.7400103 v 1.900003 h -11.7 z m 8.16,-2.430004 c -0.08,-2.620003 -1.37,-4.060005 -3.8,-4.060005 -2.16,0 -3.75,1.520002 -4.25,4.060005 z"
     id="path2"
     inkscape:connector-curvature="0"
     style="fill:#ffffff;fill-rule:evenodd" />
</svg>
