<?xml version="1.0" encoding="UTF-8" standalone="no"?>
<!-- Created with Inkscape (http://www.inkscape.org/) -->

<svg
   xmlns:dc="http://purl.org/dc/elements/1.1/"
   xmlns:cc="http://creativecommons.org/ns#"
   xmlns:rdf="http://www.w3.org/1999/02/22-rdf-syntax-ns#"
   xmlns:svg="http://www.w3.org/2000/svg"
   xmlns="http://www.w3.org/2000/svg"
   xmlns:sodipodi="http://sodipodi.sourceforge.net/DTD/sodipodi-0.dtd"
   xmlns:inkscape="http://www.inkscape.org/namespaces/inkscape"
   width="276.07901mm"
   height="85.088997mm"
   viewBox="0 0 276.07901 85.088997"
   version="1.1"
   id="svg8"
   inkscape:version="0.92.4 (5da689c313, 2019-01-14)"
   sodipodi:docname="cc-spend.svg">
  <defs
     id="defs2" />
  <sodipodi:namedview
     id="base"
     pagecolor="#ffffff"
     bordercolor="#666666"
     borderopacity="1.0"
     inkscape:pageopacity="0.0"
     inkscape:pageshadow="2"
     inkscape:zoom="1.16"
     inkscape:cx="313.86753"
     inkscape:cy="169.02256"
     inkscape:document-units="mm"
     inkscape:current-layer="layer1"
     showgrid="false"
     inkscape:window-width="2560"
     inkscape:window-height="1377"
     inkscape:window-x="-8"
     inkscape:window-y="-8"
     inkscape:window-maximized="1" />
  <metadata
     id="metadata5">
    <rdf:RDF>
      <cc:Work
         rdf:about="">
        <dc:format>image/svg+xml</dc:format>
        <dc:type
           rdf:resource="http://purl.org/dc/dcmitype/StillImage" />
        <dc:title></dc:title>
      </cc:Work>
    </rdf:RDF>
  </metadata>
  <g
     inkscape:label="Layer 1"
     inkscape:groupmode="layer"
     id="layer1"
     transform="translate(0,-211.911)">
    <g
       aria-label="p"
       style="font-style:normal;font-variant:normal;font-weight:normal;font-stretch:normal;font-size:19.81897354px;line-height:1.25;font-family:Qanelas;-inkscape-font-specification:'Qanelas weight=255';letter-spacing:0px;word-spacing:0px;fill:#ffffff;fill-opacity:1;stroke:none;stroke-width:0.49547434"
       id="text12"
       transform="matrix(1,0,0,0.99999704,199.99565,-25.02887)">
      <path
         d="m -121.13785,254.20135 q 6.37378,0 11.79625,3.32959 5.51761,3.23446 8.65693,9.03745 3.23446,5.70787 3.23446,12.65244 0,6.94457 -3.23446,12.65243 -3.13932,5.70787 -8.65693,9.03746 -5.42247,3.32959 -11.79625,3.32959 -5.42247,0 -9.70337,-2.09289 -4.18577,-2.09288 -6.94457,-5.99326 v 25.87566 h -10.27416 v -66.59176 h 10.27416 v 6.7543 q 2.7588,-3.80524 6.94457,-5.89812 4.2809,-2.09289 9.70337,-2.09289 z m -1.61723,40.24045 q 4.2809,0 7.70562,-1.90262 3.42472,-1.99775 5.32734,-5.42247 1.99775,-3.51985 1.99775,-7.89588 0,-4.37603 -1.99775,-7.80075 -1.90262,-3.51985 -5.32734,-5.42247 -3.42472,-1.99776 -7.70562,-1.99776 -6.18352,0 -10.46442,3.99551 -4.18577,3.90038 -4.56629,9.98876 v 2.47341 q 0.38052,6.08839 4.56629,10.0839 4.2809,3.90037 10.46442,3.90037 z"
         style="font-style:normal;font-variant:normal;font-weight:600;font-stretch:normal;font-size:95.13108826px;font-family:Qanelas;-inkscape-font-specification:'Qanelas Semi-Bold';fill:#ffffff;stroke-width:0.49547434"
         id="path122"
         inkscape:connector-curvature="0" />
    </g>
    <g
       aria-label="e"
       style="font-style:normal;font-variant:normal;font-weight:normal;font-stretch:normal;font-size:19.81897354px;line-height:1.25;font-family:Qanelas;-inkscape-font-specification:'Qanelas weight=255';letter-spacing:0px;word-spacing:0px;fill:#ffffff;fill-opacity:1;stroke:none;stroke-width:0.49547434"
       id="text12-7"
       transform="matrix(1,0,0,0.99999704,199.99565,-25.02887)">
      <path
         d="m -83.360228,284.126 q 1.141573,5.70787 5.041948,8.75206 3.995506,3.0442 9.60824,3.0442 3.805243,0 6.849438,-1.61723 3.044195,-1.61723 4.37603,-4.18577 l 10.46442,-0.0951 q -2.188015,6.84944 -8.086142,10.84494 -5.802997,3.90038 -13.794008,3.90038 -7.420225,0 -13.12809,-3.23446 -5.707866,-3.23445 -8.847192,-8.94232 -3.139326,-5.70787 -3.139326,-12.8427 0,-7.0397 3.139326,-12.74756 3.139326,-5.70787 8.847192,-8.94232 5.707865,-3.32959 12.937828,-3.32959 6.944569,0 12.27191,3.42472 5.422472,3.32958 8.371536,9.13258 2.949063,5.70787 2.949063,12.5573 0,1.61723 -0.380524,4.2809 z m 27.492885,-8.46666 q -0.951311,-5.70787 -4.661424,-8.65693 -3.614981,-2.94907 -8.561797,-2.94907 -5.707866,0 -9.513109,3.13933 -3.805244,3.13933 -4.851686,8.46667 z"
         style="font-style:normal;font-variant:normal;font-weight:600;font-stretch:normal;font-size:95.13108826px;font-family:Qanelas;-inkscape-font-specification:'Qanelas Semi-Bold';fill:#ffffff;stroke-width:0.49547434"
         id="path125"
         inkscape:connector-curvature="0" />
    </g>
    <g
       aria-label="n"
       transform="matrix(1.053972,0,0,0.948789,199.99565,-25.02887)"
       style="font-style:normal;font-variant:normal;font-weight:normal;font-stretch:normal;font-size:20.88864326px;line-height:1.25;font-family:Qanelas;-inkscape-font-specification:'Qanelas weight=255';letter-spacing:0px;word-spacing:0px;fill:#ffffff;fill-opacity:1;stroke:none;stroke-width:0.52221608"
       id="text12-7-5">
      <path
         d="m -15.398365,268.52379 q 4.712479,0 8.4223022,2.30611 3.8100891,2.3061 5.9156647,6.61752 2.2058411,4.31141 2.2058411,10.22708 v 32.28549 H -9.6832314 v -31.6839 q 0,-4.61221 -2.6069026,-7.11885 -2.506638,-2.50664 -6.617524,-2.50664 -4.612213,0 -7.720443,3.00797 -3.007965,3.00796 -3.007965,9.52522 v 28.7762 h -10.828675 v -50.13275 h 10.828675 v 5.71513 q 4.612213,-7.01858 14.237701,-7.01858 z"
         style="font-style:normal;font-variant:normal;font-weight:600;font-stretch:normal;font-size:100.26550293px;font-family:Qanelas;-inkscape-font-specification:'Qanelas Semi-Bold';fill:#ffffff;stroke-width:0.52221608"
         id="path128"
         inkscape:connector-curvature="0" />
    </g>
    <g
       aria-label="d"
       transform="matrix(0.99803268,0,0,1.0019682,199.99565,-25.02887)"
       style="font-style:normal;font-variant:normal;font-weight:normal;font-stretch:normal;font-size:19.77998352px;line-height:1.25;font-family:Qanelas;-inkscape-font-specification:'Qanelas weight=255';letter-spacing:0px;word-spacing:0px;fill:#ffffff;fill-opacity:1;stroke:none;stroke-width:0.49449959"
       id="text12-7-5-3">
      <path
         d="m 54.104067,236.47443 v 66.46075 H 43.850123 v -6.83596 q -2.753374,3.79775 -7.025851,5.98147 -4.177533,2.08876 -9.684281,2.08876 -6.361244,0 -11.773048,-3.32304 -5.4118037,-3.32303 -8.6398974,-9.01967 -3.1331498,-5.69664 -3.1331498,-12.62754 0,-6.93091 3.1331498,-12.62755 3.2280937,-5.79157 8.6398974,-9.01967 5.411804,-3.32304 11.773048,-3.32304 5.506748,0 9.684281,2.08877 4.272477,2.08877 7.025851,5.98147 v -25.82475 z m -25.255085,57.9158 q 4.272477,0 7.690458,-1.89888 3.417982,-1.99382 5.31686,-5.41181 1.993823,-3.51292 1.993823,-7.88034 0,-4.36742 -1.993823,-7.7854 -1.898878,-3.51293 -5.31686,-5.41181 -3.417981,-1.99382 -7.690458,-1.99382 -4.272477,0 -7.690459,1.99382 -3.417981,1.89888 -5.411804,5.41181 -1.898879,3.41798 -1.898879,7.7854 0,4.36742 1.898879,7.88034 1.993823,3.41799 5.411804,5.41181 3.417982,1.89888 7.690459,1.89888 z"
         style="font-style:normal;font-variant:normal;font-weight:600;font-stretch:normal;font-size:94.94393158px;font-family:Qanelas;-inkscape-font-specification:'Qanelas Semi-Bold';fill:#ffffff;stroke-width:0.49449959"
         id="path131"
         inkscape:connector-curvature="0" />
    </g>
    <g
       aria-label="S"
       transform="matrix(1.0546739,0,0,0.94815756,199.99565,-25.02887)"
       style="font-style:normal;font-variant:normal;font-weight:normal;font-stretch:normal;font-size:19.99944115px;line-height:1.25;font-family:Qanelas;-inkscape-font-specification:'Qanelas weight=255';letter-spacing:0px;word-spacing:0px;fill:#ffffff;fill-opacity:1;stroke:none;stroke-width:0.49998599"
       id="text12-7-9">
      <path
         d="m -165.43662,321.01191 q -6.71982,0 -12.19167,-2.39993 -5.47184,-2.49593 -8.73575,-7.2958 -3.26391,-4.89586 -3.26391,-11.90367 h 11.03969 q 0,5.27985 3.4559,8.06378 3.45591,2.78392 9.69574,2.78392 5.37585,0 8.44776,-2.30394 3.16791,-2.30393 3.16791,-6.14383 0,-3.74389 -3.26391,-5.95183 -3.16791,-2.30394 -9.59973,-4.60787 -7.1998,-2.59193 -11.32769,-4.60787 -4.03188,-2.01595 -7.1038,-6.04784 -3.07191,-4.03189 -3.07191,-10.46371 0,-5.85583 2.97591,-10.07972 2.97592,-4.31988 7.77579,-6.52782 4.89586,-2.20793 10.55971,-2.20793 5.95183,0 11.03969,2.39993 5.08786,2.30393 8.06378,7.0078 3.07191,4.70387 3.07191,11.42369 h -11.03969 q 0,-4.89587 -2.97592,-7.4878 -2.97592,-2.59192 -8.15977,-2.59192 -4.60788,0 -7.4878,2.20794 -2.78392,2.20793 -2.78392,5.85583 0,4.03189 2.97592,6.33583 3.07191,2.30393 9.21574,4.51187 7.77579,2.87992 11.71168,4.79987 4.03189,1.91995 7.1998,5.85584 3.26391,3.93589 3.26391,10.17571 0,5.95184 -3.07192,10.36772 -3.07191,4.31988 -8.25577,6.62381 -5.18385,2.20794 -11.32768,2.20794 z"
         style="font-style:normal;font-variant:normal;font-weight:600;font-stretch:normal;font-size:95.99733734px;font-family:Qanelas;-inkscape-font-specification:'Qanelas Semi-Bold';fill:#ffffff;stroke-width:0.49998599"
         id="path119"
         inkscape:connector-curvature="0" />
    </g>
    <g
       aria-label="TM"
       transform="matrix(1.0365843,0,0,0.96470402,199.99565,-25.02887)"
       style="font-style:normal;font-weight:normal;font-size:13.55605984px;line-height:1.25;font-family:sans-serif;letter-spacing:0px;word-spacing:0px;fill:#ffffff;fill-opacity:1;stroke:none;stroke-width:0.33890149"
       id="text117">
      <path
         d="m 63.162831,306.46625 h -2.399422 v 7.99807 h -1.558947 v -7.99807 h -2.412979 v -1.49117 h 3.971926 2.399422 z"
         style="font-style:normal;font-variant:normal;font-weight:600;font-stretch:normal;font-family:Qanelas;-inkscape-font-specification:'Qanelas Semi-Bold';fill:#ffffff;stroke-width:0.33890149"
         id="path134"
         inkscape:connector-curvature="0" />
      <path
         d="M 73.397657,314.46432 H 71.83871 v -6.91359 l -2.372311,5.35465 h -1.220045 l -2.372311,-5.35465 v 6.91359 h -1.558946 v -9.48924 h 1.558946 0.257566 l 2.724768,6.12734 2.724768,-6.12734 h 1.816512 z"
         style="font-style:normal;font-variant:normal;font-weight:600;font-stretch:normal;font-family:Qanelas;-inkscape-font-specification:'Qanelas Semi-Bold';fill:#ffffff;stroke-width:0.33890149"
         id="path136"
         inkscape:connector-curvature="0" />
    </g>
  </g>
</svg>
