<?xml version="1.0" encoding="UTF-8" standalone="no"?>
<svg
   xmlns:dc="http://purl.org/dc/elements/1.1/"
   xmlns:cc="http://creativecommons.org/ns#"
   xmlns:rdf="http://www.w3.org/1999/02/22-rdf-syntax-ns#"
   xmlns:svg="http://www.w3.org/2000/svg"
   xmlns="http://www.w3.org/2000/svg"
   xmlns:sodipodi="http://sodipodi.sourceforge.net/DTD/sodipodi-0.dtd"
   xmlns:inkscape="http://www.inkscape.org/namespaces/inkscape"
   width="110.74"
   height="24"
   viewBox="0 0 110.74 24"
   version="1.1"
   id="svg12"
   sodipodi:docname="cc-wirex.svg"
   style="fill:none"
   inkscape:version="0.92.4 (5da689c313, 2019-01-14)">
  <metadata
     id="metadata18">
    <rdf:RDF>
      <cc:Work
         rdf:about="">
        <dc:format>image/svg+xml</dc:format>
        <dc:type
           rdf:resource="http://purl.org/dc/dcmitype/StillImage" />
        <dc:title></dc:title>
      </cc:Work>
    </rdf:RDF>
  </metadata>
  <defs
     id="defs16" />
  <sodipodi:namedview
     pagecolor="#ffffff"
     bordercolor="#666666"
     borderopacity="1"
     objecttolerance="10"
     gridtolerance="10"
     guidetolerance="10"
     inkscape:pageopacity="0"
     inkscape:pageshadow="2"
     inkscape:window-width="2560"
     inkscape:window-height="1377"
     id="namedview14"
     showgrid="false"
     inkscape:zoom="2.5585586"
     inkscape:cx="55.5"
     inkscape:cy="12"
     inkscape:window-x="-8"
     inkscape:window-y="-8"
     inkscape:window-maximized="1"
     inkscape:current-layer="svg12" />
  <path
     d="M 33.4363,0.542969 30.1718,11.9259 c -0.4287,1.4894 -0.7694,3 -1.0222,4.532 0,0.0106 0,0.0212 0,0.0212 h -0.099 C 28.9627,15.6281 28.7319,14.777 28.589,14.0536 L 24.9948,0.542969 H 17.6414 L 14.0692,14.043 c -0.1429,0.7234 -0.3737,1.5744 -0.4617,2.4255 h -0.0989 c 0,-0.0106 0,-0.0213 0,-0.0213 -0.2528,-1.5319 -0.5935,-3.0425 -1.0222,-4.5319 L 9.23289,0.542969 H 4.0229 L 5.55073,5.89403 H 0 V 9.72382 H 6.63889 L 7.72705,13.5323 H 0 v 3.8405 h 8.81521 l 1.74769,6.1383 h 6.2212 L 20.9938,7.41531 c 0.1319,-0.59575 0.2528,-1.24468 0.2858,-1.70213 h 0.0989 c 0.033,0.44681 0.1539,1.10638 0.2858,1.70213 l 4.2098,16.09579 h 6.2212 L 38.6462,0.542969 Z"
     id="path2"
     inkscape:connector-curvature="0"
     style="fill:#053f33" />
  <path
     d="M 47.1975,0.542969 H 41.6577 V 23.5111 h 5.5398 z"
     id="path4"
     inkscape:connector-curvature="0"
     style="fill:#053f33" />
  <path
     d="M 51.4185,0.542969 V 23.5111 h 5.089 V 5.09616 H 64.949 V 0.542969 Z"
     id="path6"
     inkscape:connector-curvature="0"
     style="fill:#053f33" />
  <path
     d="M 87.2181,7.09574 C 86.7785,5.70213 86.119,4.47872 85.2397,3.42553 84.3603,2.37234 83.2392,1.53191 81.8762,0.925532 80.5243,0.308511 78.8096,0 76.963,0 75.2374,0 73.5886,0.287234 72.2257,0.861702 70.8627,1.43617 69.7086,2.23404 68.7743,3.2766 67.84,4.31915 67.1146,5.56383 66.62,7.03191 66.1254,8.5 65.8726,10.1383 65.8726,11.9574 c 0,1.8405 0.2528,3.5107 0.7694,4.9894 0.5166,1.4787 1.253,2.7341 2.1983,3.7766 0.9562,1.0426 2.1213,1.8404 3.4953,2.4149 1.3739,0.5745 3.0556,0.8617 4.8033,0.8617 2.2093,0 4.2647,-0.3723 5.9464,-1.1277 1.6817,-0.7446 3.0007,-1.7872 3.968,-3.1063 l -3.1326,-3.3937 c -0.7255,0.9043 -1.5498,1.6383 -2.4731,2.2234 -0.9233,0.5852 -2.2203,0.8724 -3.6712,0.8724 -1.9015,0 -3.5613,-0.5 -4.5285,-1.5 -0.9013,-0.9362 -1.385,-2.1596 -1.4509,-3.6702 h 16.0476 l 0.033,-2.7341 c 0,-1.58508 -0.2198,-3.07444 -0.6595,-4.46806 z M 82.3159,9.69149 H 71.797 V 9.57447 c 0,-1.58511 0.4506,-2.42553 1.3629,-3.42553 0.9123,-1 2.3522,-1.56383 3.902,-1.56383 1.5499,0 2.9897,0.56383 3.902,1.56383 0.9123,1 1.363,1.84042 1.363,3.42553 v 0.11702 z"
     id="path8"
     inkscape:connector-curvature="0"
     style="fill:#053f33" />
  <path
     d="M 87.6909,23.5111 95.8027,11.8196 87.9107,0.542969 h 6.6389 l 4.8913,7.574471 h 0.1868 l 4.8363,-7.574471 h 6.188 l -8.024,11.361731 8.112,11.5957 h -6.639 l -5.0228,-7.9468 h -0.1869 l -5.0121,7.9575 z"
     id="path10"
     inkscape:connector-curvature="0"
     style="fill:#053f33" />
</svg>
