<?xml version="1.0" encoding="UTF-8" standalone="no"?>
<svg
   xmlns:dc="http://purl.org/dc/elements/1.1/"
   xmlns:cc="http://creativecommons.org/ns#"
   xmlns:rdf="http://www.w3.org/1999/02/22-rdf-syntax-ns#"
   xmlns:svg="http://www.w3.org/2000/svg"
   xmlns="http://www.w3.org/2000/svg"
   xmlns:sodipodi="http://sodipodi.sourceforge.net/DTD/sodipodi-0.dtd"
   xmlns:inkscape="http://www.inkscape.org/namespaces/inkscape"
   height="682.66699"
   viewBox="-40 0 431.00024 512.00023"
   width="574.66699"
   version="1.1"
   id="svg4"
   sodipodi:docname="copy.svg"
   inkscape:version="0.92.4 (5da689c313, 2019-01-14)">
  <metadata
     id="metadata10">
    <rdf:RDF>
      <cc:Work
         rdf:about="">
        <dc:format>image/svg+xml</dc:format>
        <dc:type
           rdf:resource="http://purl.org/dc/dcmitype/StillImage" />
        <dc:title></dc:title>
      </cc:Work>
    </rdf:RDF>
  </metadata>
  <defs
     id="defs8" />
  <sodipodi:namedview
     pagecolor="#ffffff"
     bordercolor="#666666"
     borderopacity="1"
     objecttolerance="10"
     gridtolerance="10"
     guidetolerance="10"
     inkscape:pageopacity="0"
     inkscape:pageshadow="2"
     inkscape:window-width="2560"
     inkscape:window-height="1377"
     id="namedview6"
     showgrid="false"
     inkscape:zoom="0.34570313"
     inkscape:cx="-128.72316"
     inkscape:cy="341.33333"
     inkscape:window-x="-8"
     inkscape:window-y="-8"
     inkscape:window-maximized="1"
     inkscape:current-layer="svg4"
     units="px" />
  <path
     d="M 231,512.00021 H 40 c -44.113281,0 -80,-35.88674 -80,-80.00004 V 161.00004 c 0,-44.1133 35.886719,-80.00003 80,-80.00003 h 191 c 44.11328,0 80,35.88673 80,80.00003 v 271.00013 c 0,44.1133 -35.88672,80.00004 -80,80.00004 z M 40,121.00002 c -22.054688,0 -40,17.94532 -40,40.00002 v 271.00013 c 0,22.0547 17.945312,40.00002 40,40.00002 h 191 c 22.05469,0 40,-17.94532 40,-40.00002 V 161.00004 c 0,-22.0547 -17.94531,-40.00002 -40,-40.00002 z M 391,382.00015 V 80.000009 C 391,35.886707 355.11328,-3.0470291e-5 311,-3.0470291e-5 H 89 C 77.95313,-3.0470291e-5 69,8.9530988 69,19.99998 c 0,11.04688 8.95313,20.00001 20,20.00001 h 222 c 22.05469,0 40,17.94532 40,40.000019 V 382.00015 c 0,11.04687 8.95312,20.00001 20,20.00001 11.04687,0 20,-8.95314 20,-20.00001 z m 0,0"
     id="path2"
     style="fill:#ffffff;fill-opacity:1"
     inkscape:connector-curvature="0" />
</svg>
