<?xml version="1.0" encoding="utf-8"?>
<!-- Generator: Adobe Illustrator 22.0.1, SVG Export Plug-In . SVG Version: 6.00 Build 0)  -->
<svg version="1.1" id="Ebene_1" xmlns="http://www.w3.org/2000/svg" xmlns:xlink="http://www.w3.org/1999/xlink" x="0px" y="0px"
	 viewBox="0 0 1046.2 512.4" style="enable-background:new 0 0 1046.2 512.4;" xml:space="preserve">
<style type="text/css">
	.st0{fill:#AC1C21;}
	.st1{fill:#CB2026;}
	.st2{fill:#D54B1B;}
	.st3{fill:#E57813;}
	.st4{fill:#FED100;}
	.st5{fill:#CB2228;}
	.st6{fill:#E47719;}
</style>
<title>fire-02</title>
<path class="st0" d="M-8.6,224.3c34.1,58.7,57.8,85.9,71,81.6c8.9-2.9,13.1-20,12.6-51.1c5.3,14.4,12.7,27.9,21.8,40.2
	c57.9-41,82.6-123.2,56.9-189.3c25.7,21.5,40.3,54,46.4,86.9s4.5,66.8,2.9,100.2c29.8-9.1,56.8-25.7,78.4-48.1
	c16.6-17.5,29.6-38.2,38.1-60.8c6.3,9.1,23.8,36.8,22.6,75.8c-0.8,23.9-8.4,47.1-21.8,66.9c64.5-25.7,108.2-86.4,112.3-155.7
	c48.6,41.7,84.3,96.5,102.9,157.8c36.1-81,96.6-148.8,173.1-193.8c-4.3,9.3-18.9,43.6-6.9,84.4c16.8,57.1,71,77.5,76.9,79.6
	c5.2-2.8,29.8-16.9,39.4-47.6c10.8-34.6-5.8-63.1-8.4-67.4c70.2,51.3,96.1,84.1,105.8,105.4c1.9,4.1,8.4,19.4,23.2,25.9
	c12.4,5.5,29.9,4.6,40.5-5.2c6.4-5.9,10.2-15.1,9.5-42.1c-0.8-27.5-5.5-54.8-14-81c17.5,5.4,40.7,15.6,60,36
	c69.5,73.3,34.9,221,0,286C896.6,766,178,810.4,10.9,509.4C-15.1,462.6-46.3,373.9-8.6,224.3z"/>
<path class="st1" d="M3.2,391.1c2.5-3.8,11.9-17.3,24.1-33c12.4-16,23.4-28.6,31.2-37.3c-1.7,9.8-0.2,19.9,4.1,28.9
	c12.1-24.5,20.2-50.8,23.9-77.9c1.3-10.4,2.1-20.8,2.4-31.2c1.5-49.9-8.7-63-2.4-82.8c4.4-13.6,16.7-30.7,52.8-44.8
	c-7.4,4.4-25.4,16.7-29.8,37.8c-2.8,13.5,1.2,24.8,7,41c8,22.4,14.2,25.1,21,42c10.6,26.1,2.9,37.3,8,63
	c3.2,16.2,11.7,39.4,36.5,65.2c15.4-4.7,37.7-14.3,57.1-34.5c11.7-12.1,27.9-29,27.4-50.8c-0.5-19-13.3-23.7-16-42
	c-2-13.6,1.7-33.8,28.5-61.6c-4.5,7.4-8.1,15.3-10.5,23.6c-4.2,14.4-7.5,25.3-3,36c6.5,15.6,24.2,19,32.5,31.7
	c0.4,0.6,1.5,2.3,2.7,2.2c4.2-0.4,3.2-21,7.8-21.9c3.1-0.6,8.1,7.4,11,16c7.1,20.8-0.9,36.3-3,54c-1.6,13.7-0.3,34.1,14.9,61.1
	c5-28.2,12-56,21.1-83.1c15.8-47.1,30.7-71.1,30-112c-0.4-14.1-2.1-28.2-5-42c-3.7-16.9-9.4-33.4-17-49c6.3,7.6,15,18.5,25,32
	c19.5,26.5,29.2,39.8,34,54c7.1,21.4,5.3,40.4,3,64c-3.3,34.4-12.2,52.8-4,59c4.2,3.2,11.8,2.4,24-4c3.4-7.2,8.2-13.6,14-19
	c13-12,29.8-17.1,31-15c0.8,1.3-5.6,4.4-11,13c-6.3,9.9-6.8,20.1-7,26c-0.4,9.8,1.4,20.7,9,37c6,12.9,17.5,33.5,39.7,55
	c5.6,2.8,12.7-0.6,16-5.9s4-11.8,4.5-18c1.9-23.9,1.7-54.9,5.7-70.1c6.2-23.8,17.3-20.8,26.1-46c8.9-25.5,3.7-46.2,1.8-62.2
	c-3.1-27.1,0.6-67.1,32.2-121.8c-4.2,12.6-6.5,25.7-7,39c-0.4,12.4-1,29.8,7,48c9.6,21.7,21.4,22,34,46c7.7,14.8,10,27.5,11.6,36.8
	c10.6,59.7-20.5,113.6-16.6,115.2c2.2,0.9,8.3-17,27-44c12.4-17.9,18.6-23,21-36c3.2-17.5-3.8-32.4-2-33c1.5-0.5,6.4,9.4,10,20
	c3.3,9.6,6.1,21.2,8,42c2.3,24.8,0.8,36.3,4,37s7.9-10.5,12-19c19.8-41.3,34.2-38.6,44-64c13.2-34.1-9.7-46.8,6.3-86.3
	c8.5-20.8,19.6-29.7,23.6-32.2c11.7-7.1,25.4-10.3,39-11.6c-9.9,1.4-19,6-26,13.1c-0.6,0.7-15.3,16.4-12,35
	c2.9,16.4,16.7,17.9,29,37.9c8.9,14.5,10.4,28.1,12,43.1c4.5,41-11.7,54.6-4,73c5,12.1,20.5,26.5,70.2,31.4
	c9.1-2.2,30.3-8.9,42.8-28.4c12-18.8,9.9-40.2,8-59c-1-10.3-2.5-14.3-7-33c-10.4-43-15.5-64.5-15.2-85c0.2-13.3,2.5-32.8,12.7-56.6
	c-2.9,15.1-2.8,30.6,0.5,45.6c10.8,47.9,50.2,64.1,80.3,106.5c14.8,20.8,31.8,54.3,36.1,107c0,0,14.9,86.5-13.4,164.5
	c-77.2,212.4-993.3,139.2-1040-7C-2.1,505.8-23.1,431.6,3.2,391.1z"/>
<path class="st2" d="M0.4,513.9c36.2,135.8,984.2,202.6,1042,0c8-28,4.6-80.8-3.9-121.8c-15.3-74.3-50.7-127.1-73-155.4
	c14,46.5,8.5,96.7-15.1,139.2c-12,6.3-58.3,28.7-108,11c-16.6-5.9-36.1-12.9-45-31c-15.8-32.1,20.4-61.9,6-109
	c-6.1-20-19-35.4-23-34c-4.6,1.6,5.7,24.4-1,51c-5.4,21.3-18.5,31.9-34,49c-14.8,16.4-34.6,41.7-53,79c-3.3-27.7-6.7-55.3-10-83
	c-12,35.6-35.2,66.5-66,88c-2.2-22.4-1.9-45,0.9-67.3c6-48.5,20.2-67.7,13.1-96.7c-3.6-14.5-13.3-34.6-42-55
	c6.6,20.3,12.5,50.2,3,82c-7.4,24.7-16.4,24.4-25,53c-10.3,34.4-1.7,49.2-13,85c-4.3,13.7-10.4,26.8-18,39c-18.6-12-52.7-38.2-73-84
	c-6.1-13.7-10.4-28.2-13-43l-54.1,26.6c0.5-13.3,1.2-26.9,2.1-40.6c2.3-35.5,5.7-69.5,10-102c-24,50.4-35.2,92.8-41,122
	c-7.9,39.9-9,71.6-32,106c-12.1,17.8-27.5,33.1-45.5,45c19-50.8,16.3-107.2-7.5-156c-7.6,17.5-29.2,60-73.5,77
	c-10.9,4.2-25.8,9.9-40.5,4c-13.5-5.4-21.8-18.4-37-66c-6.8-21.4-15.3-50.5-23-86c4.7,57.9-10.4,95.3-22,116
	c-10.2,18.2-30.4,46.3-38,43c-4.3-1.9-3.6-13.4-2-24c-11.4,8-28,21.9-39,44C6.4,418.9-14,459.8,0.4,513.9z"/>
<path class="st3" d="M0.4,513.9c22.5,128.3,990.9,192.7,1035,16c5.6-22.6,3.8-80-22-134.6c-18.8-39.9-44.9-66.4-61.8-81.2
	c0.9,6.4,6.3,49.4-24.3,82.8c-18.3,20-40.4,26.7-50,29c-11.4-0.5-21.5-7.5-26-18c-6-14.3,2.4-27,3-28c-4.8,3.8-11.6,9.1-20,15
	c-17.1,12-20.8,12.8-23,13c-13.9,1.5-25.4-10.3-30-15c-11.9-12.1-14.9-26.2-16-32c-4.2-21.1,2.8-38.2,6-45
	c-27.7,17.9-39.9,36.2-46,50c-3.2,7.4-6.5,17.7-15.3,31.4c-6.2,9.7-13.5,18.6-21.7,26.6c-10.6-13.4-16.2-30-16-47
	c-13.9,10.5-28.7,19.6-44.4,27.2c-17.9,8.6-23,8.4-26.6,6.8c-9.8-4.5-13.3-22.2-10-45c-25.6,53-35.8,64.1-40,62.7
	c-5.1-1.7,0.8-20.9-6.9-43.8c-7.2-21.2-22.7-35.5-36.1-44.9c8.2,16,11.7,34.1,10,52c-0.6,6-1.8,16.5-7.7,27.8
	c-14,26.6-47.8,45-60.2,36.3c-8.7-6-6-24.7-4.1-38.1c1.8-12.3,5.9-24.2,12-35c-11.7,19.5-31.6,27.7-45,22c-12.4-5.2-16.2-20.9-17-24
	c-4.2-17.1,4.1-31.1,6-34c-3.9,6-10,15.3-17,27c-34.9,58.1-46.3,95-56.4,93c-3.7-0.7-4.4-6-10.5-25.3c-6.6-20.9-12.9-37.3-17-47.7
	c-11.8,31.9-28.4,54.5-43,53c-3.2-0.3-10-2.2-31.5-37.9c-9.4-15.6-18-31.6-25.7-48.1l-13.9,50.2c-1.8,6.4-3.6,13-7.2,18.5
	s-9.4,10.2-16,10.7c-8.3,0.6-15.8-5.3-23.6-14.3c-25.7-29.7-23.8-55.2-48-89.2c-4.5-6.3-9.5-12.3-14.8-18
	c-1.2,30.5-2.6,62-15.5,89.8c-2.8,0-12.3-0.6-19.7-7.8c-8.5-8.4-10.6-22.4-5-35C28.7,377,21.2,389.1,15.2,402
	C15.1,402.1-9.7,455.8,0.4,513.9z"/>
<path class="st4" d="M-0.6,494.4c5-10.2,10.4-11.8,17.6-26.8s11.7-32,11.5-30.7c-0.8,4.9,0.2,9.9,3,14c1.4,1.9,3.1,3.5,5.1,4.7
	l4.9-8.7c2.2,6.8,3.9,8,5,8c2.2-0.1,3-5.4,7.5-13.1c1.6-2.8,3.5-5.4,5.5-7.9c4.4,10.1,15,29.9,36.8,42.1c8.8,4.9,24.2,13.2,36.7,7.6
	c7.4-3.3,12.3-10.6,18.9-15.3s17.8-5.8,21.4,1.5l25.1-11.6c2.2-1,4.7-2.1,7-1.3c2.1,0.7,3.4,2.8,4.6,4.7l10.5,17.6
	c5.1-7,8-15.5,8.2-24.2c6.9,3.3,12.8,8.3,17.1,14.6c1.3-5.2,2.5-10.4,3.7-15.5c1,13.5,11.3,25.1,23.5,31s26.2,7.2,39.7,7.4
	c11.2,0.2,23-0.3,32.8-5.7s17.3-16.8,14.5-27.7c4.1-1.8,7.3,3.5,10.4,6.7s11.1,0.8,8.1-2.5l19.8,17c-2-3.5,3.2-7.3,7-6.1
	s6.1,4.9,8.8,7.9c13.9,15.5,44.1,8.9,50.3-10.9c1.2,7.2,10.8,10.6,17.5,7.6s10.6-10.2,12.4-17.3c2.1,7.2,10.7,10.3,18.1,10.5
	c7.4,0.2,15.2-1.4,22.3,0.9c9.2,2.9,15.8,11.6,25.2,13.7c9.1,2.1,19.4-3.5,22.6-12.3c2.2-6,2.2-14.1,8.1-16.7
	c2.6-1.1,5.6-0.7,8.4-0.8c9.4-0.6,17.2-7.4,19-16.6c5.4,4.6,13.1,5.3,19.2,1.6c2.3-1.5,4.5-3.6,7.2-3.7c3.1,0,5.5,2.6,7.4,5.1
	c4.7,5.9,9.3,11.8,13.9,17.6c0.7-4.6,7.8-4.5,11.3-1.4s5.8,7.7,10.2,9.2c9.8,3.4,18.1-11.6,28.4-9.9c11.3,1.9,15.6,22.4,26.5,18.7
	c6.9-2.3,9.9-14.1,16.9-12.1c2.7,0.8,4.3,3.4,6.2,5.5c6.6,7.4,19.6,7.6,26.5,0.6l10,13.2c18-13.4,32.7-28,47.3-45.1l20.1,25.1
	c0.5-7.9,4.1-15.3,10-20.5c4.9,15,26.9,20.7,38.5,10c3.4-3.1,6.7-7.6,11.3-7.3c2.6,0.2,4.7,1.9,6.8,3.5c6.2,4.6,13.5,8.2,21.2,8.5
	s15.9-3.5,19.4-10.4c1.2-2.4,2.3-5.5,5-5.8c1.4,0,2.7,0.5,3.8,1.3l20.5,12.6l7.2-17.9c1-2.4,2.3-5.2,4.8-5.7c2-0.4,3.9,0.6,5.6,1.7
	c16.9,10.3,24.3,17,25.7,18.6c13.5,16.3,1.1,76.7-6.4,93.7c-63.2,142.8-1025.8,65.7-1044-4C-9.5,512.6-0.6,494.4-0.6,494.4z"/>
<path class="st5" d="M27.5,172.8c0,1.2,0.5,2.4,1.4,3.3c1.5,1.1,4.2,0.8,6.6-1.2c1.8-2.3,2.9-5.2,3.1-8.1c0.3-4-1-8.6-2.4-8.6
	c-1,0-1,2.6-3.7,6.7S27.4,170,27.5,172.8z"/>
<path class="st5" d="M157.7,64.8c-2.4,3.8-4.2,8-5.5,12.3c-0.6,1.7-0.6,3.5,0.1,5.2c0.8,1.6,2.9,2.6,4.4,1.6
	c1.1-0.8,1.7-2.2,1.5-3.6"/>
<path class="st5" d="M240.1,160.4l-1.4,6.6c-0.5,2.2-0.8,4.9,1,6.3c1.7,1.1,3.9,0.6,5.1-1c1.1-1.7,1.3-3.7,0.6-5.6
	c-0.6-1.9-1.6-3.6-2.9-5"/>
<path class="st5" d="M406.7,74.8c-2.4,3.8-4.2,8-5.5,12.3c-0.7,1.7-0.7,3.5,0,5.2c0.8,1.6,2.9,2.6,4.4,1.6c1.1-0.8,1.7-2.2,1.5-3.6"
	/>
<path class="st5" d="M971.9,70.3c-3.9,2.3-7.5,5.1-10.7,8.3c-1.3,1.2-2.2,2.8-2.4,4.6c-0.1,1.8,1.4,3.7,3.1,3.5
	c1.4-0.2,2.6-1.1,3-2.5"/>
<path class="st5" d="M485.5,182.8c0,1.2,0.5,2.4,1.4,3.3c1.5,1.1,4.2,0.8,6.6-1.2c1.8-2.3,2.9-5.2,3.1-8.1c0.3-4-1-8.6-2.4-8.6
	c-1,0-1,2.6-3.7,6.7S485.4,180,485.5,182.8z"/>
<path class="st5" d="M639.5,139.8c0,1.2,0.5,2.4,1.4,3.3c1.5,1.1,4.2,0.8,6.6-1.2c1.8-2.3,2.9-5.2,3.1-8.1c0.3-4-1-8.6-2.4-8.6
	c-1,0-1,2.6-3.7,6.7C641.8,136,639.4,137,639.5,139.8z"/>
<path class="st5" d="M848.1,151.4l1.7,6.6c0.6,2.2,0.9,4.9-1.2,6.3c-2,1.1-4.5,0.7-6.1-1c-1.3-1.6-1.5-3.8-0.7-5.6
	c0.7-1.9,1.9-3.7,3.5-5"/>
<path class="st5" d="M735.7,127.7l-5.3,4.3c-1.8,1.4-3.7,3.3-3.2,5.5c0.6,1.9,2.6,3,4.6,2.5c1.9-0.6,3.4-2,4-3.9
	c0.7-1.8,1-3.8,0.8-5.7"/>
<path class="st6" d="M174.7,211.7c-1,0.6-0.3,2.7-0.2,9.3c0,1.6,0,2.9-0.1,3.9c0.2,2.6,1.3,4.9,3.1,5.5c1.2,0.4,2.4-0.1,4.3-0.5
	c1-0.1,1.9-0.5,2.6-1.2c0.5-0.6,0.9-1.6,0.2-4.8c-0.6-2.9-1.2-5.5-3.4-8.2C179.4,213.9,176.1,210.8,174.7,211.7z"/>
<path class="st6" d="M790.7,76.6c-1.1,0.3-1,2.5-3,8.8c-0.5,1.5-0.9,2.8-1.2,3.8c-0.6,2.6-0.2,5.1,1.3,6.2c1,0.7,2.3,0.6,4.2,0.8
	c1,0.2,1.9,0,2.8-0.4c0.6-0.4,1.3-1.3,1.6-4.5c0.2-3,0.4-5.6-0.9-8.8C794.6,80.1,792.3,76.2,790.7,76.6z"/>
<path class="st6" d="M467.2,82.3c-1.9,3.2-3.3,6.7-4,10.4c-0.4,1.4-0.4,3,0,4.4c0.4,1.5,1.8,2.5,3.3,2.5c2.4-0.2,3.2-3.3,3.4-5.8
	C470.2,89.8,470.2,85.1,467.2,82.3"/>
<path class="st6" d="M47.5,65.1c-0.7,6.2,1.7,12.3,4.1,18c0.4,1.1,1,2.3,2.2,2.6c1.2,0.2,2.4-0.5,2.8-1.7c0.4-1.1,0.4-2.3,0.1-3.5
	c-1.2-6.4-4.5-12.2-9.4-16.4"/>
<path class="st6" d="M674,182c-0.9,1.7-2.4,3-3,4.7s0.8,4.3,2.6,3.8c0.5-0.2,0.9-0.5,1.2-0.9c1.9-2.6,1.4-6.1-1.1-8.1l-0.1-0.1"/>
<path class="st6" d="M939.2,0.1l-0.1,9.4c0,1.5,0.5,3.5,1.9,3.5s1.9-1.9,1.9-3.3C942.8,6.1,942.1,2.2,939.2,0.1"/>
</svg>
