<?xml version="1.0" encoding="UTF-8" standalone="no"?>
<!-- Created with Inkscape (http://www.inkscape.org/) -->

<svg
   xmlns:dc="http://purl.org/dc/elements/1.1/"
   xmlns:cc="http://creativecommons.org/ns#"
   xmlns:rdf="http://www.w3.org/1999/02/22-rdf-syntax-ns#"
   xmlns:svg="http://www.w3.org/2000/svg"
   xmlns="http://www.w3.org/2000/svg"
   xmlns:xlink="http://www.w3.org/1999/xlink"
   xmlns:sodipodi="http://sodipodi.sourceforge.net/DTD/sodipodi-0.dtd"
   xmlns:inkscape="http://www.inkscape.org/namespaces/inkscape"
   width="108.945mm"
   height="131.86mm"
   viewBox="0 0 108.945 131.86"
   version="1.1"
   id="svg8"
   inkscape:version="0.92.4 (5da689c313, 2019-01-14)"
   sodipodi:docname="ghost.svg">
  <defs
     id="defs2">
    <linearGradient
       inkscape:collect="always"
       id="linearGradient978">
      <stop
         style="stop-color:#282d44;stop-opacity:1"
         offset="0"
         id="stop974" />
      <stop
         style="stop-color:#24283c;stop-opacity:1"
         offset="1"
         id="stop976" />
    </linearGradient>
    <linearGradient
       inkscape:collect="always"
       xlink:href="#linearGradient978"
       id="linearGradient980"
       x1="205.88086"
       y1="0"
       x2="205.88086"
       y2="498.36914"
       gradientUnits="userSpaceOnUse" />
  </defs>
  <sodipodi:namedview
     id="base"
     pagecolor="#ffffff"
     bordercolor="#666666"
     borderopacity="1.0"
     inkscape:pageopacity="0.0"
     inkscape:pageshadow="2"
     inkscape:zoom="0.93"
     inkscape:cx="-106.61667"
     inkscape:cy="419.17639"
     inkscape:document-units="mm"
     inkscape:current-layer="layer1"
     showgrid="false"
     inkscape:window-width="2560"
     inkscape:window-height="1377"
     inkscape:window-x="-8"
     inkscape:window-y="-8"
     inkscape:window-maximized="1" />
  <metadata
     id="metadata5">
    <rdf:RDF>
      <cc:Work
         rdf:about="">
        <dc:format>image/svg+xml</dc:format>
        <dc:type
           rdf:resource="http://purl.org/dc/dcmitype/StillImage" />
        <dc:title></dc:title>
      </cc:Work>
    </rdf:RDF>
  </metadata>
  <g
     inkscape:label="Layer 1"
     inkscape:groupmode="layer"
     id="layer1"
     transform="translate(0,-165.14)">
    <path
       style="fill:url(#linearGradient980);stroke:none;stroke-width:1.00000143px;stroke-linecap:butt;stroke-linejoin:miter;stroke-opacity:1;fill-opacity:1"
       d="M 205.88086 0 A 205.88031 205.8809 0 0 0 0 205.87891 A 205.88031 205.8809 0 0 0 0 205.88281 L 0 462.41992 L 0 498.36914 L 34.314453 462.41992 L 68.626953 498.36914 L 102.94141 462.41992 L 137.25391 498.36914 L 171.56836 462.41992 L 205.88086 498.36914 L 240.19531 462.41992 L 274.50781 498.36914 L 308.82227 462.41992 L 343.13477 498.36914 L 377.44922 462.41992 L 411.76172 498.36914 L 411.76172 462.41992 L 411.75977 462.41992 L 411.75977 205.91797 A 205.88031 205.8809 0 0 0 411.76172 205.87891 A 205.88031 205.8809 0 0 0 205.88086 0 z M 100.85938 150.51562 A 20.858896 20.858896 0 0 1 121.71875 171.375 A 20.858896 20.858896 0 0 1 100.85938 192.23438 A 20.858896 20.858896 0 0 1 80 171.375 A 20.858896 20.858896 0 0 1 100.85938 150.51562 z M 310.90039 150.51562 A 20.858896 20.858896 0 0 1 331.75977 171.375 A 20.858896 20.858896 0 0 1 310.90039 192.23438 A 20.858896 20.858896 0 0 1 290.04297 171.375 A 20.858896 20.858896 0 0 1 310.90039 150.51562 z M 205.90625 245.36133 A 91.10336 91.10429 0 0 1 296.83984 333.08984 L 285.23242 333.08984 A 79.447033 79.447845 0 0 0 205.90625 257.01758 A 79.447033 79.447845 0 0 0 126.625 333.08984 L 114.91992 333.08984 A 91.10336 91.10429 0 0 1 205.90625 245.36133 z "
       transform="matrix(0.26458333,0,0,0.26458333,0,165.14)"
       id="path826" />
  </g>
</svg>
