<?xml version="1.0" encoding="UTF-8" standalone="no"?>
<!-- Generator: Adobe Illustrator 19.0.0, SVG Export Plug-In . SVG Version: 6.00 Build 0)  -->

<svg
   xmlns:dc="http://purl.org/dc/elements/1.1/"
   xmlns:cc="http://creativecommons.org/ns#"
   xmlns:rdf="http://www.w3.org/1999/02/22-rdf-syntax-ns#"
   xmlns:svg="http://www.w3.org/2000/svg"
   xmlns="http://www.w3.org/2000/svg"
   xmlns:sodipodi="http://sodipodi.sourceforge.net/DTD/sodipodi-0.dtd"
   xmlns:inkscape="http://www.inkscape.org/namespaces/inkscape"
   version="1.1"
   id="Layer_1"
   x="0px"
   y="0px"
   viewBox="0 0 492.308 492.308"
   style="enable-background:new 0 0 492.308 492.308;"
   xml:space="preserve"
   sodipodi:docname="icon-coins.svg"
   inkscape:version="0.92.4 (5da689c313, 2019-01-14)"><metadata
   id="metadata43"><rdf:RDF><cc:Work
       rdf:about=""><dc:format>image/svg+xml</dc:format><dc:type
         rdf:resource="http://purl.org/dc/dcmitype/StillImage" /></cc:Work></rdf:RDF></metadata><defs
   id="defs41" /><sodipodi:namedview
   pagecolor="#ffffff"
   bordercolor="#666666"
   borderopacity="1"
   objecttolerance="10"
   gridtolerance="10"
   guidetolerance="10"
   inkscape:pageopacity="0"
   inkscape:pageshadow="2"
   inkscape:window-width="2560"
   inkscape:window-height="1377"
   id="namedview39"
   showgrid="false"
   inkscape:zoom="0.47937469"
   inkscape:cx="-92.829261"
   inkscape:cy="246.15401"
   inkscape:window-x="-8"
   inkscape:window-y="-8"
   inkscape:window-maximized="1"
   inkscape:current-layer="Layer_1" />
<g
   id="g6"
   style="fill:#6e717f;fill-opacity:1">
	<g
   id="g4"
   style="fill:#6e717f;fill-opacity:1">
		<path
   d="M246.149,0C126.49,0,32.755,45.74,32.755,104.135v284.029c0,58.394,93.736,104.144,213.394,104.144    c119.664,0,213.404-45.75,213.404-104.144V104.135C459.553,45.74,365.813,0,246.149,0z M439.861,388.163    c0,45.779-88.712,84.452-193.712,84.452c-104.995,0-193.702-38.673-193.702-84.452v-49.358    c33.493,35.688,106.635,59.964,193.702,59.964c87.072,0,160.218-24.276,193.712-59.965V388.163z M439.861,294.635    c0,45.769-88.712,84.442-193.712,84.442c-104.995,0-193.702-38.673-193.702-84.442v-49.425    c33.493,35.688,106.635,59.964,193.702,59.964c87.072,0,160.218-24.276,193.712-59.965V294.635z M439.861,201.038    c0,45.769-88.712,84.442-193.712,84.442c-104.995,0-193.702-38.673-193.702-84.442v-52.733    c33.493,35.688,106.635,59.964,193.702,59.964c87.072,0,160.218-24.276,193.712-59.965V201.038z M246.149,188.577    c-104.995,0-193.702-38.673-193.702-84.442s88.707-84.442,193.702-84.442c105,0,193.712,38.673,193.712,84.442    S351.149,188.577,246.149,188.577z"
   id="path2"
   style="fill:#6e717f;fill-opacity:1" />
	</g>
</g>
<g
   id="g8">
</g>
<g
   id="g10">
</g>
<g
   id="g12">
</g>
<g
   id="g14">
</g>
<g
   id="g16">
</g>
<g
   id="g18">
</g>
<g
   id="g20">
</g>
<g
   id="g22">
</g>
<g
   id="g24">
</g>
<g
   id="g26">
</g>
<g
   id="g28">
</g>
<g
   id="g30">
</g>
<g
   id="g32">
</g>
<g
   id="g34">
</g>
<g
   id="g36">
</g>
</svg>