<?xml version="1.0" encoding="UTF-8" standalone="no"?>
<svg
   xmlns:dc="http://purl.org/dc/elements/1.1/"
   xmlns:cc="http://creativecommons.org/ns#"
   xmlns:rdf="http://www.w3.org/1999/02/22-rdf-syntax-ns#"
   xmlns:svg="http://www.w3.org/2000/svg"
   xmlns="http://www.w3.org/2000/svg"
   xmlns:sodipodi="http://sodipodi.sourceforge.net/DTD/sodipodi-0.dtd"
   xmlns:inkscape="http://www.inkscape.org/namespaces/inkscape"
   height="457pt"
   viewBox="-7 0 457 457.14286"
   width="457pt"
   version="1.1"
   id="svg6"
   sodipodi:docname="icon-award-white.svg"
   inkscape:version="0.92.4 (5da689c313, 2019-01-14)">
  <metadata
     id="metadata12">
    <rdf:RDF>
      <cc:Work
         rdf:about="">
        <dc:format>image/svg+xml</dc:format>
        <dc:type
           rdf:resource="http://purl.org/dc/dcmitype/StillImage" />
        <dc:title />
      </cc:Work>
    </rdf:RDF>
  </metadata>
  <defs
     id="defs10" />
  <sodipodi:namedview
     pagecolor="#ffffff"
     bordercolor="#666666"
     borderopacity="1"
     objecttolerance="10"
     gridtolerance="10"
     guidetolerance="10"
     inkscape:pageopacity="0"
     inkscape:pageshadow="2"
     inkscape:window-width="2560"
     inkscape:window-height="1377"
     id="namedview8"
     showgrid="false"
     inkscape:zoom="0.38730853"
     inkscape:cx="-114.89548"
     inkscape:cy="304.66667"
     inkscape:window-x="-8"
     inkscape:window-y="-8"
     inkscape:window-maximized="1"
     inkscape:current-layer="svg6" />
  <path
     d="m433.875 56.945312h-47.464844c1.925782-15.890624 2.957032-31.890624 2.957032-47.695312v-.105469c0-5.054687-4.089844-9.144531-9.144532-9.144531h-317.355468c-5.054688 0-9.144532 4.089844-9.144532 9.144531 0 16.039063 1.050782 32.070313 3.015625 47.800781h-47.523437c-5.054688 0-9.1445315 4.089844-9.1445315 9.144532v10.402344c0 65.25 45.6874995 120.703124 109.1757815 133.625 16.519531 27.785156 36.460937 53.589843 59.496094 76.613281.285156.289062.589843.546875.902343.789062 6.015625 5.851563 12.878907 10.519531 20.410157 14.027344v98.300781h-6.644532c-15.554687 0-28.203125 12.652344-28.203125 28.207032v19.945312c0 5.054688 4.085938 9.144531 9.140625 9.144531h114.394532c5.050781 0 9.140624-4.089843 9.140624-9.144531v-19.945312c0-15.554688-12.652343-28.207032-28.203124-28.207032h-6.644532v-98.242187c7.890625-3.597657 15.09375-8.539063 21.410156-14.875 23.0625-23.054688 43-48.851563 59.496094-76.617188 63.425782-13.007812 109.078125-68.464843 109.078125-133.621093v-10.402344c0-5.054688-4.089843-9.144532-9.144531-9.144532zm-415.519531 19.546876v-1.261719h41.128906c6.640625 39.421875 19.132813 77.195312 37.328125 112.601562-46.453125-16.484375-78.457031-60.507812-78.457031-111.339843zm251.242187 351.5625v10.800781h-96.105468v-10.800781c0-5.472657 4.445312-9.921876 9.917968-9.921876h76.269532c5.472656 0 9.917968 4.449219 9.917968 9.921876zm-61.257812-28.207032v-92.4375c4.421875.804688 8.890625 1.222656 13.347656 1.222656 4.386719 0 8.761719-.398437 13.0625-1.175781v92.390625zm53.167968-126.042968c-5.964843 5.980468-12.910156 10.382812-20.800781 13.132812-12.234375 4.535156-25.875 4.535156-38.375-.019531-7.777343-2.828125-14.6875-7.238281-20.546875-13.113281-.277344-.269532-.5625-.519532-.855468-.75-22.589844-22.699219-42.117188-48.144532-58.074219-75.652344-23.988281-41-39.675781-85.625-46.632813-132.707032-2.339844-15.203124-3.714844-30.777343-4.097656-46.410156h298.847656c-.382812 15.457032-1.722656 31.046875-4.007812 46.445313-7.054688 46.9375-22.75 91.582031-46.652344 132.699219-16.089844 27.765624-35.875 53.464843-58.804688 76.375zm163.222657-197.3125c0 50.769531-31.976563 94.785156-78.402344 111.320312 18.144531-35.472656 30.644531-73.222656 37.363281-112.582031h41.039063zm0 0"
     id="path2"
     style="fill:#ffffff;fill-opacity:1" />
  <path
     d="m290.792969 113.097656-42.1875-6.132812-18.863281-38.222656c-3.074219-6.25-13.324219-6.25-16.394532 0l-18.867187 38.222656-42.1875 6.132812c-3.445313.5-6.300781 2.910156-7.382813 6.214844-1.070312 3.3125-.179687 6.945312 2.3125 9.375l30.527344 29.757812-7.207031 42.027344c-.585938 3.429688.824219 6.894532 3.636719 8.9375 2.828124 2.054688 6.550781 2.320313 9.632812.695313l37.730469-19.835938 37.734375 19.835938c1.339844.707031 2.804687 1.054687 4.257812 1.054687 1.894532 0 3.777344-.589844 5.375-1.75 2.8125-2.042968 4.222656-5.507812 3.632813-8.9375l-7.203125-42.027344 30.527344-29.757812c2.488281-2.429688 3.382812-6.0625 2.3125-9.375-1.082032-3.304688-3.9375-5.714844-7.386719-6.214844zm-41.660157 35.617188c-2.152343 2.097656-3.132812 5.125-2.625 8.089844l4.886719 28.5-25.589843-13.457032c-1.339844-.703125-2.796876-1.054687-4.261719-1.054687-1.460938 0-2.917969.351562-4.257813 1.054687l-25.589844 13.457032 4.886719-28.5c.507813-2.964844-.476562-5.992188-2.625-8.089844l-20.707031-20.1875 28.617188-4.160156c2.980468-.429688 5.550781-2.304688 6.882812-5l12.792969-25.921876 12.796875 25.921876c1.328125 2.695312 3.902344 4.570312 6.882812 5l28.617188 4.160156zm0 0"
     id="path4"
     style="fill:#ffffff;fill-opacity:1" />
</svg>
