<?xml version="1.0" encoding="UTF-8" standalone="no"?>
<svg
   xmlns:dc="http://purl.org/dc/elements/1.1/"
   xmlns:cc="http://creativecommons.org/ns#"
   xmlns:rdf="http://www.w3.org/1999/02/22-rdf-syntax-ns#"
   xmlns:svg="http://www.w3.org/2000/svg"
   xmlns="http://www.w3.org/2000/svg"
   xmlns:sodipodi="http://sodipodi.sourceforge.net/DTD/sodipodi-0.dtd"
   xmlns:inkscape="http://www.inkscape.org/namespaces/inkscape"
   enable-background="new 0 0 96 96"
   height="88"
   id="clock"
   version="1.1"
   viewBox="0 0 88 88"
   width="88"
   xml:space="preserve"
   sodipodi:docname="icon-clock.svg"
   inkscape:version="0.92.4 (5da689c313, 2019-01-14)"><metadata
     id="metadata11"><rdf:RDF><cc:Work
         rdf:about=""><dc:format>image/svg+xml</dc:format><dc:type
           rdf:resource="http://purl.org/dc/dcmitype/StillImage" /><dc:title></dc:title></cc:Work></rdf:RDF></metadata><defs
     id="defs9" /><sodipodi:namedview
     pagecolor="#ffffff"
     bordercolor="#666666"
     borderopacity="1"
     objecttolerance="10"
     gridtolerance="10"
     guidetolerance="10"
     inkscape:pageopacity="0"
     inkscape:pageshadow="2"
     inkscape:window-width="2560"
     inkscape:window-height="1377"
     id="namedview7"
     showgrid="false"
     inkscape:zoom="2.4583333"
     inkscape:cx="48"
     inkscape:cy="48"
     inkscape:window-x="-8"
     inkscape:window-y="-8"
     inkscape:window-maximized="1"
     inkscape:current-layer="clock" /><path
     d="M 44,0 C 19.7,0 0,19.7 0,44 0,68.301 19.7,88 44,88 68.301,88 88,68.301 88,44 88,19.7 68.301,0 44,0 Z m 0,80 C 24.118,80 8,63.882 8,44 8,24.118 24.118,8 44,8 63.882,8 80,24.118 80,44 80,63.882 63.882,80 44,80 Z"
     id="path2"
     inkscape:connector-curvature="0"
     style="fill:#ffffff" /><path
     d="M 48,42.343 V 20 c 0,-2.209 -1.791,-4 -4,-4 -2.209,0 -4,1.791 -4,4 v 24 c 0,0.009 0.003,0.018 0.003,0.027 10e-4,0.253 0.026,0.506 0.076,0.755 0.024,0.123 0.069,0.234 0.104,0.354 0.039,0.132 0.069,0.266 0.122,0.395 0.058,0.138 0.136,0.264 0.208,0.394 0.054,0.1 0.097,0.2 0.16,0.295 0.147,0.221 0.314,0.428 0.501,0.613 l 11.311,11.312 c 1.562,1.562 4.097,1.562 5.658,0 1.562,-1.562 1.562,-4.097 0,-5.656 z"
     id="path4"
     inkscape:connector-curvature="0"
     style="fill:#ffffff" /></svg>