<?xml version="1.0" encoding="UTF-8" standalone="no"?>
<svg
   xmlns:dc="http://purl.org/dc/elements/1.1/"
   xmlns:cc="http://creativecommons.org/ns#"
   xmlns:rdf="http://www.w3.org/1999/02/22-rdf-syntax-ns#"
   xmlns:svg="http://www.w3.org/2000/svg"
   xmlns="http://www.w3.org/2000/svg"
   xmlns:sodipodi="http://sodipodi.sourceforge.net/DTD/sodipodi-0.dtd"
   xmlns:inkscape="http://www.inkscape.org/namespaces/inkscape"
   id="Layer_1"
   version="1.1"
   viewBox="0 0 46.390999 51.700001"
   xml:space="preserve"
   sodipodi:docname="icon-drops.svg"
   width="46.390999"
   height="51.700001"
   inkscape:version="0.92.4 (5da689c313, 2019-01-14)"><metadata
     id="metadata11"><rdf:RDF><cc:Work
         rdf:about=""><dc:format>image/svg+xml</dc:format><dc:type
           rdf:resource="http://purl.org/dc/dcmitype/StillImage" /><dc:title></dc:title></cc:Work></rdf:RDF></metadata><defs
     id="defs9" /><sodipodi:namedview
     pagecolor="#ffffff"
     bordercolor="#666666"
     borderopacity="1"
     objecttolerance="10"
     gridtolerance="10"
     guidetolerance="10"
     inkscape:pageopacity="0"
     inkscape:pageshadow="2"
     inkscape:window-width="2560"
     inkscape:window-height="1377"
     id="namedview7"
     showgrid="false"
     inkscape:zoom="1.99"
     inkscape:cx="32"
     inkscape:cy="32"
     inkscape:window-x="-8"
     inkscape:window-y="-8"
     inkscape:window-maximized="1"
     inkscape:current-layer="Layer_1" /><g
     id="g4"
     transform="translate(-8.7660126,-8.8)"
     style="fill:#6e717f;fill-opacity:1"><path
       d="m 22.7,60.2 c 1.1,0.2 2.3,0.3 3.4,0.3 0.4,0 0.8,0 1.1,0 4.2,-0.2 8,-2 10.9,-5 0.4,0 0.7,0 1.1,0 6.2,-0.4 11.6,-4 14.3,-9.8 2.7,-5.9 2.1,-12.8 -1.8,-17.9 L 37.6,8.8 30,19.6 25.7,13.8 12,33.1 c -3.5,5 -4.2,11.2 -1.9,16.9 2.2,5.4 6.9,9.2 12.6,10.2 z m 15,-48 12.5,16.8 c 3.4,4.6 4,10.7 1.6,15.9 -2.3,4.8 -6.6,8 -11.8,8.6 0.1,-0.1 0.2,-0.3 0.3,-0.4 0.1,-0.2 0.2,-0.3 0.3,-0.5 0.2,-0.2 0.3,-0.5 0.4,-0.7 0.1,-0.2 0.2,-0.4 0.3,-0.5 0.1,-0.3 0.3,-0.5 0.4,-0.8 0.1,-0.2 0.2,-0.4 0.2,-0.5 0.1,-0.3 0.2,-0.6 0.3,-0.9 0.1,-0.2 0.1,-0.3 0.2,-0.5 0.1,-0.4 0.3,-0.9 0.4,-1.3 0,-0.1 0,-0.1 0,-0.2 0.1,-0.4 0.2,-0.8 0.2,-1.2 0,-0.2 0,-0.4 0.1,-0.5 0,-0.3 0.1,-0.6 0.1,-0.9 0,-0.2 0,-0.4 0,-0.6 0,-0.3 0,-0.6 0,-0.8 0,-0.2 0,-0.4 0,-0.6 0,-0.3 0,-0.5 -0.1,-0.8 0,-0.2 0,-0.4 -0.1,-0.6 0,-0.3 -0.1,-0.5 -0.1,-0.8 0,-0.2 -0.1,-0.4 -0.1,-0.6 C 42.7,39.5 42.7,39.3 42.6,39 42.5,38.8 42.5,38.6 42.4,38.4 42.3,38.1 42.2,37.9 42.1,37.6 42,37.4 42,37.2 41.9,37 41.8,36.7 41.7,36.5 41.5,36.2 41.4,36 41.3,35.8 41.2,35.7 41.1,35.4 40.9,35.1 40.7,34.9 40.6,34.8 40.5,34.6 40.4,34.5 40.1,34.1 39.9,33.7 39.6,33.3 L 31.1,21.9 Z m -24.1,22.1 12.1,-17.1 3.5,4.7 9,12 c 5.1,6.8 3.3,15.1 -1.1,19.9 -2.6,2.8 -6,4.4 -9.9,4.7 -1.4,0.1 -2.8,0 -4.1,-0.2 C 18,57.4 14,54.1 12,49.3 9.9,44.2 10.5,38.7 13.6,34.3 Z"
       id="path2"
       inkscape:connector-curvature="0"
       style="fill:#6e717f;fill-opacity:1" /></g></svg>