<?xml version="1.0" encoding="UTF-8" standalone="no"?>
<svg
   xmlns:dc="http://purl.org/dc/elements/1.1/"
   xmlns:cc="http://creativecommons.org/ns#"
   xmlns:rdf="http://www.w3.org/1999/02/22-rdf-syntax-ns#"
   xmlns:svg="http://www.w3.org/2000/svg"
   xmlns="http://www.w3.org/2000/svg"
   xmlns:sodipodi="http://sodipodi.sourceforge.net/DTD/sodipodi-0.dtd"
   xmlns:inkscape="http://www.inkscape.org/namespaces/inkscape"
   height="20.1"
   version="1.1"
   width="20"
   id="svg14"
   sodipodi:docname="icon-star.svg"
   inkscape:version="0.92.4 (5da689c313, 2019-01-14)">
  <metadata
     id="metadata20">
    <rdf:RDF>
      <cc:Work
         rdf:about="">
        <dc:format>image/svg+xml</dc:format>
        <dc:type
           rdf:resource="http://purl.org/dc/dcmitype/StillImage" />
        <dc:title></dc:title>
      </cc:Work>
    </rdf:RDF>
  </metadata>
  <defs
     id="defs18" />
  <sodipodi:namedview
     pagecolor="#ffffff"
     bordercolor="#666666"
     borderopacity="1"
     objecttolerance="10"
     gridtolerance="10"
     guidetolerance="10"
     inkscape:pageopacity="0"
     inkscape:pageshadow="2"
     inkscape:window-width="2560"
     inkscape:window-height="1377"
     id="namedview16"
     showgrid="false"
     inkscape:zoom="9.8333333"
     inkscape:cx="12.149385"
     inkscape:cy="-8.3389831"
     inkscape:window-x="-8"
     inkscape:window-y="-8"
     inkscape:window-maximized="1"
     inkscape:current-layer="svg14" />
  <g
     style="fill:#e67e22"
     id="g6"
     transform="translate(-2,-1029.8)">
    <path
       style="fill:#e67e22"
       inkscape:connector-curvature="0"
       id="path4"
       d="m 22,1038.2 c 0,0.2 -0.104,0.4 -0.312,0.6 l -4.363,4.2 1.033,6.1 c 0.008,0 0.012,0.1 0.012,0.2 0,0.2 -0.044,0.3 -0.132,0.4 -0.08,0.1 -0.2,0.2 -0.361,0.2 -0.152,0 -0.312,0 -0.48,-0.1 l -5.397,-2.9 -5.3966,2.9 c -0.1763,0.1 -0.3366,0.1 -0.4808,0.1 -0.1683,0 -0.2965,-0.1 -0.3846,-0.2 -0.0802,-0.1 -0.1202,-0.2 -0.1202,-0.4 0,0 0.008,-0.1 0.024,-0.2 l 1.0337,-6.1 -4.375,-4.2 C 2.1002,1038.6 2,1038.4 2,1038.2 c 0,-0.3 0.2244,-0.5 0.6731,-0.5 l 6.0336,-0.9 2.7043,-5.5 c 0.152,-0.3 0.349,-0.5 0.589,-0.5 0.24,0 0.437,0.2 0.589,0.5 l 2.704,5.5 6.034,0.9 c 0.449,0 0.673,0.2 0.673,0.5" />
  </g>
  <g
     style="fill:#f1c40f"
     id="g10"
     transform="translate(-2,-1029.8)">
    <path
       style="fill:#f1c40f"
       inkscape:connector-curvature="0"
       id="path8"
       d="m 22,1037.2 c 0,0.2 -0.104,0.4 -0.312,0.6 l -4.363,4.2 1.033,6.1 c 0.008,0 0.012,0.1 0.012,0.2 0,0.2 -0.044,0.3 -0.132,0.4 -0.08,0.1 -0.2,0.2 -0.361,0.2 -0.152,0 -0.312,0 -0.48,-0.1 l -5.397,-2.9 -5.3966,2.9 c -0.1763,0.1 -0.3366,0.1 -0.4808,0.1 -0.1683,0 -0.2965,-0.1 -0.3846,-0.2 -0.0802,-0.1 -0.1202,-0.2 -0.1202,-0.4 0,0 0.008,-0.1 0.024,-0.2 l 1.0337,-6.1 -4.375,-4.2 C 2.1002,1037.6 2,1037.4 2,1037.2 c 0,-0.3 0.2244,-0.5 0.6731,-0.5 l 6.0336,-0.9 2.7043,-5.5 c 0.152,-0.3 0.349,-0.5 0.589,-0.5 0.24,0 0.437,0.2 0.589,0.5 l 2.704,5.5 6.034,0.9 c 0.449,0 0.673,0.2 0.673,0.5" />
  </g>
</svg>
