<?xml version="1.0" encoding="UTF-8" standalone="no"?>
<svg
   xmlns:dc="http://purl.org/dc/elements/1.1/"
   xmlns:cc="http://creativecommons.org/ns#"
   xmlns:rdf="http://www.w3.org/1999/02/22-rdf-syntax-ns#"
   xmlns:svg="http://www.w3.org/2000/svg"
   xmlns="http://www.w3.org/2000/svg"
   xmlns:sodipodi="http://sodipodi.sourceforge.net/DTD/sodipodi-0.dtd"
   xmlns:inkscape="http://www.inkscape.org/namespaces/inkscape"
   enable-background="new 0 0 96 96"
   height="96"
   id="file"
   version="1.1"
   viewBox="0 0 80 96"
   width="80"
   xml:space="preserve"
   sodipodi:docname="icon-xls.svg"
   inkscape:version="0.92.4 (5da689c313, 2019-01-14)"><metadata
     id="metadata9"><rdf:RDF><cc:Work
         rdf:about=""><dc:format>image/svg+xml</dc:format><dc:type
           rdf:resource="http://purl.org/dc/dcmitype/StillImage" /><dc:title></dc:title></cc:Work></rdf:RDF></metadata><defs
     id="defs7" /><sodipodi:namedview
     pagecolor="#ffffff"
     bordercolor="#666666"
     borderopacity="1"
     objecttolerance="10"
     gridtolerance="10"
     guidetolerance="10"
     inkscape:pageopacity="0"
     inkscape:pageshadow="2"
     inkscape:window-width="2560"
     inkscape:window-height="1377"
     id="namedview5"
     showgrid="false"
     inkscape:zoom="2.4583333"
     inkscape:cx="48"
     inkscape:cy="48"
     inkscape:window-x="-8"
     inkscape:window-y="-8"
     inkscape:window-maximized="1"
     inkscape:current-layer="file" /><path
     d="M 52,0 H 12 C 5.373,0 0,5.373 0,12 v 72 c 0,6.627 5.373,12 12,12 H 67.875 C 74.502,96 80,90.627 80,84 V 28 C 76,24 58,6 52,0 Z M 52,11.178 68.709,28 H 52 Z M 67.875,88 H 12 C 9.794,88 8,86.206 8,84 V 12 C 8,9.794 9.794,8 12,8 h 32 v 20 8 h 8 20 v 48 c 0,2.168 -1.889,4 -4.125,4 z"
     id="path2"
     style="fill:#202727;fill-opacity:1"
     inkscape:connector-curvature="0" /></svg>