<?xml version="1.0" encoding="UTF-8" standalone="no"?>
<svg
   xmlns:dc="http://purl.org/dc/elements/1.1/"
   xmlns:cc="http://creativecommons.org/ns#"
   xmlns:rdf="http://www.w3.org/1999/02/22-rdf-syntax-ns#"
   xmlns:svg="http://www.w3.org/2000/svg"
   xmlns="http://www.w3.org/2000/svg"
   xmlns:sodipodi="http://sodipodi.sourceforge.net/DTD/sodipodi-0.dtd"
   xmlns:inkscape="http://www.inkscape.org/namespaces/inkscape"
   enable-background="new 0 0 128 128"
   height="100"
   id="Layer_1"
   version="1.1"
   viewBox="0 0 100 100"
   width="100"
   xml:space="preserve"
   sodipodi:docname="icon-game-white.svg"
   inkscape:version="0.92.4 (5da689c313, 2019-01-14)"><metadata
     id="metadata29"><rdf:RDF><cc:Work
         rdf:about=""><dc:format>image/svg+xml</dc:format><dc:type
           rdf:resource="http://purl.org/dc/dcmitype/StillImage" /><dc:title></dc:title></cc:Work></rdf:RDF></metadata><defs
     id="defs27" /><sodipodi:namedview
     pagecolor="#ffffff"
     bordercolor="#666666"
     borderopacity="1"
     objecttolerance="10"
     gridtolerance="10"
     guidetolerance="10"
     inkscape:pageopacity="0"
     inkscape:pageshadow="2"
     inkscape:window-width="2560"
     inkscape:window-height="1377"
     id="namedview25"
     showgrid="false"
     inkscape:zoom="1.84375"
     inkscape:cx="58.847458"
     inkscape:cy="64"
     inkscape:window-x="-8"
     inkscape:window-y="-8"
     inkscape:window-maximized="1"
     inkscape:current-layer="Layer_1" /><path
     d="M 88.399,100 H 78.437 C 72.576,100 69.214,93.39 66.249,87.558 64.104,83.341 61.674,78.562 59.236,78.562 H 40.759 c -2.799,0 -5.235,4.803 -7.591,9.449 C 30.178,93.905 27.087,100 21.56,100 H 11.6 C 5.204,100 0,94.798 0,88.401 V 45.458 c 0,-6.396 5.203,-11.6 11.6,-11.6 h 76.8 c 6.396,0 11.6,5.204 11.6,11.6 V 88.401 C 99.999,94.797 94.796,100 88.399,100 Z M 40.759,74.561 h 18.479 c 4.892,0 7.653,5.433 10.578,11.184 C 72.379,90.786 75.03,96 78.438,96 H 88.4 C 92.59,96 96,92.591 96,88.401 V 45.458 c 0,-4.19 -3.409,-7.6 -7.6,-7.6 H 11.6 c -4.19,0 -7.6,3.41 -7.6,7.6 V 88.401 C 4,92.59 7.409,96 11.6,96 h 9.96 c 3.071,0 5.598,-4.981 8.04,-9.798 2.902,-5.723 5.903,-11.641 11.159,-11.641 z"
     id="path2"
     inkscape:connector-curvature="0"
     style="fill:#ffffff;fill-opacity:1" /><g
     id="g20"
     transform="translate(-13.218,-14.019)"
     style="fill:#ffffff;fill-opacity:1"><path
       d="m 37.116,84.066 c -6.341,0 -11.5,-5.16 -11.5,-11.5 0,-6.342 5.159,-11.5 11.5,-11.5 6.341,0 11.5,5.159 11.5,11.5 0,6.34 -5.159,11.5 -11.5,11.5 z m 0,-19 c -4.136,0 -7.5,3.364 -7.5,7.5 0,4.135 3.364,7.5 7.5,7.5 4.136,0 7.5,-3.365 7.5,-7.5 0,-4.135 -3.364,-7.5 -7.5,-7.5 z"
       id="path4"
       inkscape:connector-curvature="0"
       style="fill:#ffffff;fill-opacity:1" /><g
       id="g18"
       style="fill:#ffffff;fill-opacity:1"><g
         id="g10"
         style="fill:#ffffff;fill-opacity:1"><path
           d="m 89.741,70.168 c -1.104,0 -2,-0.896 -2,-2 v -4.602 c 0,-1.104 0.896,-2 2,-2 1.104,0 2,0.896 2,2 v 4.602 c 0,1.103 -0.895,2 -2,2 z"
           id="path6"
           inkscape:connector-curvature="0"
           style="fill:#ffffff;fill-opacity:1" /><path
           d="m 89.741,83.566 c -1.104,0 -2,-0.896 -2,-2 v -4.602 c 0,-1.105 0.896,-2 2,-2 1.104,0 2,0.895 2,2 v 4.602 c 0,1.104 -0.895,2 -2,2 z"
           id="path8"
           inkscape:connector-curvature="0"
           style="fill:#ffffff;fill-opacity:1" /></g><g
         id="g16"
         style="fill:#ffffff;fill-opacity:1"><path
           d="m 85.62,74.566 h -4.602 c -1.104,0 -2,-0.896 -2,-2 0,-1.104 0.896,-2 2,-2 h 4.602 c 1.104,0 2,0.896 2,2 0,1.104 -0.895,2 -2,2 z"
           id="path12"
           inkscape:connector-curvature="0"
           style="fill:#ffffff;fill-opacity:1" /><path
           d="m 98.466,74.566 h -4.602 c -1.104,0 -2,-0.896 -2,-2 0,-1.104 0.896,-2 2,-2 h 4.602 c 1.104,0 2,0.896 2,2 0,1.104 -0.896,2 -2,2 z"
           id="path14"
           inkscape:connector-curvature="0"
           style="fill:#ffffff;fill-opacity:1" /></g></g></g><path
     d="m 49.824,37.858 c -1.104,0 -2,-0.896 -2,-2 V 2 c 0,-1.104 0.896,-2 2,-2 1.104,0 2,0.896 2,2 v 33.858 c 0,1.104 -0.896,2 -2,2 z"
     id="path22"
     inkscape:connector-curvature="0"
     style="fill:#ffffff;fill-opacity:1" /></svg>