<?xml version="1.0" encoding="UTF-8" standalone="no"?>
<!-- Created with Inkscape (http://www.inkscape.org/) -->

<svg
   xmlns:dc="http://purl.org/dc/elements/1.1/"
   xmlns:cc="http://creativecommons.org/ns#"
   xmlns:rdf="http://www.w3.org/1999/02/22-rdf-syntax-ns#"
   xmlns:svg="http://www.w3.org/2000/svg"
   xmlns="http://www.w3.org/2000/svg"
   xmlns:sodipodi="http://sodipodi.sourceforge.net/DTD/sodipodi-0.dtd"
   xmlns:inkscape="http://www.inkscape.org/namespaces/inkscape"
   width="330.729mm"
   height="153.011mm"
   viewBox="0 0 330.729 153.011"
   version="1.1"
   id="svg8"
   inkscape:version="0.92.4 (5da689c313, 2019-01-14)"
   sodipodi:docname="mining-live.svg">
  <defs
     id="defs2" />
  <sodipodi:namedview
     id="base"
     pagecolor="#ffffff"
     bordercolor="#666666"
     borderopacity="1.0"
     inkscape:pageopacity="0.0"
     inkscape:pageshadow="2"
     inkscape:zoom="1.08"
     inkscape:cx="913.23619"
     inkscape:cy="392.71079"
     inkscape:document-units="mm"
     inkscape:current-layer="layer1"
     showgrid="false"
     inkscape:window-width="2560"
     inkscape:window-height="1377"
     inkscape:window-x="-8"
     inkscape:window-y="-8"
     inkscape:window-maximized="1" />
  <metadata
     id="metadata5">
    <rdf:RDF>
      <cc:Work
         rdf:about="">
        <dc:format>image/svg+xml</dc:format>
        <dc:type
           rdf:resource="http://purl.org/dc/dcmitype/StillImage" />
        <dc:title></dc:title>
      </cc:Work>
    </rdf:RDF>
  </metadata>
  <g
     inkscape:label="Layer 1"
     inkscape:groupmode="layer"
     id="layer1"
     transform="translate(0,-143.989)">
    <path
       style="fill:#25293d;fill-opacity:1;stroke:none;stroke-width:0.26458332px;stroke-linecap:butt;stroke-linejoin:miter;stroke-opacity:1"
       d="m 0,297 h 330.72917 l -43.74161,-22.40424 -5.33437,-24.96471 -26.88507,-1.49362 -20.05711,-35.42003 -48.86257,10.45531 -46.72883,-34.35316 -54.83702,65.29234 -49.50269,-9.38844 z"
       id="path826-7"
       inkscape:connector-curvature="0" />
    <path
       style="fill:#2d324b;fill-opacity:1;stroke:none;stroke-width:0.26458332px;stroke-linecap:butt;stroke-linejoin:miter;stroke-opacity:1"
       d="m 139.11975,188.81977 -54.83696,65.29214 60.171,-4.48086 z m 95.59106,23.89777 7.46828,45.44839 L 254.768,248.1376 Z M 34.77987,244.72334 8e-5,297.00024 l 32.55977,-0.006 z"
       id="path828-9"
       inkscape:connector-curvature="0" />
    <path
       style="fill:#1f2335;fill-opacity:1;stroke:none;stroke-width:0.26458332px;stroke-linecap:butt;stroke-linejoin:miter;stroke-opacity:1"
       d="m 201.21135,259.23286 33.49966,-46.51546 -48.86257,10.45531 z"
       id="path834-6"
       inkscape:connector-curvature="0"
       sodipodi:nodetypes="cccc" />
    <ellipse
       style="fill:#b3282a;fill-opacity:1;stroke:none;stroke-width:0.29468828"
       id="path842-6"
       cx="18.850729"
       cy="213.19632"
       rx="8.9351082"
       ry="9.6970158"
       transform="rotate(-15.839224)" />
    <circle
       style="fill:#b3282a;fill-opacity:1;stroke:none;stroke-width:0.26458332"
       id="path859-1"
       cx="155.27083"
       cy="158.35651"
       r="12.310474" />
    <ellipse
       style="fill:#b3282a;fill-opacity:1;stroke:none;stroke-width:0.28354177"
       id="path876-9"
       cx="188.55725"
       cy="249.12549"
       rx="8.696764"
       ry="11.640638"
       transform="matrix(0.97225222,-0.23393506,0.30114475,0.95357844,0,0)" />
    <path
       inkscape:connector-curvature="0"
       style="fill:#de3d3d;fill-opacity:1;stroke:none;stroke-width:0.26458332px;stroke-linecap:butt;stroke-linejoin:miter;stroke-opacity:1"
       d="m 153.24956,144.39259 a 12.310474,12.310474 0 0 0 -12.31036,12.31036 12.310474,12.310474 0 0 0 12.31036,12.31036 12.310474,12.310474 0 0 0 12.31088,-12.31036 12.310474,12.310474 0 0 0 -12.31088,-12.31036 z M 254.12558,182.613 a 11.675836,8.6494525 67.550119 0 0 -1.74977,0.18293 11.675836,8.6494525 67.550119 0 0 -4.95009,13.1346 11.675836,8.6494525 67.550119 0 0 11.96103,9.06559 11.675836,8.6494525 67.550119 0 0 4.95009,-13.13459 11.675836,8.6494525 67.550119 0 0 -10.21126,-9.24853 z m -179.99419,8.79946 a 9.6970157,8.9351083 74.160776 0 0 -2.658235,0.30386 9.6970157,8.9351083 74.160776 0 0 -5.949508,11.76775 9.6970157,8.9351083 74.160776 0 0 11.242723,6.89002 9.6970157,8.9351083 74.160776 0 0 5.948992,-11.76776 9.6970157,8.9351083 74.160776 0 0 -8.583972,-7.19387 z m 98.34956,13.92008 -1.8371,16.291 8.57415,-14.08648 z m -76.557608,18.98592 -2.694924,3.30729 12.984222,7.71736 z m 161.689878,9.67693 -8.4522,10.65671 11.88196,-5.38933 z"
       id="path836-0-6" />
  </g>
</svg>
