<?xml version="1.0" encoding="UTF-8" standalone="no"?>
<!-- Created with Inkscape (http://www.inkscape.org/) -->

<svg
   xmlns:dc="http://purl.org/dc/elements/1.1/"
   xmlns:cc="http://creativecommons.org/ns#"
   xmlns:rdf="http://www.w3.org/1999/02/22-rdf-syntax-ns#"
   xmlns:svg="http://www.w3.org/2000/svg"
   xmlns="http://www.w3.org/2000/svg"
   xmlns:sodipodi="http://sodipodi.sourceforge.net/DTD/sodipodi-0.dtd"
   xmlns:inkscape="http://www.inkscape.org/namespaces/inkscape"
   width="85.474998mm"
   height="85.474998mm"
   viewBox="0 0 85.475 85.474996"
   version="1.1"
   id="svg826"
   inkscape:version="0.92.4 (5da689c313, 2019-01-14)"
   sodipodi:docname="slatter.svg">
  <defs
     id="defs820" />
  <sodipodi:namedview
     id="base"
     pagecolor="#ffffff"
     bordercolor="#666666"
     borderopacity="1.0"
     inkscape:pageopacity="0.0"
     inkscape:pageshadow="2"
     inkscape:zoom="3.47"
     inkscape:cx="311.06166"
     inkscape:cy="172.52403"
     inkscape:document-units="mm"
     inkscape:current-layer="layer1"
     showgrid="false"
     inkscape:window-width="2560"
     inkscape:window-height="1377"
     inkscape:window-x="-8"
     inkscape:window-y="-8"
     inkscape:window-maximized="1" />
  <metadata
     id="metadata823">
    <rdf:RDF>
      <cc:Work
         rdf:about="">
        <dc:format>image/svg+xml</dc:format>
        <dc:type
           rdf:resource="http://purl.org/dc/dcmitype/StillImage" />
        <dc:title></dc:title>
      </cc:Work>
    </rdf:RDF>
  </metadata>
  <g
     inkscape:label="Layer 1"
     inkscape:groupmode="layer"
     id="layer1"
     transform="translate(0,-211.525)">
    <ellipse
       style="fill:#00a8ff;fill-opacity:1;stroke:none;stroke-width:0.57816356"
       id="path2312"
       cx="42.737499"
       cy="254.26254"
       rx="42.737499"
       ry="42.737453" />
    <path
       style="fill:#ffffff;stroke:none;stroke-width:0.26458332px;stroke-linecap:butt;stroke-linejoin:miter;stroke-opacity:1"
       d="m 36.354361,273.2635 c 0,0 -0.28759,-0.46014 -0.57518,-0.0288 -0.2876,0.43139 -0.97781,1.29416 -1.20789,1.92686 -0.23007,0.6327 -0.17255,1.23664 0.43139,1.72554 0.60394,0.48891 2.50204,2.12817 5.72305,1.92686 3.22102,-0.20131 6.47079,-1.49547 7.9375,-4.2851 1.46671,-2.78963 2.32949,-8.36888 -1.46671,-11.67618 -3.79619,-3.30729 -5.29167,-4.17006 -5.29167,-4.17006 0,0 -8.05253,-4.88904 -8.22509,-9.8356 -0.17255,-4.94656 1.92686,-8.34012 3.93999,-10.35326 2.01314,-2.01313 5.75182,-5.20539 10.09444,-5.20539 4.34261,0 4.28509,4.08379 4.28509,4.08379 0,0 0.37387,3.91123 -3.79619,7.85122 -4.17007,3.93999 -6.24072,3.53737 -6.24072,3.53737 0,0 -1.46671,-0.23008 -1.26539,0.28758 0.20131,0.51767 0.4889,1.43796 1.29415,1.98438 0.80526,0.54642 2.01314,0.94905 3.96875,0.0575 1.95562,-0.89153 4.65897,-3.24977 5.4067,-4.02627 0.74774,-0.77649 4.11255,-4.63021 4.11255,-9.00158 0,-4.37138 -2.04189,-6.12568 -2.04189,-6.12568 0,0 -3.10598,-3.68116 -9.2029,-1.61051 -6.09692,2.07065 -8.51268,5.06159 -8.51268,5.06159 0,0 -5.86685,5.40671 -5.72306,12.2226 0.1438,6.8159 4.86029,10.20947 4.86029,10.20947 l 6.58582,4.74524 c 0,0 2.58831,1.72555 3.36481,3.0197 0.77649,1.29416 1.69678,2.35825 1.46671,4.57269 -0.23007,2.21445 -1.98437,4.83153 -4.40013,5.00408 -2.41577,0.17255 -3.36481,0.0575 -5.52174,-1.8981 z"
       id="path2308-1"
       inkscape:connector-curvature="0" />
  </g>
</svg>
