<?xml version="1.0" encoding="UTF-8" standalone="no"?>
<svg
   xmlns:dc="http://purl.org/dc/elements/1.1/"
   xmlns:cc="http://creativecommons.org/ns#"
   xmlns:rdf="http://www.w3.org/1999/02/22-rdf-syntax-ns#"
   xmlns:svg="http://www.w3.org/2000/svg"
   xmlns="http://www.w3.org/2000/svg"
   xmlns:sodipodi="http://sodipodi.sourceforge.net/DTD/sodipodi-0.dtd"
   xmlns:inkscape="http://www.inkscape.org/namespaces/inkscape"
   version="1.1"
   width="526.12439"
   height="100.1254"
   id="svg34"
   viewBox="0 0 526.12439 100.1254"
   sodipodi:docname="tb-logo.svg"
   inkscape:version="0.92.1 r15371">
  <metadata
     id="metadata40">
    <rdf:RDF>
      <cc:Work
         rdf:about="">
        <dc:format>image/svg+xml</dc:format>
        <dc:type
           rdf:resource="http://purl.org/dc/dcmitype/StillImage" />
        <dc:title></dc:title>
      </cc:Work>
    </rdf:RDF>
  </metadata>
  <defs
     id="defs38" />
  <sodipodi:namedview
     pagecolor="#ffffff"
     bordercolor="#666666"
     borderopacity="1"
     objecttolerance="10"
     gridtolerance="10"
     guidetolerance="10"
     inkscape:pageopacity="0"
     inkscape:pageshadow="2"
     inkscape:window-width="2560"
     inkscape:window-height="1377"
     id="namedview36"
     showgrid="false"
     inkscape:zoom="0.5397963"
     inkscape:cx="263.06219"
     inkscape:cy="50.062698"
     inkscape:window-x="-8"
     inkscape:window-y="-8"
     inkscape:window-maximized="1"
     inkscape:current-layer="svg34" />
  <path
     d="m 514.7524,56.2734 v 22.2959 c 0,2.0132 0.3722,3.4169 1.0825,4.2123 0.7277,0.7948 2.1654,1.184 4.3135,1.184 1.658,0 3.0453,-0.1015 4.1618,-0.3047 v 11.9599 c -2.9942,0.9644 -6.1407,1.438 -9.4056,1.438 -5.7518,0 -9.9975,-1.3529 -12.7383,-4.0597 -2.7403,-2.7239 -4.1106,-6.8341 -4.1106,-12.3492 V 56.2734 Z"
     style="fill:#ffffff;fill-rule:evenodd"
     id="path2"
     inkscape:connector-curvature="0" />
  <path
     d="m 514.7524,29.156 v 13.2965 h 8.8135 v 11.571 h -8.8135 -16.6967 -6.851 v -11.571 h 6.851 V 29.156 Z"
     style="fill:#ffffff;fill-rule:evenodd"
     id="path4"
     inkscape:connector-curvature="0" />
  <path
     d="m 465.5619,74.526 h -4.5003 V 64.0718 h 4.5003 z"
     style="fill:#ffffff;fill-rule:evenodd"
     id="path6"
     inkscape:connector-curvature="0" />
  <path
     d="m 461.0616,41.5774 c 1.0191,-0.0935 2.0673,-0.14 3.1442,-0.14 7.5277,0 13.4825,2.3343 17.847,7.0206 4.3645,4.6859 6.5466,11.1985 6.5466,19.5724 V 74.526 H 467.8118 V 64.0718 h 4.4294 V 62.786 c 0.0675,-2.6895 -0.6092,-4.7704 -2.0302,-6.2422 -1.421,-1.4717 -3.4679,-2.2158 -6.1067,-2.2158 -1.1179,0 -2.1319,0.1703 -3.0427,0.5099 z"
     style="fill:#ffffff;fill-rule:evenodd"
     id="path8"
     inkscape:connector-curvature="0" />
  <path
     d="m 458.8118,96.355 c -5.0137,-1.0477 -9.2741,-3.2658 -12.7914,-6.6546 -5.0918,-4.9062 -7.6294,-11.3001 -7.6294,-19.1665 v -1.387 c 0,-5.481 1.0151,-10.3195 3.0453,-14.5145 2.0298,-4.2123 4.9901,-7.4602 8.8976,-9.7441 2.5175,-1.4885 5.3464,-2.495 8.4779,-3.0206 v 14.3377 c -1.7663,1.5995 -2.9069,4.2216 -3.4195,7.8664 h 3.4195 V 74.526 h -3.4195 c 0.5426,2.745 1.6824,4.964 3.4195,6.6308 z"
     style="fill:#ffffff;fill-rule:evenodd"
     id="path10"
     inkscape:connector-curvature="0" />
  <path
     d="m 465.9987,97.0588 c -1.7146,0 -3.3601,-0.1065 -4.9371,-0.3191 V 82.7963 c 1.7034,0.9125 3.725,1.3723 6.0707,1.3723 5.2778,0 9.4224,-1.844 12.3829,-5.5316 l 7.6462,9.0165 c -2.0807,2.8587 -5.0412,5.1596 -8.8473,6.8513 -3.823,1.7082 -7.9338,2.554 -12.3154,2.554 z"
     style="fill:#ffffff;fill-rule:evenodd"
     id="path12"
     inkscape:connector-curvature="0" />
  <path
     d="M 383.0236,67.809 V 19.9196 h 16.7133 v 26.8129 c 3.096,-3.5356 7.1051,-5.2951 12.0277,-5.2951 6.6821,0 11.8414,2.4021 15.4616,7.1898 3.4891,4.5927 5.3124,10.9916 5.4547,19.1818 h -16.7607 c -0.0686,-4.718 -0.7441,-8.1173 -2.041,-10.1826 -1.3702,-2.1992 -3.4846,-3.2984 -6.3266,-3.2984 -3.7556,0 -6.3777,1.4377 -7.8157,4.3137 v 9.1673 z m 49.6652,2.2498 c -0.0507,8.6162 -1.8768,15.2592 -5.4626,19.912 -3.6202,4.7197 -8.7458,7.088 -15.3601,7.088 -5.4471,0 -9.8453,-2.1651 -13.178,-6.5126 l -0.6934,5.4978 H 383.0236 V 70.0588 h 16.7133 v 9.847 c 1.4043,2.8418 4.0601,4.2628 7.9169,4.2628 3.9419,0 6.4284,-1.9117 7.4942,-5.7345 0.4686,-1.6932 0.7212,-4.4813 0.7696,-8.3753 z"
     style="fill:#19ef39;fill-rule:evenodd"
     id="path14"
     inkscape:connector-curvature="0" />
  <path
     d="M 312.3972,59.586 V 23.8782 h 17.39 l 6.6382,11.6796 z"
     style="fill:#ffffff;fill-rule:evenodd"
     id="path16"
     inkscape:connector-curvature="0" />
  <path
     d="M 372.6539,96.044 H 355.3651 L 329.7872,51.1305 V 96.044 h -17.39 V 62.7676 l 25.1813,-25.1813 17.7358,31.2052 V 23.8782 h 17.3396 z"
     style="fill:#ffffff;fill-rule:evenodd"
     id="path18"
     inkscape:connector-curvature="0" />
  <path
     d="m 240.4111,54.4963 c 0.4037,-5.4382 1.6461,-10.3382 3.7452,-14.6999 2.588,-5.396 6.3096,-9.5745 11.1478,-12.518 4.8381,-2.9435 10.3529,-4.4153 16.5274,-4.4153 6.1069,0 11.571,1.455 16.3584,4.3645 4.7875,2.9095 8.5091,7.0543 11.1816,12.4166 2.1832,4.4218 3.4744,9.3694 3.8837,14.8521 h -17.6808 c -0.3651,-5.2883 -1.5117,-9.4351 -3.4577,-12.4497 -2.4021,-3.7216 -5.8193,-5.5826 -10.2852,-5.5826 -8.3603,0 -12.9334,6.0066 -13.7359,18.0323 z"
     style="fill:#ffffff;fill-rule:evenodd"
     id="path20"
     inkscape:connector-curvature="0" />
  <path
     d="m 303.3975,61.4497 c 0,7.0373 -1.3022,13.2795 -3.9075,18.6928 -2.6051,5.4301 -6.327,9.6083 -11.1311,12.5351 -4.8042,2.9265 -10.2853,4.3812 -16.426,4.3812 -6.1406,0 -11.6044,-1.4207 -16.3581,-4.2457 -4.7537,-2.8253 -8.4583,-6.8683 -11.1308,-12.1292 -2.6564,-5.2443 -4.0434,-11.2836 -4.1789,-18.1009 v -4.06 c 0,-0.5981 0.009,-1.1906 0.0278,-1.7768 h 17.712 l -0.0451,4.6865 c 0,7.0713 1.1676,12.5181 3.5187,16.3247 2.3346,3.8061 5.8195,5.7008 10.4544,5.7008 4.3986,0 7.7817,-1.8779 10.1501,-5.6166 2.3853,-3.7386 3.5864,-9.1009 3.6198,-16.1212 v -3.3156 c 0,-0.5636 -0.008,-1.1163 -0.0221,-1.6586 h 17.6922 c 0.0138,0.4589 0.0223,0.9215 0.0246,1.3878 z"
     style="fill:#ffffff;fill-rule:evenodd"
     id="path22"
     inkscape:connector-curvature="0" />
  <path
     d="m 205.3111,23.8844 c 8.1652,0.1185 14.5741,2.0115 19.2558,5.6948 4.8214,3.8058 7.2232,9.1684 7.2232,16.1045 0,5.0239 -1.0151,9.1857 -3.0447,12.5011 -2.0302,3.2989 -5.2103,5.9717 -9.5411,8.0183 l 15.0726,29.0966 v 0.7443 h -18.642 L 205.3111,75.3962 V 57.151 c 2.8916,-0.1344 5.1041,-0.9921 6.6359,-2.5861 1.675,-1.7427 2.5036,-4.1788 2.5036,-7.2909 0,-3.1131 -0.8456,-5.5656 -2.5376,-7.3421 -1.5307,-1.6236 -3.74,-2.4981 -6.6019,-2.6362 z"
     style="fill:#ffffff;fill-rule:evenodd"
     id="path24"
     inkscape:connector-curvature="0" />
  <path
     d="m 202.8969,70.5677 h -9.4057 V 96.044 h -17.407 V 23.8782 h 26.9771 v 13.398 h -9.5701 V 57.17 h 9.5701 v 13.7265 z"
     style="fill:#ffffff;fill-rule:evenodd"
     id="path26"
     inkscape:connector-curvature="0" />
  <path
     d="M 147.1232,44.8654 V 96.044 H 129.7159 V 37.2762 h -21.2638 v -13.398 h 17.684 z"
     style="fill:#ffffff;fill-rule:evenodd"
     id="path28"
     inkscape:connector-curvature="0" />
  <path
     d="m 168.7762,37.2762 h -21.653 v 4.4073 L 129.3177,23.8782 h 39.4585 z"
     style="fill:#ffffff;fill-rule:evenodd"
     id="path30"
     inkscape:connector-curvature="0" />
  <path
     d="m 85.36,48.9001 c 1.4882,0.6323 2.5355,2.1076 2.5355,3.826 0,1.6341 -0.9436,3.0478 -2.3183,3.7254 L 85.5415,56.471 H 85.5383 L 9.7554,97.2951 c -0.6906,0.5123 -1.5433,0.8171 -2.4706,0.8171 -2.2924,0 -4.1535,-1.8611 -4.1535,-4.1535 L 3.1411,93.7058 3.1378,93.7026 6.5423,4.9277 6.5358,4.717 c 0,-0.1848 0.013,-0.3664 0.0356,-0.548 V 4.1593 C 6.847,2.1328 8.5849,0.5635 10.6892,0.5635 c 1.0505,0 2.0102,0.3924 2.743,1.0376 h 0.0033 z m -51.8708,-7.8269 -0.201,8.3781 7.6422,-4.1534 z m -8.0409,-4.4226 -1.6115,36.862 -13.3357,7.1721 5.8978,4.0885 54.0885,-30.293 V 48.8483 L 27.1213,71.7034 28.5966,38.5279 Z m -12.2658,36.0579 5.8298,-3.4855 1.7443,-43.2299 29.69,19.2367 -18.0306,9.6524 -0.1329,7.104 31.2333,-16.4873 -46.1804,-30.2963 -6.6338,4.1567 4.5587,2.8824 z"
     style="fill:#19ef39;fill-rule:evenodd"
     id="path32"
     inkscape:connector-curvature="0" />
</svg>
