<?xml version="1.0" encoding="UTF-8" standalone="no"?>
<svg
   xmlns:dc="http://purl.org/dc/elements/1.1/"
   xmlns:cc="http://creativecommons.org/ns#"
   xmlns:rdf="http://www.w3.org/1999/02/22-rdf-syntax-ns#"
   xmlns:svg="http://www.w3.org/2000/svg"
   xmlns="http://www.w3.org/2000/svg"
   xmlns:sodipodi="http://sodipodi.sourceforge.net/DTD/sodipodi-0.dtd"
   xmlns:inkscape="http://www.inkscape.org/namespaces/inkscape"
   viewBox="0 0 25.993999 23.348"
   version="1.1"
   width="25.993999"
   height="23.348"
   id="svg5"
   sodipodi:docname="telegram.svg"
   inkscape:version="0.92.4 (5da689c313, 2019-01-14)">
  <metadata
     id="metadata11">
    <rdf:RDF>
      <cc:Work
         rdf:about="">
        <dc:format>image/svg+xml</dc:format>
        <dc:type
           rdf:resource="http://purl.org/dc/dcmitype/StillImage" />
        <dc:title></dc:title>
      </cc:Work>
    </rdf:RDF>
  </metadata>
  <defs
     id="defs9" />
  <sodipodi:namedview
     pagecolor="#ffffff"
     bordercolor="#666666"
     borderopacity="1"
     objecttolerance="10"
     gridtolerance="10"
     guidetolerance="10"
     inkscape:pageopacity="0"
     inkscape:pageshadow="2"
     inkscape:window-width="2560"
     inkscape:window-height="1377"
     id="namedview7"
     showgrid="false"
     inkscape:zoom="7.375"
     inkscape:cx="16"
     inkscape:cy="16"
     inkscape:window-x="-8"
     inkscape:window-y="-8"
     inkscape:window-maximized="1"
     inkscape:current-layer="svg5" />
  <g
     id="surface1"
     style="fill:#ffffff"
     transform="matrix(1,0,0,0.99998343,-2.0002278,-3.9938534)">
    <path
       style="fill:#ffffff"
       d="M 26.070313,3.996094 C 25.734375,4.011719 25.417969,4.109375 25.136719,4.21875 h -0.0039 C 24.847656,4.332031 23.492188,4.902344 21.433594,5.765625 19.375,6.632813 16.703125,7.757813 14.050781,8.875 8.753906,11.105469 3.546875,13.300781 3.546875,13.300781 l 0.0625,-0.02344 c 0,0 -0.359375,0.117187 -0.734375,0.375 -0.191406,0.125 -0.402344,0.296875 -0.585937,0.566406 -0.183594,0.269531 -0.332032,0.683594 -0.277344,1.109375 0.089844,0.722656 0.558594,1.15625 0.894531,1.394531 0.339844,0.242188 0.664063,0.355469 0.664063,0.355469 h 0.00781 l 4.882813,1.644531 c 0.21875,0.703125 1.488281,4.875 1.792968,5.835938 0.179688,0.574219 0.355469,0.933594 0.574219,1.207031 0.105469,0.140625 0.230469,0.257813 0.378906,0.351563 0.05859,0.03516 0.121094,0.0625 0.183594,0.08594 0.01953,0.01172 0.03906,0.01563 0.0625,0.01953 l -0.05078,-0.01172 c 0.01563,0.0039 0.02734,0.01563 0.03906,0.01953 0.03906,0.01172 0.06641,0.01563 0.117188,0.02344 0.773437,0.234375 1.394531,-0.246093 1.394531,-0.246093 l 0.03516,-0.02734 2.882813,-2.625 4.832031,3.707031 0.109375,0.04687 c 1.007813,0.441406 2.027344,0.195313 2.566406,-0.238281 0.542969,-0.4375 0.753907,-0.996094 0.753907,-0.996094 l 0.03516,-0.08984 3.73437,-19.128908 C 28.007813,6.183594 28.035156,5.742188 27.917969,5.3125 27.800781,4.882813 27.5,4.480469 27.136719,4.265625 26.769531,4.046875 26.40625,3.980469 26.070313,3.996094 Z M 25.96875,6.046875 c -0.0039,0.0625 0.0078,0.054688 -0.01953,0.175781 V 6.234375 L 22.25,25.164063 c -0.01563,0.02734 -0.04297,0.08594 -0.117187,0.144531 -0.07813,0.0625 -0.140625,0.101562 -0.464844,-0.02734 L 15.757813,20.75 12.1875,24.003906 l 0.75,-4.789062 c 0,0 9.257813,-8.628906 9.65625,-9 C 22.992188,9.84375 22.859375,9.765625 22.859375,9.765625 22.886719,9.3125 22.257813,9.632813 22.257813,9.632813 l -12.175782,7.542968 -0.0039,-0.01953 -5.835937,-1.964844 v -0.0039 c -0.00391,0 -0.011719,-0.0039 -0.015625,-0.0039 0.00391,0 0.03125,-0.01172 0.03125,-0.01172 l 0.03125,-0.01563 0.03125,-0.01172 c 0,0 5.210937,-2.195312 10.507812,-4.425781 2.652344,-1.117187 5.324219,-2.242187 7.378906,-3.109375 2.054688,-0.863281 3.574219,-1.496094 3.660157,-1.53125 0.08203,-0.03125 0.04297,-0.03125 0.101562,-0.03125 z"
       id="path2"
       inkscape:connector-curvature="0" />
  </g>
</svg>
