<?xml version="1.0" encoding="UTF-8" standalone="no"?>
<!-- Created with Inkscape (http://www.inkscape.org/) -->

<svg
   xmlns:dc="http://purl.org/dc/elements/1.1/"
   xmlns:cc="http://creativecommons.org/ns#"
   xmlns:rdf="http://www.w3.org/1999/02/22-rdf-syntax-ns#"
   xmlns:svg="http://www.w3.org/2000/svg"
   xmlns="http://www.w3.org/2000/svg"
   xmlns:xlink="http://www.w3.org/1999/xlink"
   xmlns:sodipodi="http://sodipodi.sourceforge.net/DTD/sodipodi-0.dtd"
   xmlns:inkscape="http://www.inkscape.org/namespaces/inkscape"
   version="1.1"
   id="svg2"
   width="573.72998"
   height="584.32599"
   viewBox="0 0 573.72998 584.32599"
   sodipodi:docname="tronwallet.svg"
   inkscape:version="0.92.4 (5da689c313, 2019-01-14)">
  <metadata
     id="metadata8">
    <rdf:RDF>
      <cc:Work
         rdf:about="">
        <dc:format>image/svg+xml</dc:format>
        <dc:type
           rdf:resource="http://purl.org/dc/dcmitype/StillImage" />
        <dc:title></dc:title>
      </cc:Work>
    </rdf:RDF>
  </metadata>
  <defs
     id="defs6">
    <linearGradient
       inkscape:collect="always"
       id="linearGradient1067">
      <stop
         style="stop-color:#e84784;stop-opacity:1"
         offset="0"
         id="stop1063" />
      <stop
         id="stop1071"
         offset="0.49136764"
         style="stop-color:#8c46ec;stop-opacity:1" />
      <stop
         style="stop-color:#8746f1;stop-opacity:0"
         offset="1"
         id="stop1065" />
    </linearGradient>
    <linearGradient
       inkscape:collect="always"
       id="linearGradient1059">
      <stop
         style="stop-color:#f0487c;stop-opacity:1"
         offset="0"
         id="stop1055" />
      <stop
         style="stop-color:#8846f2;stop-opacity:1"
         offset="1"
         id="stop1057" />
    </linearGradient>
    <linearGradient
       inkscape:collect="always"
       xlink:href="#linearGradient1059"
       id="linearGradient1061"
       x1="6.0533867"
       y1="424.73349"
       x2="578.48047"
       y2="419.18463"
       gradientUnits="userSpaceOnUse"
       gradientTransform="translate(-5.6783867,-1.194995)" />
    <linearGradient
       inkscape:collect="always"
       xlink:href="#linearGradient1067"
       id="linearGradient1069"
       x1="5.7912393"
       y1="276.33408"
       x2="266.397"
       y2="274.40366"
       gradientUnits="userSpaceOnUse"
       gradientTransform="translate(-5.6783867,-1.194995)" />
  </defs>
  <sodipodi:namedview
     pagecolor="#ffffff"
     bordercolor="#666666"
     borderopacity="1"
     objecttolerance="10"
     gridtolerance="10"
     guidetolerance="10"
     inkscape:pageopacity="0"
     inkscape:pageshadow="2"
     inkscape:window-width="2560"
     inkscape:window-height="1377"
     id="namedview4"
     showgrid="false"
     inkscape:zoom="1.5540715"
     inkscape:cx="412.25846"
     inkscape:cy="279.79828"
     inkscape:window-x="-8"
     inkscape:window-y="-8"
     inkscape:window-maximized="1"
     inkscape:current-layer="svg2" />
  <path
     style="fill:url(#linearGradient1069);fill-opacity:1;stroke:none;stroke-width:0.88468659"
     d="M 53.32617,70.501399 A 16.65,16.65 0 0 0 36.67578,87.15179 L 0.37500001,423.5385 A 16.65,16.65 0 0 0 0,427.01311 16.65,16.65 0 0 0 16.65039,443.66354 16.65,16.65 0 0 0 33.30078,427.01311 L 259.94531,161.70256 61.60156,72.720149 a 16.65,16.65 0 0 0 -8.27539,-2.21875 z m 38.26953,50.482421 137.63867,63.17773 -63.17968,69.94727 z M 62.82617,137.34124 142.92773,273.851 36.31445,395.69475 Z"
     id="path819-7"
     inkscape:connector-curvature="0" />
  <path
     style="fill:url(#linearGradient1061);fill-opacity:1;stroke:none;stroke-width:0.88468659"
     d="m 387.76172,0.001399 c -4.50009,-0.06599 -8.83522,1.692581 -12.01758,4.875 -0.33474,0.340258 -0.6547,0.694752 -0.95898,1.0625 L 4.8769503,415.23967 c -6.5023722,6.50225 -6.5023722,17.04462 0,23.54687 1.47274,1.47184 3.208479,2.65438 5.11719,3.4863 l 0.043,0.2246 310.47265,139.8321 c 7.96339,4.59773 16.74171,0.74587 22.74414,-6.3747 L 569.59961,324.50139 c 6.50237,-6.50225 4.54638,-18.75611 -0.489,-26.72535 L 401.33589,6.985495 400.12953,5.365203 C 399.35475,4.564936 399.64941,4.933299 399.24785,4.531165 396.18514,1.468397 392.09262,0.064955 387.76172,0.001439 Z M 367,64.222109 336.04687,343.98382 61.8418,400.72991 Z m 31.34961,2.77734 133.73047,235.714831 -162.30274,33.73047 z M 513.42969,340.01506 323.74609,548.34904 69.777342,432.87254 Z"
     id="path819-7-2-9"
     inkscape:connector-curvature="0"
     sodipodi:nodetypes="cccccccccccczccccccccccccccc" />
</svg>
