<?xml version="1.0" encoding="UTF-8" standalone="no"?>
<!-- Created with Inkscape (http://www.inkscape.org/) -->

<svg
   xmlns:dc="http://purl.org/dc/elements/1.1/"
   xmlns:cc="http://creativecommons.org/ns#"
   xmlns:rdf="http://www.w3.org/1999/02/22-rdf-syntax-ns#"
   xmlns:svg="http://www.w3.org/2000/svg"
   xmlns="http://www.w3.org/2000/svg"
   xmlns:sodipodi="http://sodipodi.sourceforge.net/DTD/sodipodi-0.dtd"
   xmlns:inkscape="http://www.inkscape.org/namespaces/inkscape"
   width="124.171mm"
   height="186.828mm"
   viewBox="0 0 124.171 186.82801"
   version="1.1"
   id="svg8"
   inkscape:version="0.92.4 (5da689c313, 2019-01-14)"
   sodipodi:docname="wink-coin-light.svg">
  <defs
     id="defs2" />
  <sodipodi:namedview
     id="base"
     pagecolor="#ffffff"
     bordercolor="#666666"
     borderopacity="1.0"
     inkscape:pageopacity="0.0"
     inkscape:pageshadow="2"
     inkscape:zoom="0.93"
     inkscape:cx="439.32319"
     inkscape:cy="316.54748"
     inkscape:document-units="mm"
     inkscape:current-layer="layer1"
     showgrid="false"
     inkscape:window-width="2560"
     inkscape:window-height="1377"
     inkscape:window-x="-8"
     inkscape:window-y="-8"
     inkscape:window-maximized="1" />
  <metadata
     id="metadata5">
    <rdf:RDF>
      <cc:Work
         rdf:about="">
        <dc:format>image/svg+xml</dc:format>
        <dc:type
           rdf:resource="http://purl.org/dc/dcmitype/StillImage" />
        <dc:title></dc:title>
      </cc:Work>
    </rdf:RDF>
  </metadata>
  <g
     inkscape:label="Layer 1"
     inkscape:groupmode="layer"
     id="layer1"
     transform="translate(0,-110.17201)">
    <path
       style="fill:#ffffff;fill-opacity:1;stroke:none;stroke-width:0.37825492"
       d="m 119.74972,110.17195 v 7e-4 a 4.4209877,4.4209473 0 0 0 -2.20964,0.59708 l -0.004,-0.004 c 0,0 -12.08261,6.93026 -17.21202,9.76319 -4.2042,2.32201 -4.509424,5.11664 -4.484925,6.06089 -0.02464,0.94425 0.280725,3.7389 4.484925,6.06088 5.12941,2.83292 17.21202,9.76319 17.21202,9.76319 l 0.004,-0.004 a 4.4209877,4.4209473 0 0 0 2.20964,0.59707 4.4209877,4.4209473 0 0 0 4.42062,-4.42125 4.4209877,4.4209473 0 0 0 -2.21438,-3.82622 l 0.004,-0.006 -14.8873,-8.16354 14.88796,-8.16352 -0.004,-0.006 a 4.4209877,4.4209473 0 0 0 2.21438,-3.82622 4.4209877,4.4209473 0 0 0 -4.42063,-4.42126 z"
       id="path837"
       inkscape:connector-curvature="0" />
    <path
       style="fill:#ffffff;fill-opacity:1;stroke:none;stroke-width:0.40852565"
       d="M 16.417867,110.17201 A 16.417341,16.417347 0 0 0 0,126.58915 16.417341,16.417347 0 0 0 16.417867,143.00701 16.417341,16.417347 0 0 0 32.835,126.58915 16.417341,16.417347 0 0 0 16.417867,110.17201 Z"
       id="path835"
       inkscape:connector-curvature="0" />
    <path
       style="fill:#fbc509;fill-opacity:1;stroke:none;stroke-width:0.33567795"
       d="M 14.0511,154.84963 A 14.051139,12.950943 0 0 0 0,167.80054 a 14.051139,12.950943 0 0 0 0.35741,2.85402 l -0.0304,0.006 19.9283,74.87513 0.0377,-0.008 a 14.051139,12.950943 0 0 0 13.54386,9.56065 14.051139,12.950943 0 0 0 13.37714,-9.03623 l 0.0177,0.0797 14.85328,-39.07213 14.854075,39.07213 0.01768,-0.0797 a 14.051139,12.950943 0 0 0 13.377171,9.03623 14.051139,12.950943 0 0 0 13.543844,-9.56065 l 0.0377,0.008 19.92831,-74.87513 -0.0304,-0.006 a 14.051139,12.950943 0 0 0 0.35741,-2.85402 14.051139,12.950943 0 0 0 -14.05111,-12.95091 14.051139,12.950943 0 0 0 -13.856389,10.90052 l -0.03209,-0.006 -8.254057,30.92445 -12.624678,-33.24 -0.0473,0.0156 a 14.051139,12.950943 0 0 0 -0.02559,-0.0576 14.051139,12.950943 0 0 0 -0.43754,-0.97203 14.051139,12.950943 0 0 0 -0.109792,-0.2275 14.051139,12.950943 0 0 0 -0.5337,-0.9144 14.051139,12.950943 0 0 0 -0.139411,-0.22454 14.051139,12.950943 0 0 0 -0.620263,-0.84719 14.051139,12.950943 0 0 0 -0.173884,-0.22454 14.051139,12.950943 0 0 0 -0.685982,-0.76226 14.051139,12.950943 0 0 0 -0.22757,-0.23856 14.051139,12.950943 0 0 0 -0.747687,-0.67805 14.051139,12.950943 0 0 0 -0.259639,-0.22233 14.051139,12.950943 0 0 0 -0.798953,-0.59311 14.051139,12.950943 0 0 0 -0.311729,-0.21864 14.051139,12.950943 0 0 0 -0.818198,-0.49191 14.051139,12.950943 0 0 0 -0.375836,-0.21199 14.051139,12.950943 0 0 0 -0.833426,-0.39737 14.051139,12.950943 0 0 0 -0.427119,-0.19057 14.051139,12.950943 0 0 0 -0.825409,-0.30209 14.051139,12.950943 0 0 0 -0.500049,-0.1684 14.051139,12.950943 0 0 0 -0.820602,-0.21494 14.051139,12.950943 0 0 0 -0.536911,-0.12635 14.051139,12.950943 0 0 0 -0.81018,-0.13449 14.051139,12.950943 0 0 0 -0.587403,-0.082 14.051139,12.950943 0 0 0 -0.764496,-0.0546 14.051139,12.950943 0 0 0 -0.845444,-0.0392 14.051139,12.950943 0 0 0 -0.0062,0 14.051139,12.950943 0 0 0 -0.863883,0.0405 14.051139,12.950943 0 0 0 -0.733233,0.0525 14.051139,12.950943 0 0 0 -0.632277,0.0879 14.051139,12.950943 0 0 0 -0.7669,0.12706 14.051139,12.950943 0 0 0 -0.56337,0.13221 14.051139,12.950943 0 0 0 -0.80537,0.21126 14.051139,12.950943 0 0 0 -0.50005,0.1684 14.051139,12.950943 0 0 0 -0.82541,0.30209 14.051139,12.950943 0 0 0 -0.42712,0.19056 14.051139,12.950943 0 0 0 -0.83181,0.39664 14.051139,12.950943 0 0 0 -0.38787,0.21937 14.051139,12.950943 0 0 0 -0.80216,0.48158 14.051139,12.950943 0 0 0 -0.32695,0.22898 14.051139,12.950943 0 0 0 -0.78934,0.58646 14.051139,12.950943 0 0 0 -0.25964,0.22232 14.051139,12.950943 0 0 0 -0.74608,0.67731 14.051139,12.950943 0 0 0 -0.234,0.24521 14.051139,12.950943 0 0 0 -0.67795,0.75265 14.051139,12.950943 0 0 0 -0.18271,0.23563 14.051139,12.950943 0 0 0 -0.61384,0.83908 14.051139,12.950943 0 0 0 -0.14344,0.23044 14.051139,12.950943 0 0 0 -0.52811,0.90628 14.051139,12.950943 0 0 0 -0.11537,0.23635 14.051139,12.950943 0 0 0 -0.43354,0.96537 14.051139,12.950943 0 0 0 -0.0265,0.0583 l -0.0473,-0.0156 -12.62467,33.24 -8.25405,-30.92444 -0.0321,0.006 A 14.051139,12.950943 0 0 0 14.05068,154.84943 Z"
       id="path827"
       inkscape:connector-curvature="0" />
    <path
       style="fill:#ffffff;fill-opacity:1;stroke:none;stroke-width:0.27635229"
       d="m 117.26531,265.42017 5.6e-4,5.5e-4 a 6.9353435,7.0104147 0 0 0 -4.90135,2.05616 l -0.003,-0.003 c 0,0 -0.0278,0.0306 -0.032,0.0358 a 6.9353435,7.0104147 0 0 0 -0.15032,0.16498 c -1.65812,1.78236 -15.37868,15.30366 -50.07866,15.30366 -0.01817,0 -0.03397,-10e-6 -0.0521,0 -34.661268,-0.0136 -48.369278,-13.52168 -50.026567,-15.30313 a 6.9353435,7.0104147 0 0 0 -0.150316,-0.16496 c -0.0042,-0.005 -0.03202,-0.0358 -0.03202,-0.0358 l -0.0032,0.003 a 6.9353435,7.0104147 0 0 0 -4.9013395,-2.05614 l 5.557e-4,-5.7e-4 A 6.9353435,7.0104147 0 0 0 0,272.43086 6.9353435,7.0104147 0 0 0 1.7197013,277.0386 c 0.079913,0.11553 0.1808375,0.23242 0.3109463,0.35003 0.037384,0.0338 0.075959,0.0661 0.1134159,0.0999 a 6.9353435,7.0104147 0 0 0 0.5046785,0.44335 c 21.804511,19.07183 59.451554,19.06813 59.451554,19.06813 v -5.6e-4 c 0,0 37.647036,0.004 59.451554,-19.06812 a 6.9353435,7.0104147 0 0 0 0.50467,-0.44336 c 0.0374,-0.0336 0.0761,-0.066 0.11343,-0.0999 0.13011,-0.1176 0.23105,-0.23448 0.31094,-0.35001 a 6.9353435,7.0104147 0 0 0 1.7197,-4.60776 6.9353435,7.0104147 0 0 0 -6.93525,-7.01013 z"
       id="path902"
       inkscape:connector-curvature="0" />
  </g>
</svg>
