<?xml version="1.0" encoding="UTF-8" standalone="no"?>
<!-- Created with Inkscape (http://www.inkscape.org/) -->

<svg
   xmlns:dc="http://purl.org/dc/elements/1.1/"
   xmlns:cc="http://creativecommons.org/ns#"
   xmlns:rdf="http://www.w3.org/1999/02/22-rdf-syntax-ns#"
   xmlns:svg="http://www.w3.org/2000/svg"
   xmlns="http://www.w3.org/2000/svg"
   xmlns:sodipodi="http://sodipodi.sourceforge.net/DTD/sodipodi-0.dtd"
   xmlns:inkscape="http://www.inkscape.org/namespaces/inkscape"
   width="685mm"
   height="101.108mm"
   viewBox="0 0 685 101.108"
   version="1.1"
   id="svg8"
   inkscape:version="0.92.4 (5da689c313, 2019-01-14)"
   sodipodi:docname="winkscan-animated-logo.svg">
  <defs
     id="defs2" />
  <sodipodi:namedview
     id="base"
     pagecolor="#ffffff"
     bordercolor="#666666"
     borderopacity="1.0"
     inkscape:pageopacity="0.0"
     inkscape:pageshadow="2"
     inkscape:zoom="0.66"
     inkscape:cx="1332.9243"
     inkscape:cy="452.04153"
     inkscape:document-units="mm"
     inkscape:current-layer="layer1"
     showgrid="false"
     inkscape:window-width="2560"
     inkscape:window-height="1377"
     inkscape:window-x="-8"
     inkscape:window-y="-8"
     inkscape:window-maximized="1" />
  <metadata
     id="metadata5">
    <rdf:RDF>
      <cc:Work
         rdf:about="">
        <dc:format>image/svg+xml</dc:format>
        <dc:type
           rdf:resource="http://purl.org/dc/dcmitype/StillImage" />
        <dc:title></dc:title>
      </cc:Work>
    </rdf:RDF>
  </metadata>
  <g
     inkscape:label="Layer 1"
     inkscape:groupmode="layer"
     id="layer1"
     transform="translate(0,-195.89202)">
    <g
       aria-label="WINk"
       style="font-style:normal;font-weight:normal;font-size:130.65344238px;line-height:1.25;font-family:sans-serif;letter-spacing:0px;word-spacing:0px;fill:#ffffff;fill-opacity:1;stroke:none;stroke-width:3.2663362"
       id="text830"
       transform="translate(-2.405303)">
      <path
         d="m 29.642283,265.71341 1.786277,12.24876 2.615621,-11.03664 18.37314,-64.81636 h 10.334892 l 17.92657,64.81636 2.551826,11.22803 1.977664,-12.50394 14.417811,-63.54045 H 111.93864 L 89.418784,294.99561 H 78.25455 l -19.138688,-67.68716 -1.4673,-7.08132 -1.467299,7.08132 -19.84044,67.68716 H 25.176589 L 2.7205283,202.10917 H 14.969289 Z"
         style="font-style:normal;font-variant:normal;font-weight:normal;font-stretch:normal;font-family:Roboto;-inkscape-font-specification:Roboto;fill:#ffffff;stroke-width:3.2663362"
         id="path832"
         inkscape:connector-curvature="0" />
      <path
         d="m 138.60521,294.99561 h -12.24876 v -92.88644 h 12.24876 z"
         style="font-style:normal;font-variant:normal;font-weight:normal;font-stretch:normal;font-family:Roboto;-inkscape-font-specification:Roboto;fill:#ffffff;stroke-width:3.2663362"
         id="path834"
         inkscape:connector-curvature="0" />
      <path
         d="m 232.32099,294.99561 h -12.31256 l -46.76219,-71.5787 v 71.5787 h -12.31256 v -92.88644 h 12.31256 l 46.88978,71.89767 v -71.89767 h 12.18497 z"
         style="font-style:normal;font-variant:normal;font-weight:normal;font-stretch:normal;font-family:Roboto;-inkscape-font-specification:Roboto;fill:#ffffff;stroke-width:3.2663362"
         id="path836"
         inkscape:connector-curvature="0" />
      <path
         d="m 271.49151,263.034 -7.4003,7.71927 v 24.24234 h -11.80219 v -97.99009 h 11.80219 v 59.26614 l 6.31577,-7.59168 21.49913,-22.71124 h 14.35401 l -26.85796,28.83562 29.98395,40.19125 h -13.84365 z"
         style="font-style:normal;font-variant:normal;font-weight:normal;font-stretch:normal;font-family:Roboto;-inkscape-font-specification:Roboto;fill:#ffffff;stroke-width:3.2663362"
         id="path838"
         inkscape:connector-curvature="0" />
    </g>
    <path
       style="fill:#12141f;fill-opacity:1;stroke:none;stroke-width:1.21093059"
       d="M 1181.8184 0 L 1181.8184 382.14062 L 2587.8789 382.14062 L 2587.8789 0 L 1181.8184 0 z M 1699.8691 4.1757812 C 1744.2129 4.1757812 1779.854 15.889526 1806.7949 39.316406 C 1833.7358 62.575967 1849.0472 94.704111 1852.7285 135.70117 L 1764.8789 135.70117 C 1764.2096 113.44563 1758.6027 97.465214 1748.0605 87.759766 C 1737.5185 78.054342 1721.4554 73.201172 1699.8691 73.201172 C 1677.9483 73.201172 1661.8832 81.399987 1651.6758 97.798828 C 1641.4683 114.19764 1636.1133 140.38626 1635.6113 176.36328 L 1635.6113 202.2168 C 1635.6113 241.20585 1640.4645 269.06535 1650.1699 285.79883 C 1660.0427 302.53231 1676.9442 310.90039 1700.873 310.90039 C 1721.1206 310.90039 1736.5992 306.13184 1747.3086 296.59375 C 1758.018 287.05566 1763.7076 271.91161 1764.377 251.16211 L 1851.9766 251.16211 C 1850.8052 276.59699 1843.9446 299.10346 1831.3945 318.68164 C 1818.8444 338.09249 1801.1892 353.15189 1778.4316 363.86133 C 1755.8414 374.57077 1729.9893 379.92578 1700.873 379.92578 C 1652.8479 379.92578 1615.0302 364.27992 1587.4199 332.98828 C 1559.8097 301.69667 1546.0039 257.52017 1546.0039 200.45898 L 1546.0039 182.38672 C 1546.0039 146.57706 1552.1953 115.28531 1564.5781 88.511719 C 1577.1282 61.57079 1595.1161 40.821807 1618.543 26.263672 C 1641.9698 11.538202 1669.0795 4.1757812 1699.8691 4.1757812 z M 1374.0684 4.4257812 C 1400.34 4.4257812 1423.8501 9.1116679 1444.5996 18.482422 C 1465.5165 27.853173 1481.7469 41.239754 1493.293 58.642578 C 1504.8391 75.87808 1510.6133 95.623351 1510.6133 117.87891 L 1422.7617 117.87891 C 1422.7617 102.98611 1418.1604 91.439642 1408.957 83.240234 C 1399.9209 75.040801 1387.6207 70.941406 1372.0586 70.941406 C 1356.3291 70.941406 1343.8636 74.456293 1334.6602 81.484375 C 1325.6241 88.345099 1321.1055 97.130413 1321.1055 107.83984 C 1321.1055 117.2106 1326.1259 125.744 1336.166 133.44141 C 1346.2061 140.97148 1363.8594 148.83575 1389.127 157.03516 C 1414.3945 165.06723 1435.1455 173.7699 1451.377 183.14062 C 1490.868 205.89817 1510.6133 237.27263 1510.6133 277.26562 C 1510.6133 309.2266 1498.5647 334.32691 1474.4688 352.56641 C 1450.3725 370.80593 1417.3233 379.92578 1375.3223 379.92578 C 1345.704 379.92578 1318.8462 374.65539 1294.75 364.11328 C 1270.8211 353.40386 1252.7506 338.84435 1240.5352 320.4375 C 1228.4871 301.86334 1222.4629 280.52787 1222.4629 256.43164 L 1310.8145 256.43164 C 1310.8145 276.00982 1315.8349 290.48471 1325.875 299.85547 C 1336.0824 309.05887 1352.5647 313.66016 1375.3223 313.66016 C 1389.8804 313.66016 1401.3422 310.56442 1409.709 304.37305 C 1418.2431 298.01432 1422.5117 289.14635 1422.5117 277.76758 C 1422.5117 264.88279 1417.9085 254.8419 1408.7051 247.64648 C 1399.669 240.4511 1383.6885 233.006 1360.7637 225.30859 C 1337.8388 217.61118 1319.0972 210.16414 1304.5391 202.96875 C 1257.1833 179.70918 1233.5059 147.74831 1233.5059 107.08594 C 1233.5059 86.838398 1239.3627 69.017866 1251.0762 53.623047 C 1262.9569 38.060903 1279.6912 26.012596 1301.2773 17.478516 C 1322.8636 8.7771024 1347.1275 4.4257812 1374.0684 4.4257812 z M 1999.3145 9.4453125 L 2082.1445 9.4453125 L 2217.1836 374.90625 L 2122.5566 374.90625 L 2101.2207 306.63281 L 1980.4883 306.63281 L 1959.4043 374.90625 L 1865.2793 374.90625 L 1999.3145 9.4453125 z M 2244.041 9.4453125 L 2332.1426 9.4453125 L 2461.4102 236.85352 L 2461.4102 9.4453125 L 2549.2598 9.4453125 L 2549.2598 374.90625 L 2461.6602 374.90625 L 2332.1426 147.49805 L 2332.1426 374.90625 L 2244.041 374.90625 L 2244.041 9.4453125 z M 2040.7305 111.85547 L 2001.5742 238.61133 L 2080.1367 238.61133 L 2040.7305 111.85547 z "
       transform="matrix(0.26458333,0,0,0.26458333,0,195.89202)"
       id="rect842" />
    <g
       aria-label="SCAN"
       style="font-style:normal;font-weight:normal;font-size:136.00979614px;line-height:1.25;font-family:sans-serif;letter-spacing:0px;word-spacing:0px;fill:#d40000;fill-opacity:1;stroke:none;stroke-width:3.40024519"
       id="text831-0"
       transform="translate(-2.405303,110.83652)" />
  </g>
</svg>
