<?xml version="1.0" encoding="UTF-8" standalone="no"?>
<!-- Created with Inkscape (http://www.inkscape.org/) -->

<svg
   xmlns:dc="http://purl.org/dc/elements/1.1/"
   xmlns:cc="http://creativecommons.org/ns#"
   xmlns:rdf="http://www.w3.org/1999/02/22-rdf-syntax-ns#"
   xmlns:svg="http://www.w3.org/2000/svg"
   xmlns="http://www.w3.org/2000/svg"
   xmlns:sodipodi="http://sodipodi.sourceforge.net/DTD/sodipodi-0.dtd"
   xmlns:inkscape="http://www.inkscape.org/namespaces/inkscape"
   width="146.114mm"
   height="88.806mm"
   viewBox="0 0 146.114 88.806"
   version="1.1"
   id="svg826"
   inkscape:version="0.92.4 (5da689c313, 2019-01-14)"
   sodipodi:docname="icon-slots-dark.svg">
  <defs
     id="defs820" />
  <sodipodi:namedview
     id="base"
     pagecolor="#ffffff"
     bordercolor="#666666"
     borderopacity="1.0"
     inkscape:pageopacity="0.0"
     inkscape:pageshadow="2"
     inkscape:zoom="2"
     inkscape:cx="229.81166"
     inkscape:cy="174.28571"
     inkscape:document-units="mm"
     inkscape:current-layer="layer1"
     showgrid="false"
     inkscape:window-width="2560"
     inkscape:window-height="1377"
     inkscape:window-x="-8"
     inkscape:window-y="-8"
     inkscape:window-maximized="1" />
  <metadata
     id="metadata823">
    <rdf:RDF>
      <cc:Work
         rdf:about="">
        <dc:format>image/svg+xml</dc:format>
        <dc:type
           rdf:resource="http://purl.org/dc/dcmitype/StillImage" />
        <dc:title></dc:title>
      </cc:Work>
    </rdf:RDF>
  </metadata>
  <g
     inkscape:label="Layer 1"
     inkscape:groupmode="layer"
     id="layer1"
     transform="translate(0,-208.194)">
    <path
       style="font-style:normal;font-weight:normal;font-size:121.81851196px;line-height:1.25;font-family:sans-serif;letter-spacing:0px;word-spacing:0px;fill:#9498a6;fill-opacity:1;stroke:none;stroke-width:3.04546356"
       d="m 69.658795,208.194 c -3.886136,0 -6.840646,0.69362 -8.863025,2.08153 -2.022377,1.38791 -3.529293,2.93437 -4.520653,4.63951 v -5.53145 H 37.89536 v 34.8563 h 18.379757 c 0,-2.65686 0.19825,-4.75852 0.594794,-6.30505 0.396545,-1.54652 0.931979,-2.71626 1.606103,-3.50935 0.713783,-0.83274 1.467239,-1.3484 2.260328,-1.54667 0.832744,-0.19828 1.665295,-0.29766 2.498039,-0.29766 0.475853,0 1.308923,0.1587 2.498556,0.47594 1.229289,0.31723 2.617047,0.71374 4.163571,1.18959 1.546524,0.4362 3.112759,0.81293 4.698936,1.13017 1.58618,0.31723 3.033773,0.47594 4.342371,0.47594 1.943068,0 3.806938,-0.43605 5.591392,-1.30845 1.78445,-0.91205 3.529163,-2.14163 5.234305,-3.68815 l 0.47594,0.47594 c -3.251668,3.48959 -6.483522,6.66213 -9.695532,9.51725 -3.172359,2.85513 -6.205961,5.65042 -9.100738,8.38658 -2.894774,2.6965 -5.591196,5.51208 -8.089429,8.44651 -2.458577,2.89478 -4.580535,6.20625 -6.364986,9.93377 -1.78445,3.68787 -3.19198,7.91098 -4.222998,12.66952 -0.99136,4.71888 -1.487247,10.29021 -1.487247,16.71423 h 33.012454 c 0,-7.73262 0.694139,-14.53352 2.082043,-20.40238 1.387906,-5.90852 3.112847,-11.20198 5.17488,-15.88121 2.062032,-4.71889 4.30263,-9.04138 6.721554,-12.96718 2.458577,-3.96544 4.718947,-7.89144 6.780977,-11.77758 2.06204,-3.88614 3.78698,-7.93077 5.17488,-12.13415 1.38791,-4.24303 2.08153,-9.0609 2.08153,-14.45391 H 99.161387 c -0.396544,1.07068 -1.229095,1.96255 -2.49804,2.67633 -1.268941,0.67413 -2.557832,1.01131 -3.86643,1.01131 -1.427559,0 -3.053117,-0.2378 -4.877221,-0.71365 -1.78445,-0.51551 -3.648321,-1.07072 -5.591389,-1.66554 -1.943071,-0.59481 -3.965644,-1.15002 -6.067329,-1.66553 -2.101689,-0.55516 -4.302223,-0.83251 -6.602183,-0.83251 z m -50.093067,17.38706 c -2.393807,0 -4.213338,0.42717 -5.459097,1.2821 -1.245759,0.85493 -2.174177,1.80788 -2.784843,2.85822 v -3.40754 H 0 v 21.47105 h 11.321788 c 0,-1.63658 0.122121,-2.93136 0.366387,-3.884 0.244266,-0.95264 0.57435,-1.67309 0.989602,-2.16163 0.43968,-0.51296 0.903632,-0.83078 1.392164,-0.95291 0.512961,-0.12213 1.025964,-0.18294 1.538925,-0.18294 0.293119,0 0.806125,0.0976 1.538922,0.29301 0.757227,0.19541 1.612064,0.43965 2.564702,0.73277 0.95264,0.26869 1.917332,0.50067 2.894399,0.69608 0.977064,0.19542 1.868691,0.29301 2.67477,0.29301 1.196907,0 2.345037,-0.26877 3.444235,-0.80615 1.099198,-0.56182 2.174264,-1.31854 3.224609,-2.27119 l 0.293005,0.29301 c -2.002985,2.14955 -3.993689,4.10346 -5.972243,5.86218 -1.954133,1.75872 -3.822719,3.48066 -5.60586,5.16609 -1.783146,1.66102 -3.444279,3.39573 -4.983159,5.20331 -1.514452,1.78314 -2.821493,3.82239 -3.920691,6.11849 -1.099199,2.27168 -1.9662991,4.8735 -2.6013917,7.8047 -0.6106663,2.90677 -0.915707,6.33838 -0.915707,10.2955 H 28.579132 c 0,-4.7632 0.427678,-8.95205 1.28261,-12.5672 0.854933,-3.63957 1.917732,-6.90053 3.18792,-9.78287 1.270185,-2.90677 2.650289,-5.56939 4.140314,-7.98763 0.525269,-0.84721 1.030123,-1.6903 1.526005,-2.53163 H 34.72036 v -18.91721 c -0.298844,0.0584 -0.598958,0.0879 -0.901237,0.0879 -0.879358,0 -1.880843,-0.14664 -3.004468,-0.43976 -1.099198,-0.31755 -2.247328,-0.65938 -3.444234,-1.02578 -1.196907,-0.3664 -2.442626,-0.70875 -3.73724,-1.02629 -1.294612,-0.34198 -2.650707,-0.51264 -4.067453,-0.51264 z m 100.277082,0 c -2.39381,0 -4.21334,0.42717 -5.4591,1.2821 -0.47199,0.32392 -0.89816,0.66192 -1.27899,1.01389 -1.33557,3.89366 -2.95921,7.65152 -4.87929,11.27012 -1.51635,2.85774 -3.14127,5.7371 -4.87205,8.63772 h 8.24549 c 0,-1.63658 0.12212,-2.93136 0.36639,-3.884 0.24426,-0.95264 0.57435,-1.67309 0.9896,-2.16163 0.43968,-0.51296 0.90363,-0.83078 1.39216,-0.95291 0.51296,-0.12213 1.02597,-0.18294 1.53893,-0.18294 0.29312,0 0.80612,0.0976 1.53892,0.29301 0.75723,0.19541 1.61206,0.43965 2.5647,0.73277 0.95264,0.26869 1.91733,0.50067 2.8944,0.69608 0.97706,0.19542 1.86869,0.29301 2.67477,0.29301 1.19691,0 2.34504,-0.26877 3.44424,-0.80615 1.09919,-0.56182 2.17374,-1.31854 3.22409,-2.27119 l 0.29352,0.29301 c -2.00299,2.14955 -3.99369,4.10346 -5.97224,5.86218 -1.95414,1.75872 -3.82324,3.48066 -5.60638,5.16609 -1.78315,1.66102 -3.44376,3.39573 -4.98264,5.20331 -1.51445,1.78314 -2.8215,3.82239 -3.92069,6.11849 -1.0992,2.27168 -1.9663,4.8735 -2.60139,7.8047 -0.61067,2.90677 -0.91623,6.33838 -0.91623,10.2955 h 20.33519 c 0,-4.7632 0.42768,-8.95205 1.28261,-12.5672 0.85494,-3.63957 1.91774,-6.90053 3.18792,-9.78287 1.27019,-2.90677 2.65029,-5.56939 4.14032,-7.98763 1.51445,-2.44267 2.9063,-4.86105 4.17649,-7.25486 1.27018,-2.39381 2.33299,-4.88526 3.18792,-7.47448 0.85493,-2.61366 1.2826,-5.58132 1.2826,-8.90334 h -8.09769 c -0.24427,0.65952 -0.75727,1.2088 -1.53892,1.64848 -0.78166,0.41525 -1.57518,0.62321 -2.38125,0.62321 -0.87936,0 -1.88136,-0.14664 -3.00499,-0.43976 -1.0992,-0.31755 -2.24681,-0.6599 -3.44372,-1.0263 -1.1969,-0.3664 -2.44262,-0.70823 -3.73724,-1.02577 -1.29461,-0.34198 -2.6507,-0.51264 -4.06745,-0.51264 z"
       id="text1384"
       inkscape:connector-curvature="0" />
  </g>
</svg>
