<?xml version="1.0" encoding="UTF-8" standalone="no"?>
<svg
   xmlns:dc="http://purl.org/dc/elements/1.1/"
   xmlns:cc="http://creativecommons.org/ns#"
   xmlns:rdf="http://www.w3.org/1999/02/22-rdf-syntax-ns#"
   xmlns:svg="http://www.w3.org/2000/svg"
   xmlns="http://www.w3.org/2000/svg"
   xmlns:sodipodi="http://sodipodi.sourceforge.net/DTD/sodipodi-0.dtd"
   xmlns:inkscape="http://www.inkscape.org/namespaces/inkscape"
   enable-background="new 0 0 512 512"
   height="435.60001"
   id="Croupier"
   version="1.1"
   viewBox="0 0 325.46399 435.60001"
   width="325.46399"
   xml:space="preserve"
   sodipodi:docname="icon-dealer.svg"
   inkscape:version="0.92.4 (5da689c313, 2019-01-14)"><metadata
     id="metadata13"><rdf:RDF><cc:Work
         rdf:about=""><dc:format>image/svg+xml</dc:format><dc:type
           rdf:resource="http://purl.org/dc/dcmitype/StillImage" /><dc:title></dc:title></cc:Work></rdf:RDF></metadata><defs
     id="defs11" /><sodipodi:namedview
     pagecolor="#ffffff"
     bordercolor="#666666"
     borderopacity="1"
     objecttolerance="10"
     gridtolerance="10"
     guidetolerance="10"
     inkscape:pageopacity="0"
     inkscape:pageshadow="2"
     inkscape:window-width="2560"
     inkscape:window-height="1377"
     id="namedview9"
     showgrid="false"
     inkscape:zoom="0.4609375"
     inkscape:cx="256"
     inkscape:cy="256"
     inkscape:window-x="-8"
     inkscape:window-y="-8"
     inkscape:window-maximized="1"
     inkscape:current-layer="Croupier" /><g
     id="g6"
     transform="translate(-93.268,-38.199994)"
     style="fill:#ffffff"><path
       d="m 408.709,372.949 c -1.652,-16.627 -11.465,-31.202 -26.248,-38.988 l -68.949,-36.313 -16.546,-18.374 v -13.351 c 10.308,-6.362 18.824,-14.938 25.087,-24.905 17.756,50.995 67.18,43.242 54.729,37.582 -13.2,-6 -10.801,-21.6 -3.601,-50.399 7.2,-28.8 4.8,-42 -10.8,-57.6 -3.447,-3.448 -7.128,-5.364 -10.771,-6.265 -0.564,-2.503 -1.517,-4.856 -2.797,-6.999 5.604,-12.011 9.638,-31.11 2.938,-46.341 C 351.11,70.711 307.908,38.2 254.681,38.2 c -53.626,0 -97.1,32.997 -97.1,73.7 h 0.077 c -6.302,15.439 -1.965,34.563 3.732,46.281 -1.85,3.403 -2.908,7.296 -2.908,11.434 v 8.355 c 0,11.249 7.77,20.716 18.225,23.317 0.586,27.041 15.057,51.677 38.289,65.401 v 12.586 l -16.581,18.412 -68.875,36.275 c -14.784,7.786 -24.597,22.361 -26.249,38.988 L 93.268,473.8 h 325.464 z m -162.336,-20.869 -5.273,47.627 -13.905,-34.71 17.072,-19.396 z m 21.349,-6.484 17.052,19.387 -13.888,34.664 -5.271,-47.566 z m 29.38,15.25 -33.19,-37.705 20.498,-24.118 6.892,-8.107 12.234,13.587 z M 188.688,199.581 v -9.586 h -6.182 c -6.63,0 -12.024,-5.394 -12.024,-12.024 v -8.355 c 0,-0.225 0.021,-0.444 0.034,-0.666 0.223,0.015 0.443,0.017 0.656,0.033 0.022,0 0.039,0 0.061,0 5.455,0.243 10.798,-3.372 16.942,-11.391 h 0.514 v -0.682 c 4.569,-6.102 9.587,-14.605 15.425,-25.754 8.096,-15.413 20.845,-16.07 30.512,-13.646 2.836,1.878 4.669,2.959 4.669,2.959 l 14.175,8.47 11.312,-7.389 c 7.699,-4.067 29.203,-12.71 40.898,9.606 13.885,26.511 23.14,38.123 32.718,37.828 0.38,0 0.753,0 1.114,-0.05 0.174,-0.021 0.398,-0.115 0.652,-0.254 0.024,0.311 0.053,0.621 0.053,0.938 v 8.355 c 0,6.63 -5.395,12.024 -12.025,12.024 h -6.182 v 9.586 c 0,0.968 -0.028,1.931 -0.07,2.892 -0.012,0.244 -0.024,0.487 -0.037,0.73 -0.049,0.873 -0.111,1.742 -0.193,2.608 -0.009,0.089 -0.014,0.179 -0.023,0.268 -0.097,0.979 -0.219,1.953 -0.359,2.923 -0.023,0.16 -0.049,0.318 -0.074,0.478 -0.139,0.912 -0.293,1.819 -0.471,2.722 -0.012,0.06 -0.021,0.121 -0.033,0.182 -0.203,1.015 -0.428,2.023 -0.676,3.024 -0.005,0.019 -0.01,0.037 -0.015,0.056 -0.25,1.002 -0.522,1.997 -0.819,2.984 -0.004,0.014 -0.008,0.028 -0.012,0.042 -0.604,2.009 -1.303,3.985 -2.091,5.921 -5.584,13.707 -15.714,25.4 -29.085,32.832 l -3.085,1.715 v 20.877 l -21.337,25.103 -7.649,8.999 -28.985,-34.102 V 259.56 l -3.19,-1.69 c -21.662,-11.478 -35.118,-33.814 -35.118,-58.289 z m 31.973,91.333 27.389,32.225 -33.189,37.703 -6.435,-56.34 z M 106.52,461.8 l 8.712,-87.664 c 1.252,-12.604 8.691,-23.655 19.899,-29.558 l 62.061,-32.686 0.12,1.047 -25.918,55.824 c -1.665,3.587 -0.53,7.852 2.698,10.135 l 81.89,57.953 81.891,-57.953 c 3.228,-2.283 4.362,-6.548 2.697,-10.135 l -25.918,-55.824 0.121,-1.066 62.098,32.705 c 11.207,5.902 18.646,16.953 19.898,29.558 l 8.713,87.664 H 106.52 Z"
       id="path2"
       inkscape:connector-curvature="0"
       style="fill:#ffffff" /><path
       d="m 362.645,416.668 h -46.113 -3.055 c -2.028,0 -3.673,1.958 -3.673,4.373 v 15.475 c 0,2.415 1.645,4.373 3.673,4.373 h 49.168 c 1.775,0 3.256,-1.499 3.599,-3.492 0.049,-0.284 0.075,-0.579 0.075,-0.881 v -2.355 -13.119 c -0.001,-2.416 -1.646,-4.374 -3.674,-4.374 z"
       id="path4"
       inkscape:connector-curvature="0"
       style="fill:#ffffff" /></g></svg>