<?xml version="1.0" encoding="UTF-8" standalone="no"?>
<!-- Created with Inkscape (http://www.inkscape.org/) -->

<svg
   xmlns:dc="http://purl.org/dc/elements/1.1/"
   xmlns:cc="http://creativecommons.org/ns#"
   xmlns:rdf="http://www.w3.org/1999/02/22-rdf-syntax-ns#"
   xmlns:svg="http://www.w3.org/2000/svg"
   xmlns="http://www.w3.org/2000/svg"
   xmlns:sodipodi="http://sodipodi.sourceforge.net/DTD/sodipodi-0.dtd"
   xmlns:inkscape="http://www.inkscape.org/namespaces/inkscape"
   width="190.368mm"
   height="142.743mm"
   viewBox="0 0 190.368 142.743"
   version="1.1"
   id="svg1469"
   inkscape:version="0.92.4 (5da689c313, 2019-01-14)"
   sodipodi:docname="icon-table-games.svg">
  <defs
     id="defs1463" />
  <sodipodi:namedview
     id="base"
     pagecolor="#ffffff"
     bordercolor="#666666"
     borderopacity="1.0"
     inkscape:pageopacity="0.0"
     inkscape:pageshadow="2"
     inkscape:zoom="2"
     inkscape:cx="454.25474"
     inkscape:cy="247.72197"
     inkscape:document-units="mm"
     inkscape:current-layer="layer1"
     showgrid="false"
     inkscape:window-width="2560"
     inkscape:window-height="1377"
     inkscape:window-x="-8"
     inkscape:window-y="-8"
     inkscape:window-maximized="1" />
  <metadata
     id="metadata1466">
    <rdf:RDF>
      <cc:Work
         rdf:about="">
        <dc:format>image/svg+xml</dc:format>
        <dc:type
           rdf:resource="http://purl.org/dc/dcmitype/StillImage" />
        <dc:title></dc:title>
      </cc:Work>
    </rdf:RDF>
  </metadata>
  <g
     inkscape:label="Layer 1"
     inkscape:groupmode="layer"
     id="layer1"
     transform="translate(0,-154.257)">
    <path
       style="fill:#ffffff;fill-opacity:1;stroke:none;stroke-width:0.41551164"
       d="M 30.901989,154.257 A 95.183853,82.219436 0 0 0 0,214.78056 95.183853,82.219436 0 0 0 95.183853,297 95.183853,82.219436 0 0 0 190.36771,214.78056 95.183853,82.219436 0 0 0 159.4373,154.257 Z m 5.807398,7.63831 H 153.63248 A 86.584895,72.810498 0 0 1 181.76875,215.49267 86.584895,72.810498 0 0 1 95.183853,288.30336 86.584895,72.810498 0 0 1 8.5989582,215.49267 86.584895,72.810498 0 0 1 36.709387,161.89531 Z m 60.222163,19.11774 -17.802531,66.44001 46.586301,12.48298 17.80253,-66.44052 z m -5.217252,2.89802 -38.0106,6.82854 12.282972,68.37219 23.653337,-4.24936 -15.802655,-4.23438 5.956742,-22.23124 c -0.106612,-0.0802 -0.205092,-0.15698 -0.314193,-0.23823 -3.882599,-2.8651 -6.274393,-4.70529 -7.175272,-5.52061 -2.374316,-2.11818 -3.719071,-4.05481 -4.034378,-5.80999 -0.304683,-1.69603 0.01323,-3.30055 0.953948,-4.81315 1.035788,-1.73324 2.610604,-2.78953 4.724775,-3.16933 2.088071,-0.37512 3.900861,0.0422 5.438429,1.25213 1.34907,1.06052 2.172536,2.41914 2.470131,4.07573 l 0.587563,-0.10542 c -0.297598,-1.6566 0.01418,-3.21912 0.935858,-4.68758 0.540607,-0.88452 1.232916,-1.58568 2.073259,-2.10686 z m 24.258472,19.2123 c -0.0766,0.7533 1.0399,3.3075 3.34966,7.66208 l 4.53099,8.33853 c 1.06181,2.23239 1.70011,4.0577 1.91513,5.47616 0.2493,1.64113 0.10052,3.48223 -0.44649,5.5237 -0.46029,1.71782 -1.44839,3.06747 -2.96415,4.04886 -1.66603,1.07454 -3.47796,1.34989 -5.43585,0.82528 -1.95789,-0.52463 -3.38191,-1.64008 -4.27157,-3.34606 -0.82867,-1.5829 -1.01272,-3.23331 -0.55243,-4.95113 l -1.05213,-0.28164 c -0.50031,1.8672 -0.73305,3.84595 -0.69814,5.9366 0.0466,2.28059 0.40253,4.28363 1.06763,6.00947 l -9.11727,-2.44275 c 3.0214,-2.39244 5.11909,-5.77946 6.29315,-10.16116 l -1.05161,-0.28215 c -0.46029,1.71782 -1.44524,3.05517 -2.95434,4.01165 -1.62346,1.0326 -3.41439,1.28633 -5.372284,0.76171 -1.957896,-0.52461 -3.389289,-1.66876 -4.294831,-3.43235 -0.82201,-1.60781 -1.00289,-3.27052 -0.542602,-4.98834 0.547007,-2.04148 1.338572,-3.71035 2.375051,-5.00694 0.895426,-1.12093 2.361395,-2.38291 4.397146,-3.78531 l 8.09305,-4.95578 c 4.17759,-2.61629 6.42155,-4.26978 6.73189,-4.96043 z"
       id="path2160"
       inkscape:connector-curvature="0" />
  </g>
</svg>
