<?xml version="1.0" encoding="UTF-8" standalone="no"?>
<!-- Created with Inkscape (http://www.inkscape.org/) -->

<svg
   xmlns:dc="http://purl.org/dc/elements/1.1/"
   xmlns:cc="http://creativecommons.org/ns#"
   xmlns:rdf="http://www.w3.org/1999/02/22-rdf-syntax-ns#"
   xmlns:svg="http://www.w3.org/2000/svg"
   xmlns="http://www.w3.org/2000/svg"
   xmlns:sodipodi="http://sodipodi.sourceforge.net/DTD/sodipodi-0.dtd"
   xmlns:inkscape="http://www.inkscape.org/namespaces/inkscape"
   width="150.548mm"
   height="150.548mm"
   viewBox="0 0 150.54801 150.54801"
   version="1.1"
   id="svg1469"
   inkscape:version="0.92.4 (5da689c313, 2019-01-14)"
   sodipodi:docname="icon-faq.svg">
  <defs
     id="defs1463" />
  <sodipodi:namedview
     id="base"
     pagecolor="#ffffff"
     bordercolor="#666666"
     borderopacity="1.0"
     inkscape:pageopacity="0.0"
     inkscape:pageshadow="2"
     inkscape:zoom="2"
     inkscape:cx="200.4691"
     inkscape:cy="277.90591"
     inkscape:document-units="mm"
     inkscape:current-layer="layer1"
     showgrid="false"
     inkscape:window-width="2560"
     inkscape:window-height="1377"
     inkscape:window-x="-8"
     inkscape:window-y="-8"
     inkscape:window-maximized="1" />
  <metadata
     id="metadata1466">
    <rdf:RDF>
      <cc:Work
         rdf:about="">
        <dc:format>image/svg+xml</dc:format>
        <dc:type
           rdf:resource="http://purl.org/dc/dcmitype/StillImage" />
        <dc:title></dc:title>
      </cc:Work>
    </rdf:RDF>
  </metadata>
  <g
     inkscape:label="Layer 1"
     inkscape:groupmode="layer"
     id="layer1"
     transform="translate(0,-146.452)">
    <text
       xml:space="preserve"
       style="font-style:normal;font-weight:normal;font-size:94.19208527px;line-height:1.25;font-family:sans-serif;letter-spacing:0px;word-spacing:0px;fill:#ffffff;fill-opacity:1;stroke:none;stroke-width:2.35480213;"
       x="45.700932"
       y="255.07056"
       id="text2045"><tspan
         sodipodi:role="line"
         id="tspan2043"
         x="45.700932"
         y="255.07056"
         style="font-style:normal;font-variant:normal;font-weight:normal;font-stretch:normal;font-family:Ultra;-inkscape-font-specification:Ultra;stroke-width:2.35480213;fill:#ffffff;">?</tspan></text>
    <path
       style="fill:#ffffff;fill-opacity:1;stroke-width:2.28056216"
       d="M 284.5 0 A 284.50017 284.50017 0 0 0 0 284.5 A 284.50017 284.50017 0 0 0 284.5 569 A 284.50017 284.50017 0 0 0 569 284.5 A 284.50017 284.50017 0 0 0 284.5 0 z M 284.5 26.5 A 258.00019 258.00019 0 0 1 542.5 284.5 A 258.00019 258.00019 0 0 1 284.5 542.5 A 258.00019 258.00019 0 0 1 26.5 284.5 A 258.00019 258.00019 0 0 1 284.5 26.5 z "
       transform="matrix(0.26458333,0,0,0.26458333,0,146.452)"
       id="path2047" />
  </g>
</svg>
