<?xml version="1.0" encoding="UTF-8" standalone="no"?>
<svg
   xmlns:dc="http://purl.org/dc/elements/1.1/"
   xmlns:cc="http://creativecommons.org/ns#"
   xmlns:rdf="http://www.w3.org/1999/02/22-rdf-syntax-ns#"
   xmlns:svg="http://www.w3.org/2000/svg"
   xmlns="http://www.w3.org/2000/svg"
   xmlns:sodipodi="http://sodipodi.sourceforge.net/DTD/sodipodi-0.dtd"
   xmlns:inkscape="http://www.inkscape.org/namespaces/inkscape"
   version="1.1"
   width="3.5546"
   height="2.5002"
   id="svg3723"
   sodipodi:docname="bird1.svg"
   inkscape:version="0.92.1 r15371">
  <metadata
     id="metadata3729">
    <rdf:RDF>
      <cc:Work
         rdf:about="">
        <dc:format>image/svg+xml</dc:format>
        <dc:type
           rdf:resource="http://purl.org/dc/dcmitype/StillImage" />
        <dc:title></dc:title>
      </cc:Work>
    </rdf:RDF>
  </metadata>
  <defs
     id="defs3727" />
  <sodipodi:namedview
     pagecolor="#ffffff"
     bordercolor="#666666"
     borderopacity="1"
     objecttolerance="10"
     gridtolerance="10"
     guidetolerance="10"
     inkscape:pageopacity="0"
     inkscape:pageshadow="2"
     inkscape:window-width="2560"
     inkscape:window-height="1377"
     id="namedview3725"
     showgrid="false"
     inkscape:zoom="79.896472"
     inkscape:cx="1.7773"
     inkscape:cy="1.2501"
     inkscape:window-x="-8"
     inkscape:window-y="-8"
     inkscape:window-maximized="1"
     inkscape:current-layer="svg3723" />
  <g
     id="Layer1000">
    <path
       d="  M1.3725,0.0005 C1.3725,0.0005 1.3408,0.6609 1.6200,0.8556 C1.8992,1.0504 2.5278,1.9144 2.5278,1.9144 C2.5278,1.9144 2.7903,2.1260 2.8340,2.1967 C2.8778,2.2674 3.0354,2.4999 3.0354,2.4999 C3.0354,2.4999 3.2924,1.6951 2.9023,1.1840 C2.5122,0.6729 2.0496,0.4242 2.0496,0.4242 C2.0496,0.4242 1.5026,0.2390 1.3725,0.0005 Z Z M0.6199,1.0354 C0.6199,1.0354 0.7895,0.6663 0.6816,0.4589 C0.5738,0.2516 0.5210,0.2798 0.4899,0.3601 C0.4587,0.4404 0.4623,0.4931 0.4623,0.4931 C0.4623,0.4931 0.3569,0.3942 0.2885,0.3942 C0.2202,0.3942 0.1585,0.4649 0.1927,0.5362 C0.2268,0.6075 0.2388,0.6327 0.2388,0.6327 C0.2388,0.6327 0.0123,0.5584 0.0003,0.6729 C-0.0117,0.7873 0.2142,1.0384 0.6199,1.0354 Z"
       style="fill-rule: evenodd; fill: #4475ba; "
       id="path3710" />
    <path
       d="  M3.5058,0.7651 L3.2751,0.8538 L3.2762,0.9743 L3.5549,1.0396 L3.4279,0.9137 L3.5058,0.7651 Z"
       style="fill-rule: evenodd; fill: #603b1a; "
       id="path3712" />
    <path
       d="  M0.6199,1.0354 C0.6199,1.0354 1.0723,1.8893 1.8339,2.0259 C2.5955,2.1625 3.1222,1.5088 3.2121,1.3787 C3.3020,1.2487 3.5339,0.7160 3.1468,0.4188 C2.7597,0.1216 2.2738,0.1677 2.0353,0.4404 C1.7968,0.7130 1.3785,1.0378 1.1370,1.0504 C0.8955,1.0629 0.6199,1.0354 0.6199,1.0354 Z"
       style="fill-rule: evenodd; fill: #90aedb; "
       id="path3714" />
    <path
       d="  M3.0836,0.7034 A0.1363,0.1378 0.0000 0,1 3.2199,0.8412 A0.1363,0.1378 0.0000 1,1 3.0836,0.7034 Z"
       style="fill-rule: evenodd; fill: #603b1a; "
       id="path3716" />
    <path
       d="  M3.1423,0.7735 A0.0000,0.0000 0.0000 0,1 3.1805,0.8122 A0.0000,0.0000 0.0000 1,1 3.1423,0.7735 Z"
       style="fill-rule: evenodd; fill: #ffffff; "
       id="path3718" />
    <path
       d="  M2.5578,1.9444 C2.5578,1.9444 2.2977,1.7497 2.2947,1.5172 C2.2881,0.9946 3.0030,1.1438 3.0743,1.5453 C3.1270,1.8431 2.5578,1.9444 2.5578,1.9444 Z"
       style="fill-rule: evenodd; fill: #4475ba; "
       id="path3720" />
  </g>
</svg>
