<?xml version="1.0" encoding="UTF-8" standalone="no"?>
<svg
   xmlns:dc="http://purl.org/dc/elements/1.1/"
   xmlns:cc="http://creativecommons.org/ns#"
   xmlns:rdf="http://www.w3.org/1999/02/22-rdf-syntax-ns#"
   xmlns:svg="http://www.w3.org/2000/svg"
   xmlns="http://www.w3.org/2000/svg"
   xmlns:sodipodi="http://sodipodi.sourceforge.net/DTD/sodipodi-0.dtd"
   xmlns:inkscape="http://www.inkscape.org/namespaces/inkscape"
   version="1.1"
   width="3.3931"
   height="2.2904"
   id="svg3746"
   viewBox="0 0 3.3931 2.2904"
   sodipodi:docname="bird2.svg"
   inkscape:version="0.92.1 r15371">
  <metadata
     id="metadata3752">
    <rdf:RDF>
      <cc:Work
         rdf:about="">
        <dc:format>image/svg+xml</dc:format>
        <dc:type
           rdf:resource="http://purl.org/dc/dcmitype/StillImage" />
        <dc:title></dc:title>
      </cc:Work>
    </rdf:RDF>
  </metadata>
  <defs
     id="defs3750" />
  <sodipodi:namedview
     pagecolor="#ffffff"
     bordercolor="#666666"
     borderopacity="1"
     objecttolerance="10"
     gridtolerance="10"
     guidetolerance="10"
     inkscape:pageopacity="0"
     inkscape:pageshadow="2"
     inkscape:window-width="2560"
     inkscape:window-height="1377"
     id="namedview3748"
     showgrid="false"
     inkscape:zoom="83.699271"
     inkscape:cx="1.69655"
     inkscape:cy="1.1452"
     inkscape:window-x="-8"
     inkscape:window-y="-8"
     inkscape:window-maximized="1"
     inkscape:current-layer="svg3746" />
  <g
     id="Layer1000">
    <path
       d="m 1.7694,-2e-4 c 0,0 0.2319,0.4488 0.4889,0.5914 C 2.5154,0.7338 2.2212,1.1425 2.2212,1.1425 L 1.7226,0.9597 c 0,0 -0.1947,-0.4272 0.0468,-0.9599 z"
       style="fill:#0f9347;fill-rule:evenodd"
       id="path3731"
       inkscape:connector-curvature="0" />
    <path
       d="M 3.3927,1.375 3.0942,1.499 3.0972,1.2869 3.1793,1.2078 Z"
       style="fill:#603b1a;fill-rule:evenodd"
       id="path3733"
       inkscape:connector-curvature="0" />
    <path
       d="m 0.5973,1.2683 c 0,0 0.4824,1.0001 1.2572,1.0217 C 2.6292,2.3116 3.0619,1.801 3.1428,1.6027 3.2237,1.4043 3.3759,0.8842 2.8677,0.6242 2.3596,0.3641 1.9815,0.7015 1.8269,0.8471 1.6723,0.9927 1.1857,1.4571 0.5973,1.2683 Z"
       style="fill:#b4da9f;fill-rule:evenodd"
       id="path3735"
       inkscape:connector-curvature="0" />
    <path
       d="m 0.6033,1.2719 c 0,0 0.1366,-0.3805 0.0665,-0.5758 C 0.5997,0.5007 0.4757,0.5325 0.4541,0.6529 0.4325,0.7734 0.4313,0.7458 0.4313,0.7458 c 0,0 -0.1073,-0.1822 -0.2061,-0.1037 -0.0989,0.0785 0.006,0.2212 0.006,0.2212 0,0 -0.2217,-0.1265 -0.2307,0.0095 -0.009,0.1361 0.121,0.3805 0.6028,0.3991 z"
       style="fill:#0f9347;fill-rule:evenodd"
       id="path3737"
       inkscape:connector-curvature="0" />
    <path
       d="m 1.1156,0.56 c 0,0 0.0282,0.6891 0.2805,0.8779 C 1.6483,1.6267 1.9707,1.6926 2.0774,1.5296 2.184,1.3666 2.1738,1.085 1.8886,0.9795 1.6034,0.874 1.3787,0.8045 1.1156,0.56 Z"
       style="fill:#0f9347;fill-rule:evenodd"
       id="path3739"
       inkscape:connector-curvature="0" />
    <path
       d="M 2.9363,1.0322 A 0.1705,0.1603 0 0 1 3.1068,1.1925 0.1705,0.1603 0 1 1 2.9363,1.0322 Z"
       style="fill:#603b1a;fill-rule:evenodd"
       id="path3741"
       inkscape:connector-curvature="0" />
    <path
       d="M 3.0173,1.1328 A 0.04021806,0 -136.76317 0 0 3.0759,1.1879 Z"
       style="fill:#ffffff;fill-rule:evenodd"
       id="path3743"
       inkscape:connector-curvature="0" />
  </g>
</svg>
