<?xml version="1.0" encoding="UTF-8"?>
<!DOCTYPE svg PUBLIC "-//W3C//DTD SVG 1.1//EN" "http://www.w3.org/Graphics/SVG/1.1/DTD/svg11.dtd">
<!-- Creator: CorelDRAW X7 -->
<svg xmlns="http://www.w3.org/2000/svg" xml:space="preserve" width="2.365in" height="2.959in" version="1.1" style="shape-rendering:geometricPrecision; text-rendering:geometricPrecision; image-rendering:optimizeQuality; fill-rule:evenodd; clip-rule:evenodd"
viewBox="0 0 2365 2959"
 xmlns:xlink="http://www.w3.org/1999/xlink"
 enable-background="new 0 0 512 512">
 <defs>
  <style type="text/css">
   <![CDATA[
    .fil0 {fill:white}
   ]]>
  </style>
 </defs>
 <g id="Layer_x0020_1">
  <metadata id="CorelCorpID_0Corel-Layer"/>
  <path id="symbol_2_" class="fil0" d="M2359 1190c49,-311 -201,-479 -544,-590l111 -421 -271 -64 -108 410c-71,-17 -145,-33 -217,-48l108 -413 -271 -64 -111 421c-59,-13 -117,-25 -173,-39l0 -1 -374 -88 -72 274c0,0 201,43 197,46 110,26 130,95 126,149l-126 480c7,2 17,4 28,9 -9,-3 -19,-5 -29,-7l-177 672c-13,32 -48,79 -124,61 2,4 -198,-47 -198,-47l-134 294 353 83c65,16 130,32 193,47l-112 426 271 64 111 -421c74,19 146,36 216,53l-111 419 272 64 112 -425c463,83 810,49 957,-346 118,-319 -6,-502 -249,-622 177,-39 310,-149 346,-376zm-620 821c-84,318 -651,146 -835,103l149 -564c184,43 774,129 686,461zm84 -826c-76,290 -548,142 -702,106l135 -512c154,37 647,104 567,406z"/>
 </g>
</svg>
