<?xml version="1.0" encoding="UTF-8"?>
<!DOCTYPE svg PUBLIC "-//W3C//DTD SVG 1.1//EN" "http://www.w3.org/Graphics/SVG/1.1/DTD/svg11.dtd">
<!-- Creator: CorelDRAW X7 -->
<svg xmlns="http://www.w3.org/2000/svg" xml:space="preserve" width="1.07in" height="1.223in" version="1.1" style="shape-rendering:geometricPrecision; text-rendering:geometricPrecision; image-rendering:optimizeQuality; fill-rule:evenodd; clip-rule:evenodd"
viewBox="0 0 1070 1223"
 xmlns:xlink="http://www.w3.org/1999/xlink">
 <defs>
  <style type="text/css">
   <![CDATA[
    .fil0 {fill:#2B2A29}
   ]]>
  </style>
 </defs>
 <g id="Layer_x0020_1">
  <metadata id="CorelCorpID_0Corel-Layer"/>
  <g>
   <path id="Fill-1" class="fil0" d="M307 612c2,173 143,312 316,312 73,0 142,-24 197,-69l68 65c-74,63 -168,98 -267,98 -226,0 -409,-181 -412,-406l98 0zm0 0c2,-174 143,-313 316,-313 73,0 142,24 197,69l68 -65c-74,-63 -168,-98 -267,-98 -226,0 -409,181 -412,407l98 0zm-307 0c0,1 0,2 0,3 4,215 117,403 287,511 22,14 51,-2 51,-28 0,-12 -6,-22 -16,-28 -151,-97 -253,-266 -255,-458 2,-193 104,-362 255,-459 10,-6 16,-16 16,-28 0,-26 -29,-42 -51,-28 -170,108 -283,296 -287,511 0,1 0,2 0,4zm142 0c3,-252 198,-458 451,-473 128,-7 251,36 344,118l51 -48c-100,-91 -231,-142 -369,-142 -2,0 -3,0 -5,0 0,0 0,0 0,0 0,0 0,0 0,0 0,0 0,0 0,0l0 0c-18,0 -33,-15 -33,-34 0,-18 15,-33 33,-33 1,0 1,0 1,0 170,-1 329,67 446,186 13,13 12,34 -1,47l-216 204c-13,12 -34,12 -46,0 -47,-46 -109,-71 -175,-71 -136,0 -247,109 -249,246 2,136 113,245 249,245 66,0 128,-25 175,-71 12,-12 33,-12 46,0l216 204c13,13 14,34 1,47 -117,119 -276,187 -446,186 0,0 0,0 -1,0 -18,0 -33,-15 -33,-33 0,-19 15,-34 33,-34l0 0c0,0 0,0 0,0 0,0 0,0 0,0 0,0 0,0 0,0 2,0 3,0 5,0 138,0 269,-51 369,-142l-51 -48c-93,82 -216,125 -344,118 -253,-15 -448,-221 -451,-472z"/>
  </g>
 </g>
</svg>
