<?xml version="1.0" encoding="UTF-8" standalone="no"?>
<svg
   xmlns:dc="http://purl.org/dc/elements/1.1/"
   xmlns:cc="http://creativecommons.org/ns#"
   xmlns:rdf="http://www.w3.org/1999/02/22-rdf-syntax-ns#"
   xmlns:svg="http://www.w3.org/2000/svg"
   xmlns="http://www.w3.org/2000/svg"
   xmlns:sodipodi="http://sodipodi.sourceforge.net/DTD/sodipodi-0.dtd"
   xmlns:inkscape="http://www.inkscape.org/namespaces/inkscape"
   width="75px"
   height="34px"
   viewBox="0 0 75 34"
   version="1.1"
   id="svg13"
   sodipodi:docname="cci-logo.svg"
   inkscape:version="0.92.1 r15371">
  <metadata
     id="metadata17">
    <rdf:RDF>
      <cc:Work
         rdf:about="">
        <dc:format>image/svg+xml</dc:format>
        <dc:type
           rdf:resource="http://purl.org/dc/dcmitype/StillImage" />
        <dc:title>CCI-logo</dc:title>
      </cc:Work>
    </rdf:RDF>
  </metadata>
  <sodipodi:namedview
     pagecolor="#ffffff"
     bordercolor="#666666"
     borderopacity="1"
     objecttolerance="10"
     gridtolerance="10"
     guidetolerance="10"
     inkscape:pageopacity="0"
     inkscape:pageshadow="2"
     inkscape:window-width="2560"
     inkscape:window-height="1377"
     id="namedview15"
     showgrid="false"
     inkscape:zoom="3.7866667"
     inkscape:cx="37.5"
     inkscape:cy="17"
     inkscape:window-x="-8"
     inkscape:window-y="-8"
     inkscape:window-maximized="1"
     inkscape:current-layer="svg13" />
  <!-- Generator: Sketch 49.3 (51167) - http://www.bohemiancoding.com/sketch -->
  <title
     id="title2">CCI-logo</title>
  <desc
     id="desc4">Created with Sketch.</desc>
  <defs
     id="defs6" />
  <g
     id="CCI"
     stroke="none"
     stroke-width="1"
     fill="none"
     fill-rule="evenodd"
     style="fill:#ffffff">
    <g
       id="CCI-logo"
       fill="#0175F2"
       style="fill:#ffffff">
      <path
         d="M73.0038745,1.17391229 L73.0038745,31.7587115 L63.3521943,31.7587115 L63.3521943,2.28610836 L69.1432024,2.28610836 L69.1432024,27.7210947 L67.1924048,27.7210947 L67.1924048,5.05886902 C67.1924048,4.53147175 66.7648648,4.10393178 66.2374675,4.10393178 L66.2374675,4.10393178 C65.7100463,4.10393178 65.282464,4.5314478 65.2823823,5.05886901 L65.2785409,29.8405254 L71.0735384,29.8405254 L71.0735384,2.20874426 C71.0735384,1.10417476 70.1781079,0.208744263 69.0735384,0.208744263 L63.4218582,0.208744263 C62.3172887,0.208744263 61.4218582,1.10417476 61.4218582,2.20874426 L61.4218582,31.8360756 C61.4218582,32.9406451 62.3172887,33.8360756 63.4218582,33.8360756 L72.9342105,33.8360756 C74.03878,33.8360756 74.9342105,32.9406451 74.9342105,31.8360756 L74.9342105,1.17391229 C74.9342105,0.640864706 74.5020901,0.208744263 73.9690425,0.208744263 L73.9690425,0.208744263 C73.4359949,0.208744263 73.0038745,0.640864706 73.0038745,1.17391229 Z"
         id="Page-1"
         style="fill:#ffffff" />
      <path
         d="M37.8234533,17.143104 C37.8234533,21.8860689 41.6656796,25.7311405 46.4052646,25.7311405 C48.3797132,25.7311405 50.2500863,25.060123 51.7511344,23.8619796 L53.5932177,25.601794 C51.5894411,27.3114795 49.0433563,28.2713188 46.3447918,28.2713188 C40.1700819,28.2713188 35.1644687,23.261869 35.1644687,17.0825864 C35.1644687,10.9033039 40.1700819,5.89385406 46.3447918,5.89385406 C49.1849352,5.89385406 51.8539121,6.95771608 53.8962303,8.831682 L52.0332541,10.6591559 C50.4911987,9.31699113 48.5084449,8.55493762 46.4052646,8.55493762 C41.6656796,8.55493762 37.8234533,12.4000092 37.8234533,17.143104 M46.0652675,10.3777364 C48.104601,10.27735 50.0236379,11.0839475 51.3725957,12.5415631 C51.7197301,12.916616 52.3074578,12.9307714 52.6722409,12.5729907 L58.5396558,6.81785043 C58.8910726,6.47318615 58.903271,5.91073664 58.5676861,5.55087804 C55.3270729,2.07722312 50.7687765,0.106117445 45.9090246,0.212867271 C36.6996463,0.41519845 29.3220994,8.11053628 29.4862583,17.3276435 C29.5902039,23.1657681 32.6676964,28.2775524 37.2675192,31.2110948 C37.8675751,31.5938098 38.653721,31.1514863 38.653721,30.4394312 C38.653721,30.1309995 38.4977376,29.8429568 38.2379383,29.6772478 C34.0647988,27.014476 31.2965479,22.3421582 31.2965479,17.0220689 C31.2965479,8.73843824 38.0068182,2.02319887 46.2843191,2.02319887 C50.1937662,2.02319887 53.8605436,3.52769612 56.6202297,6.15981957 L55.1923718,7.56042404 C52.8105756,5.3423133 49.6771523,4.07949662 46.3447918,4.07949662 C39.207449,4.07949662 33.4140029,9.83853286 33.3518431,16.966746 C33.2911108,23.9295099 38.63737,29.6643911 45.5839511,30.0638588 C49.0658065,30.2639822 52.382335,29.0832409 54.9179085,26.8527929 L56.3124156,28.1696338 C53.5873781,30.6277368 50.0473858,32.0209389 46.2843191,32.0209389 C46.2449988,32.0209389 46.2060678,32.0200299 46.1668773,32.0196403 C46.1658392,32.0196403 46.1646713,32.0193805 46.1637629,32.0193805 C46.163114,32.0193805 46.1624652,32.0195104 46.1618163,32.0195104 C46.1593507,32.0195104 46.1568851,32.0195104 46.1542897,32.0193805 L46.1542897,32.0199 C45.6574008,32.0249648 45.2560226,32.4292375 45.2560226,32.927793 C45.2560226,33.4294652 45.6623321,33.8360756 46.1637629,33.8360756 C46.1728468,33.8360756 46.1815413,33.8350367 46.1906252,33.8347769 C50.7962877,33.8601008 55.1145099,32.0210688 58.2744062,28.7998733 C58.6301054,28.4372875 58.6189452,27.8532803 58.2496202,27.5045902 L52.3940143,21.9745076 C52.0402617,21.6404923 51.485755,21.6454272 51.1379718,21.985806 C49.880891,23.2164159 48.1994628,23.916783 46.4052646,23.916783 C42.6998157,23.916783 39.6898036,20.9371383 39.6372468,17.2414125 C39.5857282,13.6171131 42.4475431,10.5557826 46.0652675,10.3777364"
         id="Fill-1"
         style="fill:#ffffff" />
      <path
         d="M8.49561208,17.1438866 C8.49561208,21.8868069 12.3378337,25.7318423 17.0772832,25.7318423 C19.0517293,25.7318423 20.9221002,25.0608312 22.4232762,23.862699 L24.2652275,25.602497 C22.2615832,27.3121664 19.7153716,28.2719968 17.0169402,28.2719968 C10.8422378,28.2719968 5.83650091,23.262594 5.83650091,17.0833696 C5.83650091,10.9041452 10.8422378,5.89474238 17.0169402,5.89474238 C19.8569504,5.89474238 22.5260538,6.95859439 24.5683696,8.8325427 L22.7053956,10.6599994 C21.1633421,9.31784726 19.1804609,8.55580092 17.0772832,8.55580092 C12.3378337,8.55580092 8.49561208,12.4008364 8.49561208,17.1438866 M16.7372865,10.3785825 C18.7766175,10.2781971 20.695652,11.084787 22.044738,12.542389 C22.3917422,12.9174383 22.979599,12.9315936 23.3442519,12.5738162 L29.2116596,6.81873006 C29.563076,6.47406902 29.5754041,5.9116248 29.2396899,5.55176958 C26.0604617,2.14385887 21.6129941,0.182511584 16.8565449,0.21030264 C16.8461633,0.210042911 16.8359115,0.208744263 16.8252704,0.208744263 C16.32397,0.208744263 15.9175312,0.615480653 15.9175312,1.11714817 C15.9175312,1.61881569 16.32397,2.02542222 16.8252704,2.02542222 C16.8256597,2.02542222 16.826049,2.02542222 16.8264383,2.02542222 L16.8264383,2.02568195 C16.8697814,2.02542222 16.9129947,2.02412357 16.9564675,2.02412357 C20.8659099,2.02412357 24.5326829,3.52860667 27.2922358,6.16070538 L25.8643797,7.56129669 C23.4827161,5.3432068 20.3491669,4.08040199 17.0169402,4.08040199 C9.87960606,4.08040199 4.08616703,9.83938409 4.02400734,16.9675302 C3.96327512,23.9302287 9.30952772,29.6651858 16.2559706,30.0645199 C19.7378218,30.2646415 23.0544761,29.0839112 25.5900465,26.8534842 L26.9844221,28.1703127 C24.095878,30.775919 20.2918087,32.1850814 16.2768636,32.0065173 C8.22452316,31.6486101 1.85957831,24.8785011 1.97014211,16.813121 C2.04177499,11.5815197 4.79055703,6.99794341 8.90698207,4.36987051 C9.16794896,4.2033839 9.3258787,3.91534389 9.3258787,3.60574633 C9.3258787,2.89356806 8.53973379,2.45137859 7.93954887,2.83409 C3.33557902,5.77020209 0.256662828,10.8885614 0.158037847,16.7332542 C0.00387142885,25.8676809 7.25501364,33.518143 16.3788626,33.8263121 C21.1650291,33.9879937 25.6760838,32.1344341 28.9464103,28.8005463 C29.3021091,28.4379639 29.2910787,27.8539622 28.9217541,27.5052753 L23.0661554,21.9752448 C22.7122734,21.6412326 22.1578972,21.6461675 21.8099846,21.986543 C20.5530351,23.2171414 18.871609,23.9175019 17.0772832,23.9175019 C13.3719686,23.9175019 10.3618303,20.9378852 10.3094034,17.2421942 C10.2578848,13.6179288 13.1196962,10.5566271 16.7372865,10.3785825"
         id="Fill-4"
         style="fill:#ffffff" />
    </g>
  </g>
</svg>
