<?xml version="1.0" encoding="UTF-8"?>
<!DOCTYPE svg PUBLIC "-//W3C//DTD SVG 1.1//EN" "http://www.w3.org/Graphics/SVG/1.1/DTD/svg11.dtd">
<!-- Creator: CorelDRAW X7 -->
<svg xmlns="http://www.w3.org/2000/svg" xml:space="preserve" width="2.756in" height="1.239in" version="1.1" style="shape-rendering:geometricPrecision; text-rendering:geometricPrecision; image-rendering:optimizeQuality; fill-rule:evenodd; clip-rule:evenodd"
viewBox="0 0 2756 1239"
 xmlns:xlink="http://www.w3.org/1999/xlink">
 <defs>
  <style type="text/css">
   <![CDATA[
    .fil0 {fill:#0057B5}
   ]]>
  </style>
 </defs>
 <g id="Layer_x0020_1">
  <metadata id="CorelCorpID_0Corel-Layer"/>
  <g id="CCI">
   <g id="CCI-logo">
    <path id="Page-1" class="fil0" d="M2685 35l0 1128 -356 0 0 -1087 213 0 0 938 -71 0 0 -835c0,-20 -16,-36 -36,-36l0 0c-19,0 -35,16 -35,36l0 913 214 0 0 -1018c0,-41 -33,-74 -74,-74l-208 0c-41,0 -74,33 -74,74l0 1091c0,41 33,74 74,74l350 0c41,0 74,-33 74,-74l0 -1130c0,-19 -16,-35 -36,-35l0 0c-19,0 -35,16 -35,35z"/>
    <g>
     <path id="Fill-1" class="fil0" d="M1388 624c0,175 142,316 317,316 72,0 141,-24 196,-68l68 64c-73,63 -167,98 -267,98 -227,0 -412,-185 -412,-412 0,-228 185,-413 412,-413 105,0 203,40 279,109l-69 67c-57,-49 -130,-78 -207,-78 -175,0 -317,142 -317,317l0 0zm304 -249c75,-4 146,26 196,79 12,14 34,15 47,2l217 -213c13,-12 13,-33 1,-46 -120,-128 -288,-201 -467,-197 -339,8 -611,291 -605,631 4,215 117,403 287,511 22,14 51,-2 51,-28 0,-11 -6,-22 -15,-28 -154,-98 -256,-270 -256,-467 0,-305 247,-552 552,-552 144,0 279,55 381,152l-53 52c-87,-82 -203,-128 -326,-128 -263,0 -476,212 -479,474 -2,257 195,468 451,483 129,7 251,-36 344,-118l52 48c-101,91 -231,142 -370,142 -1,0 -3,0 -4,0 0,0 0,0 0,0 0,0 0,0 0,0 -1,0 -1,0 -1,0l0 0c-18,0 -33,15 -33,34 0,18 15,33 34,33 0,0 0,0 1,0 169,1 328,-67 445,-186 13,-13 13,-34 -1,-47l-216 -204c-13,-12 -33,-12 -46,0 -46,46 -108,72 -174,72 -137,0 -248,-110 -250,-246 -2,-134 104,-247 237,-253z"/>
    </g>
    <g>
     <path id="Fill-4" class="fil0" d="M308 624c0,175 141,316 316,316 73,0 141,-24 197,-68l68 64c-74,63 -168,98 -267,98 -228,0 -412,-185 -412,-412 0,-228 184,-413 412,-413 104,0 203,40 278,109l-69 67c-57,-49 -130,-77 -207,-77 -175,0 -316,141 -316,316l0 0zm303 -249c75,-4 146,26 196,79 13,14 34,15 48,2l216 -213c13,-12 13,-33 1,-46 -117,-126 -281,-198 -456,-197 -1,0 -1,0 -2,0 -18,0 -33,15 -33,33 0,19 15,34 33,34 0,0 1,0 1,0l0 0c1,0 3,0 4,0 144,0 280,55 381,152l-52 52c-88,-82 -204,-128 -326,-128 -263,0 -477,212 -479,474 -2,257 195,468 451,483 128,7 250,-36 343,-118l52 48c-107,96 -247,148 -395,142 -296,-14 -531,-263 -527,-560 3,-193 104,-362 256,-459 9,-6 15,-16 15,-28 0,-26 -29,-42 -51,-28 -170,108 -283,296 -287,512 -5,336 262,618 598,630 176,6 343,-63 463,-185 13,-14 13,-35 -1,-48l-216 -204c-13,-12 -33,-12 -46,0 -46,46 -108,72 -174,72 -137,0 -248,-110 -250,-246 -2,-134 104,-247 237,-253z"/>
    </g>
   </g>
  </g>
 </g>
</svg>
