<?xml version="1.0" encoding="UTF-8" standalone="no"?>
<svg
   xmlns:dc="http://purl.org/dc/elements/1.1/"
   xmlns:cc="http://creativecommons.org/ns#"
   xmlns:rdf="http://www.w3.org/1999/02/22-rdf-syntax-ns#"
   xmlns:svg="http://www.w3.org/2000/svg"
   xmlns="http://www.w3.org/2000/svg"
   xmlns:sodipodi="http://sodipodi.sourceforge.net/DTD/sodipodi-0.dtd"
   xmlns:inkscape="http://www.inkscape.org/namespaces/inkscape"
   version="1.1"
   width="8.5804996"
   height="8.5804996"
   id="svg4493"
   viewBox="0 0 8.5804996 8.5804996"
   sodipodi:docname="chill-study-com.svg"
   inkscape:version="0.92.1 r15371">
  <metadata
     id="metadata4499">
    <rdf:RDF>
      <cc:Work
         rdf:about="">
        <dc:format>image/svg+xml</dc:format>
        <dc:type
           rdf:resource="http://purl.org/dc/dcmitype/StillImage" />
        <dc:title></dc:title>
      </cc:Work>
    </rdf:RDF>
  </metadata>
  <defs
     id="defs4497" />
  <sodipodi:namedview
     pagecolor="#ffffff"
     bordercolor="#666666"
     borderopacity="1"
     objecttolerance="10"
     gridtolerance="10"
     guidetolerance="10"
     inkscape:pageopacity="0"
     inkscape:pageshadow="2"
     inkscape:window-width="2560"
     inkscape:window-height="1377"
     id="namedview4495"
     showgrid="false"
     inkscape:zoom="140.78434"
     inkscape:cx="4.2902498"
     inkscape:cy="4.2902498"
     inkscape:window-x="-8"
     inkscape:window-y="-8"
     inkscape:window-maximized="1"
     inkscape:current-layer="svg4493" />
  <path
     d="m 5.633,6.853 c 0,0 -0.1111,-0.0513 -0.1259,0 C 5.4924,6.9043 5.5012,6.9364 5.5363,6.982 5.5715,7.0277 5.6563,7.1286 5.6432,7.1989 5.6302,7.2692 5.601,7.3429 5.5789,7.3661 5.5568,7.3894 5.548,7.4157 5.6052,7.4407 5.6625,7.4656 6.1064,7.6751 6.2118,7.7074 6.3173,7.7397 6.4083,7.7998 6.7028,7.7162 6.9973,7.6326 7.3414,7.5141 7.4191,7.4452 7.4968,7.3763 7.5025,7.3395 7.507,7.234 7.5115,7.1286 7.5217,6.8091 7.5217,6.8091 L 6.5988,7.1067 c 0,0 -0.0706,0.0423 -0.2098,0.0043 C 6.2498,7.073 5.633,6.853 5.633,6.853 Z M 5.6214,6.7139 6.3995,6.9763 c 0,0 0.0777,0.025 0.2197,-0.0175 0.142,-0.0425 1.118,-0.3796 1.118,-0.3796 0,0 0.2548,-0.0833 0.2432,-0.148 C 7.9688,6.3666 7.9098,6.3386 7.8265,6.3065 7.7431,6.2745 6.5531,5.8788 6.5531,5.8788 c 0,0 -0.1142,-0.0468 -0.246,-0.0029 -0.1318,0.044 -1.313,0.4513 -1.313,0.4513 0,0 -0.1128,0.0397 -0.1157,0.1114 C 4.8756,6.5103 4.9915,6.5443 5.0221,6.5514 5.0528,6.5585 5.233,6.626 5.233,6.626 c 0,0 -0.0643,0.1142 -0.0643,0.1451 0,0.0309 -0.0105,0.1656 -0.0573,0.1817 C 5.0647,6.969 4.9241,7.035 4.9445,7.2006 4.9649,7.3661 5.1214,7.3409 5.0981,7.4509 5.0749,7.5609 5.0088,7.7091 4.915,7.7984 4.8212,7.8877 4.9311,7.9651 4.9459,7.9798 4.9606,7.9946 5.1304,8.0765 5.2404,7.9696 5.3504,7.8627 5.3518,7.6929 5.3518,7.5991 c 0,-0.0938 -0.0031,-0.201 -0.0031,-0.201 0,0 -0.0028,-0.0394 0.0411,-0.0717 C 5.4337,7.2941 5.5086,7.2017 5.4734,7.1124 5.4383,7.0231 5.3796,6.9837 5.3796,6.9837 c 0,0 -0.053,-0.028 -0.0397,-0.0822 C 5.3532,6.8474 5.4207,6.702 5.5349,6.6436 5.6492,6.5852 6.1209,6.3842 6.1693,6.3666 6.2178,6.349 6.4259,6.27 6.4522,6.2861 6.4786,6.3023 6.5049,6.3283 6.4449,6.3592 6.3848,6.3901 5.8073,6.6246 5.6214,6.7139 Z"
     style="fill:#ffffff;fill-rule:evenodd"
     id="path4485"
     inkscape:connector-curvature="0" />
  <path
     d="M 2.7816,2.3292 H 2.2363 V 1.9655 C 2.2363,1.8598 2.2306,1.794 2.219,1.7674 2.2076,1.7416 2.1818,1.7283 2.1427,1.7283 2.0985,1.7283 2.0704,1.7442 2.0585,1.7759 2.0463,1.8082 2.0404,1.8768 2.0404,1.9828 v 0.9715 c 0,0.102 0.0059,0.1681 0.0181,0.1995 C 2.0704,3.1847 2.0971,3.2 2.1387,3.2 2.1787,3.2 2.2054,3.1847 2.2175,3.1533 2.23,3.1224 2.2363,3.0492 2.2363,2.9341 V 2.6708 H 2.7816 V 2.7522 C 2.7816,2.9693 2.766,3.1235 2.7357,3.2139 2.7051,3.3046 2.6374,3.384 2.5328,3.4526 2.4276,3.5209 2.2989,3.5549 2.1453,3.5549 1.986,3.5549 1.8544,3.5263 1.751,3.4685 1.6475,3.4106 1.5789,3.3307 1.5452,3.2284 1.5117,3.126 1.495,2.9724 1.495,2.7672 V 2.1557 C 1.495,2.0049 1.5004,1.8918 1.5103,1.8164 1.5211,1.741 1.5514,1.6682 1.603,1.5985 1.6543,1.5287 1.7252,1.4737 1.8162,1.4335 1.9071,1.3932 2.0117,1.3734 2.13,1.3734 c 0.1601,0 0.2925,0.0309 0.3971,0.0932 0.104,0.0618 0.1723,0.1389 0.2055,0.2316 0.0326,0.0927 0.049,0.2364 0.049,0.432 z M 4.2262,1.4159 v 2.094 H 3.6808 V 2.6308 H 3.522 V 3.5099 H 2.9767 V 1.4159 H 3.522 V 2.1651 H 3.6808 V 1.4159 Z m 0.7656,0 v 2.094 H 4.4464 v -2.094 z m 0.7628,0 V 3.0915 H 6.0829 V 3.5099 H 5.2092 v -2.094 z m 1.0069,0 V 3.0915 H 7.0897 V 3.5099 H 6.2161 v -2.094 z"
     style="fill:#ffffff;fill-rule:evenodd"
     id="path4487"
     inkscape:connector-curvature="0" />
  <path
     d="M 2.4831,4.2741 H 2.0551 V 4.1431 C 2.0551,4.0819 2.0494,4.0425 2.0387,4.0258 2.0279,4.009 2.01,4.0008 1.9845,4.0008 c -0.0277,0 -0.0484,0.0111 -0.0626,0.034 -0.0142,0.0224 -0.0216,0.0564 -0.0216,0.1024 0,0.0589 0.0083,0.1034 0.0244,0.1332 0.0156,0.0295 0.059,0.0658 0.1304,0.1083 0.2044,0.1222 0.3331,0.2225 0.3861,0.3007 0.0536,0.078 0.0799,0.2038 0.0799,0.3773 0,0.1262 -0.015,0.2191 -0.0445,0.2792 C 2.4471,5.3957 2.3905,5.4456 2.3057,5.4862 2.2212,5.5267 2.1231,5.5468 2.0106,5.5468 1.8873,5.5468 1.7824,5.5233 1.6951,5.4768 1.6081,5.43 1.5514,5.3708 1.5239,5.2985 1.4973,5.2262 1.4837,5.1233 1.4837,4.991 V 4.8747 h 0.428 v 0.2155 c 0,0.0666 0.0059,0.1091 0.0178,0.1281 0.0119,0.019 0.0335,0.0283 0.0641,0.0283 0.0306,0 0.0533,-0.0119 0.0683,-0.0362 C 2.0767,5.1866 2.0843,5.1508 2.0843,5.1038 2.0843,4.9995 2.0701,4.9311 2.0415,4.8994 2.012,4.8674 1.9403,4.8135 1.8261,4.7381 1.7118,4.6621 1.6364,4.6069 1.599,4.5726 1.5622,4.5383 1.531,4.4906 1.5069,4.4303 1.4825,4.3699 1.4703,4.2925 1.4703,4.1984 c 0,-0.1355 0.017,-0.235 0.0519,-0.2976 0.0346,-0.0627 0.0904,-0.1117 0.1675,-0.1472 0.0774,-0.0354 0.1704,-0.053 0.2798,-0.053 0.1196,0 0.2211,0.0193 0.3056,0.0579 C 2.359,3.7973 2.4148,3.8458 2.442,3.9047 2.4693,3.9634 2.4831,4.0632 2.4831,4.2041 Z M 3.583,3.7363 V 4.0904 H 3.3117 V 5.5089 H 2.8502 V 4.0904 H 2.5767 V 3.7363 Z m 1.1398,0 v 1.1852 c 0,0.1344 -0.0045,0.2288 -0.013,0.2829 C 4.7007,5.2591 4.6749,5.315 4.6321,5.3722 4.589,5.4298 4.5323,5.4731 4.462,5.5026 4.3914,5.5321 4.3087,5.5468 4.2129,5.5468 4.1071,5.5468 4.0139,5.5293 3.9334,5.4944 3.8523,5.4592 3.7916,5.4136 3.7517,5.3575 3.7114,5.3011 3.6879,5.2418 3.6805,5.1795 3.6734,5.1171 3.6694,4.9856 3.6694,4.7857 V 3.7363 h 0.4618 v 1.3295 c 0,0.0774 0.004,0.127 0.0122,0.1482 0.0082,0.0219 0.0252,0.0326 0.0502,0.0326 0.0283,0 0.047,-0.0119 0.0553,-0.0354 C 4.2571,5.1874 4.261,5.1313 4.261,5.0431 V 3.7363 Z m 0.167,0 h 0.3447 c 0.2222,0 0.3727,0.0103 0.4512,0.0307 0.0783,0.0207 0.1381,0.0541 0.1789,0.1009 0.0405,0.0467 0.0663,0.0986 0.0765,0.1556 0.01,0.0575 0.0153,0.1701 0.0153,0.3382 V 4.9822 C 5.9564,5.1415 5.9491,5.2478 5.934,5.3011 5.919,5.3549 5.8929,5.3972 5.8558,5.4275 5.8187,5.4578 5.7728,5.4785 5.7178,5.491 5.6633,5.5029 5.5806,5.5089 5.4706,5.5089 H 4.8898 Z m 0.4617,0.3025 v 1.1676 c 0.0652,0 0.1055,-0.0136 0.1205,-0.04 C 5.4873,5.1395 5.4947,5.0669 5.4947,4.9487 V 4.2593 C 5.4947,4.1788 5.4921,4.1275 5.4873,4.1046 5.4822,4.0819 5.4709,4.0654 5.4527,4.055 5.4346,4.0442 5.4011,4.0388 5.3515,4.0388 Z M 7.0977,3.7363 6.7618,4.8674 V 5.5089 H 6.336 V 4.8674 L 6.0111,3.7363 h 0.423 c 0.0655,0.347 0.1032,0.58 0.1125,0.6996 C 6.573,4.2469 6.6158,4.0139 6.675,3.7363 Z M 7.2564,5.148 V 5.5089 H 6.9225 V 5.148 Z"
     style="fill:#ffffff;fill-rule:evenodd"
     id="path4489"
     inkscape:connector-curvature="0" />
  <path
     d="M 2.3508,6.3547 H 1.9894 V 6.1138 C 1.9894,6.0437 1.9854,6.0001 1.978,5.9825 1.9704,5.9652 1.9534,5.9564 1.9273,5.9564 1.8981,5.9564 1.8794,5.9669 1.8714,5.9882 1.8635,6.0094 1.8595,6.0551 1.8595,6.1251 v 0.644 c 0,0.0675 0.004,0.1114 0.0119,0.1321 0.008,0.0207 0.0258,0.0309 0.0533,0.0309 0.0267,0 0.0442,-0.0102 0.0525,-0.0312 C 1.9851,6.8805 1.9894,6.8321 1.9894,6.7558 V 6.5812 h 0.3614 v 0.0541 c 0,0.1438 -0.0102,0.2458 -0.0304,0.3059 C 2.3003,7.0013 2.2552,7.054 2.1858,7.0994 2.1163,7.1447 2.0307,7.1671 1.929,7.1671 1.8235,7.1671 1.7362,7.1481 1.6676,7.1099 1.5993,7.0716 1.5537,7.0186 1.5313,6.9508 1.5092,6.8828 1.4981,6.781 1.4981,6.6453 V 6.2399 C 1.4981,6.1398 1.5015,6.065 1.5083,6.0148 1.5154,5.9649 1.5355,5.9168 1.5695,5.8706 1.6036,5.8243 1.6506,5.7878 1.711,5.7611 1.7711,5.7345 1.8405,5.7214 1.9188,5.7214 2.0251,5.7214 2.1127,5.7419 2.1821,5.783 2.251,5.8241 2.2963,5.8751 2.3182,5.9366 2.34,5.9981 2.3508,6.0934 2.3508,6.2229 Z M 3.3029,6.5631 C 3.3029,6.7025 3.2998,6.8012 3.293,6.859 3.2865,6.9171 3.2661,6.9701 3.2315,7.018 3.1969,7.0659 3.1501,7.1028 3.0915,7.1286 3.0328,7.1544 2.9642,7.1671 2.8862,7.1671 2.812,7.1671 2.7456,7.1549 2.6864,7.1306 2.6274,7.1065 2.5798,7.0702 2.5441,7.0214 2.5081,6.9729 2.4868,6.9199 2.4797,6.863 2.4729,6.8057 2.4695,6.7056 2.4695,6.5631 V 6.3255 c 0,-0.1395 0.0032,-0.2381 0.01,-0.2959 C 2.4857,5.9715 2.5064,5.9185 2.5407,5.8706 2.5753,5.8226 2.622,5.7858 2.681,5.76 2.7397,5.7342 2.808,5.7214 2.8862,5.7214 c 0.0743,0 0.1406,0.0122 0.1996,0.0366 0.0592,0.0241 0.1069,0.0604 0.1426,0.1089 0.036,0.0487 0.0572,0.1014 0.0643,0.1587 0.0068,0.0573 0.0102,0.1573 0.0102,0.2999 z M 2.9415,6.107 C 2.9415,6.0426 2.9378,6.0015 2.931,5.9834 2.9239,5.9655 2.9095,5.9564 2.8879,5.9564 2.8695,5.9564 2.8553,5.9638 2.8454,5.9786 2.8358,5.9927 2.831,6.0358 2.831,6.107 v 0.648 c 0,0.0802 0.0031,0.1301 0.0096,0.1488 0.0065,0.019 0.0213,0.0283 0.0448,0.0283 0.0238,0 0.0394,-0.0107 0.0462,-0.0326 C 2.9381,6.878 2.9415,6.8261 2.9415,6.7445 Z M 4.551,5.7495 V 7.1374 H 4.2352 L 4.2344,6.2005 4.1088,7.1374 H 3.8877 L 3.7553,6.2215 3.7545,7.1374 H 3.4387 V 5.7495 H 3.905 c 0.0133,0.0839 0.0275,0.1828 0.0431,0.2957 l 0.051,0.3523 0.0822,-0.648 z"
     style="fill:#ffffff;fill-rule:evenodd"
     id="path4491"
     inkscape:connector-curvature="0" />
</svg>
