<?xml version="1.0" encoding="UTF-8" standalone="no"?>
<svg
   xmlns:dc="http://purl.org/dc/elements/1.1/"
   xmlns:cc="http://creativecommons.org/ns#"
   xmlns:rdf="http://www.w3.org/1999/02/22-rdf-syntax-ns#"
   xmlns:svg="http://www.w3.org/2000/svg"
   xmlns="http://www.w3.org/2000/svg"
   xmlns:sodipodi="http://sodipodi.sourceforge.net/DTD/sodipodi-0.dtd"
   xmlns:inkscape="http://www.inkscape.org/namespaces/inkscape"
   version="1.1"
   width="454.07901"
   height="234.3"
   id="svg8"
   viewBox="0 0 454.07902 234.3"
   sodipodi:docname="gp-circle-white.svg"
   inkscape:version="0.92.1 r15371">
  <metadata
     id="metadata14">
    <rdf:RDF>
      <cc:Work
         rdf:about="">
        <dc:format>image/svg+xml</dc:format>
        <dc:type
           rdf:resource="http://purl.org/dc/dcmitype/StillImage" />
        <dc:title></dc:title>
      </cc:Work>
    </rdf:RDF>
  </metadata>
  <defs
     id="defs12" />
  <sodipodi:namedview
     pagecolor="#ffffff"
     bordercolor="#666666"
     borderopacity="1"
     objecttolerance="10"
     gridtolerance="10"
     guidetolerance="10"
     inkscape:pageopacity="0"
     inkscape:pageshadow="2"
     inkscape:window-width="2560"
     inkscape:window-height="1377"
     id="namedview10"
     showgrid="false"
     inkscape:zoom="0.97968464"
     inkscape:cx="9.1388996"
     inkscape:cy="2.1141618"
     inkscape:window-x="-8"
     inkscape:window-y="-8"
     inkscape:window-maximized="1"
     inkscape:current-layer="svg8" />
  <path
     d="m 431.90164,50.5446 c 12.19686,0 22.11198,9.91512 22.11198,22.11198 0,12.19937 -9.91512,22.11448 -22.11198,22.11448 -12.19937,0 -22.11448,-9.91511 -22.11448,-22.11448 0,-12.19686 9.91511,-22.11198 22.11448,-22.11198 z m 0,11.93667 c 5.6093,0 10.1753,4.56601 10.1753,10.17531 0,5.61181 -4.566,10.17782 -10.1753,10.17782 -5.60932,0 -10.17782,-4.56601 -10.17782,-10.17782 0,-5.6093 4.5685,-10.17531 10.17782,-10.17531 z"
     style="fill:#6871e8;fill-rule:evenodd;stroke-width:25.01921082"
     id="path2"
     inkscape:connector-curvature="0" />
  <path
     d="m 36.435477,210.39234 c -7.24056,0 -12.882392,-3.3901 -16.960523,-10.14279 V 234.3007 H 2.7771324 V 141.5745 H 19.474954 v 8.47901 c 4.240756,-6.75018 9.915113,-10.14279 16.960523,-10.14279 7.600836,0 13.632968,3.13241 18.133924,9.39472 4.500956,6.26231 6.72016,14.83889 6.72016,25.79731 0,10.82831 -2.219204,19.43992 -6.72016,25.76728 -4.500956,6.35988 -10.533088,9.52231 -18.133924,9.52231 z m -5.446682,-14.74132 c 4.175706,0 7.403184,-1.89145 9.687438,-5.67435 2.249227,-3.81543 3.392605,-8.77424 3.392605,-14.87392 0,-6.03214 -1.143378,-10.95842 -3.392605,-14.74132 -2.284254,-3.81543 -5.511732,-5.70689 -9.687438,-5.70689 -2.216702,0 -4.403382,0.74808 -6.587559,2.21671 -2.186679,1.50115 -3.815429,3.36008 -4.926282,5.57678 v 25.27691 c 1.110853,2.25173 2.739603,4.11065 4.926282,5.64433 2.184177,1.53118 4.370857,2.28175 6.587559,2.28175 z m 93.574355,13.08005 h -16.7979 v -6.68764 c -1.85893,2.60951 -4.40088,4.63106 -7.59834,6.13221 -3.197456,1.46863 -6.555032,2.2167 -10.077739,2.2167 -5.641832,0 -10.503058,-1.98902 -14.57869,-5.96708 -4.078132,-3.98056 -6.132209,-9.42724 -6.132209,-16.275 0,-6.94783 2.021552,-12.32946 6.067158,-16.11237 4.010582,-3.81543 8.901833,-5.70938 14.643741,-5.70938 3.620281,0 7.045414,0.68552 10.240369,2.0891 3.19745,1.40108 5.67435,3.32756 7.43571,5.83698 v -8.73921 c 0,-3.62028 -1.10835,-6.49248 -3.29253,-8.57908 -2.15416,-2.08661 -5.186483,-3.09738 -9.099485,-3.09738 -6.099684,0 -11.611415,2.37933 -16.537703,7.20803 l -6.262307,-11.38374 c 6.785214,-6.48998 15.394319,-9.75249 25.864857,-9.75249 7.893558,0 14.220918,1.92398 18.982078,5.77444 4.76116,3.84795 7.14299,9.84756 7.14299,18.00382 z M 96.481585,199.1412 c 5.219005,0 8.969385,-2.11912 11.283665,-6.39241 v -8.61161 c -2.41186,-4.37085 -6.16224,-6.55503 -11.283665,-6.55503 -3.132404,0 -5.67436,1.01078 -7.568312,2.9998 -1.891451,1.99153 -2.83718,4.59853 -2.83718,7.86104 0,3.22998 0.945729,5.83948 2.83718,7.76346 1.893952,1.9565 4.435908,2.93475 7.568312,2.93475 z m 60.078625,9.58987 H 139.85989 V 141.5745 h 16.70032 v 9.19706 c 1.92398,-3.06485 4.59853,-5.64183 7.99114,-7.72843 3.35758,-2.08911 6.81523,-3.13241 10.33794,-3.13241 v 16.4051 c -1.10835,-0.2602 -2.44688,-0.42282 -4.01058,-0.42282 -2.70708,0 -5.41416,0.7831 -8.15376,2.31427 -2.74211,1.53368 -4.79619,3.45766 -6.16474,5.77444 z m 48.10694,1.66127 c -11.41626,0 -17.09062,-5.93455 -17.09062,-17.77364 v -36.43298 h -8.77424 V 141.5745 h 8.77424 v -18.32907 h 16.6678 v 18.32907 h 11.12104 v 14.61122 h -11.12104 v 32.51747 c 0,4.63356 1.63125,6.94783 4.85873,6.94783 2.31678,0 3.98055,-0.653 5.02386,-1.92397 l 3.45765,12.78481 c -2.8722,2.57698 -7.17551,3.88048 -12.91742,3.88048 z m 76.06091,-1.66127 h -16.70032 v -44.19644 c 0,-6.58756 -2.90224,-9.88009 -8.74172,-9.88009 -4.92378,0 -9.00191,2.77213 -12.22939,8.34892 v 45.72761 H 226.35631 V 141.5745 h 16.70032 v 8.77424 c 1.92397,-2.86971 4.69611,-5.31658 8.25133,-7.37066 3.58776,-2.02406 7.40319,-3.06736 11.48132,-3.06736 5.99961,0 10.50057,1.59873 13.47034,4.79368 2.96728,3.19746 4.46844,7.73094 4.46844,13.57042 z m 43.2482,1.66127 c -9.45976,0 -17.0581,-3.22748 -22.73245,-9.71746 -5.70939,-6.49248 -8.54657,-15.00402 -8.54657,-25.57213 0,-10.01269 2.70708,-18.39413 8.18629,-25.11429 5.47921,-6.71766 12.75229,-10.07774 21.81926,-10.07774 9.10199,0 16.17742,3.32756 21.26633,9.94764 5.12143,6.62259 7.66588,15.26422 7.66588,25.92991 v 4.72863 h -42.13985 c 0.39031,4.82871 1.95649,8.74172 4.72863,11.80657 2.77212,3.06735 6.62008,4.59853 11.54636,4.59853 2.51193,0 5.0864,-0.58545 7.79348,-1.75885 2.67456,-1.14338 4.95881,-2.74211 6.78521,-4.79618 l 7.66589,10.01268 c -6.1322,6.68764 -14.12335,10.01269 -24.03846,10.01269 z m 11.51384,-41.2892 c -0.16512,-4.17571 -1.27348,-7.82851 -3.32755,-10.96092 -2.05408,-3.16243 -5.28406,-4.72863 -9.71996,-4.72863 -4.27328,0 -7.43571,1.5662 -9.52232,4.72863 -2.0891,3.13241 -3.22997,6.78521 -3.42512,10.96092 z m 44.22646,39.62793 H 363.01624 V 141.5745 h 16.70032 v 9.19706 c 1.92398,-3.06485 4.59853,-5.64183 7.99114,-7.72843 3.35758,-2.08911 6.81523,-3.13241 10.33794,-3.13241 v 16.4051 c -1.10836,-0.2602 -2.44688,-0.42282 -4.01058,-0.42282 -2.70708,0 -5.41416,0.7831 -8.15377,2.31427 -2.73959,1.53368 -4.79618,3.45766 -6.16473,5.77444 z m 48.79247,1.66127 c -11.12104,0 -19.73265,-3.19495 -25.86486,-9.58736 l 7.11046,-11.67646 c 2.12163,2.31427 4.89375,4.27328 8.34891,5.83698 3.42513,1.5662 6.78521,2.38183 10.14529,2.38183 3.1299,0 5.57679,-0.653 7.27308,-1.95651 1.72883,-1.306 2.57699,-3.0023 2.57699,-5.15395 0,-2.02156 -1.14338,-3.68533 -3.39261,-4.92378 -2.28426,-1.27348 -5.02386,-2.38183 -8.28386,-3.42513 -3.22998,-1.01078 -6.49249,-2.21921 -9.78502,-3.58776 -3.29503,-1.40358 -6.06715,-3.62028 -8.34891,-6.68763 -2.28425,-3.06486 -3.3926,-6.91281 -3.3926,-11.54387 0,-5.64433 2.15165,-10.40549 6.5225,-14.31849 4.37086,-3.88298 10.34044,-5.83949 17.93878,-5.83949 9.06696,0 16.86295,2.86971 23.35293,8.64414 l -6.68764,11.25114 c -1.75884,-1.9565 -4.10815,-3.58775 -7.07543,-4.95631 -2.96978,-1.33852 -6.06715,-1.98902 -9.32966,-1.98902 -2.57698,0 -4.72863,0.58545 -6.39241,1.79387 -1.66378,1.20593 -2.47941,2.73961 -2.47941,4.59854 0,1.85892 1.11086,3.35757 3.39261,4.566 2.28426,1.20593 5.05639,2.31428 8.34891,3.35758 3.29503,1.01328 6.55754,2.25173 9.85007,3.68783 3.29503,1.4336 6.06715,3.75038 8.35141,6.94533 2.28175,3.19746 3.3901,7.11046 3.3901,11.74152 0,6.09968 -2.31428,11.12354 -6.94533,15.00402 -4.63105,3.88048 -10.82831,5.83698 -18.6243,5.83698 z"
     style="fill:#ffffff;fill-rule:evenodd;stroke-width:25.01921082"
     id="path4"
     inkscape:connector-curvature="0" />
  <path
     d="m 27.496113,122.04701 c -10.08024,0 -18.3315758,-2.86971 -24.7239844,-8.60911 l 6.6526085,-12.78732 c 4.5685079,4.92628 10.3079149,7.37316 17.2557489,7.37316 4.270779,0 7.826009,-1.27348 10.698215,-3.81793 2.869703,-2.54195 4.303304,-6.55504 4.303304,-12.03424 v -8.18629 c -4.270779,6.85026 -9.915113,10.27289 -16.960522,10.27289 -7.598335,0 -13.600444,-2.96728 -18.0688748,-8.90434 C 2.2167021,79.41928 0,71.03784 0,60.20702 0,49.54384 2.2167021,41.19242 6.6526082,35.09524 11.121039,29.02809 17.123148,25.99325 24.721483,25.99325 c 7.43821,0 13.080043,3.3926 16.960522,10.1453 v -8.48152 h 16.700324 v 63.66639 c 0,5.83948 -0.880677,10.89336 -2.642029,15.10159 -1.761353,4.20823 -4.208231,7.37066 -7.305609,9.52231 -3.099881,2.12163 -6.359884,3.68783 -9.719964,4.66609 -3.392605,0.94572 -7.142985,1.4336 -11.218614,1.4336 z m 2.642029,-42.53016 c 2.249226,0 4.465929,-0.75055 6.685133,-2.2192 2.216701,-1.46613 3.847954,-3.32506 4.85873,-5.54426 V 48.66316 c -1.010776,-2.21921 -2.609503,-4.11066 -4.793681,-5.64433 -2.184176,-1.49865 -4.435906,-2.28176 -6.750182,-2.28176 -4.143182,0 -7.340637,1.76135 -9.589864,5.28406 -2.219204,3.52271 -3.327555,8.25134 -3.327555,14.18589 0,5.93707 1.108351,10.63317 3.327555,14.09082 2.249227,3.49018 5.446682,5.21901 9.589864,5.21901 z M 125.37377,94.8136 h -16.7954 v -6.68514 c -1.85893,2.607 -4.40338,4.63106 -7.60083,6.12971 -3.19496,1.46863 -6.555038,2.2192 -10.077745,2.2192 -5.641832,0 -10.503065,-1.98902 -14.578692,-5.96958 -4.078132,-3.97806 -6.132209,-9.42474 -6.132209,-16.275 0,-6.94784 2.021552,-12.32947 6.067159,-16.11237 4.010583,-3.81543 8.904336,-5.70688 14.643742,-5.70688 3.620281,0 7.045413,0.68551 10.240365,2.0866 3.19745,1.40358 5.67686,3.32755 7.43821,5.83948 v -8.7417 c 0,-3.62028 -1.11085,-6.48999 -3.29503,-8.57909 -2.15165,-2.08661 -5.18648,-3.09738 -9.099489,-3.09738 -6.099684,0 -11.611415,2.38183 -16.535193,7.20803 L 73.386349,35.74574 c 6.782706,-6.48998 15.394321,-9.75249 25.862357,-9.75249 7.893564,0 14.220924,1.92648 18.982074,5.77443 4.76366,3.84796 7.14299,9.85007 7.14299,18.00383 z M 97.292209,85.22373 c 5.219001,0 8.969381,-2.11913 11.286161,-6.39241 v -8.60911 c -2.41435,-4.37085 -6.16473,-6.55753 -11.286161,-6.55753 -3.129909,0 -5.67436,1.01078 -7.56581,3.0023 -1.891459,1.98903 -2.83718,4.59853 -2.83718,7.85854 0,3.22998 0.945721,5.83948 2.83718,7.76345 1.89145,1.95651 4.435901,2.93476 7.56581,2.93476 z M 229.09341,94.8136 H 212.39308 V 49.64141 c 0,-5.93706 -2.54445,-8.90434 -7.63085,-8.90434 -2.41436,0 -4.63356,0.84815 -6.68764,2.51194 -2.02155,1.66127 -3.6528,3.62027 -4.85873,5.83698 V 94.8136 h -16.6678 V 49.64141 c 0,-5.93706 -2.54445,-8.90434 -7.66338,-8.90434 -2.31678,0 -4.50096,0.84815 -6.59007,2.51194 -2.08659,1.66127 -3.71785,3.62027 -4.92377,5.83698 V 94.8136 H 140.67051 V 27.65703 h 16.70033 v 8.77424 c 1.46862,-2.60951 4.01057,-4.99134 7.63085,-7.17551 3.62028,-2.15165 7.37317,-3.26251 11.25365,-3.26251 9.00191,0 14.41607,3.91551 16.27499,11.67647 1.66378,-3.1299 4.33834,-5.86951 7.99114,-8.18628 3.6528,-2.31429 7.53329,-3.49019 11.61142,-3.49019 5.38163,0 9.52231,1.46863 12.49209,4.40338 2.96728,2.90474 4.46843,7.37316 4.46843,13.4053 z m 23.64566,-74.65733 c -2.70708,0 -5.02386,-0.97825 -7.01289,-2.90223 -1.98903,-1.9565 -2.99981,-4.30581 -2.99981,-7.11046 0,-2.7721199 1.01078,-5.1539499 2.99981,-7.1429799 1.98903,-1.98903 4.30581,-2.99980995504 7.01289,-2.99980995504 2.77212,0 5.15395,1.01077995504 7.07793,2.99980995504 1.9565,1.98903 2.93475,4.37086 2.93475,7.1429799 0,2.80465 -0.97825,5.15396 -2.93475,7.11046 -1.92398,1.92398 -4.30581,2.90223 -7.07793,2.90223 z m 8.34891,74.65733 H 244.39016 V 27.65703 h 16.69782 z m 69.66849,0 H 314.05615 V 50.61966 c 0,-6.59006 -2.90223,-9.88259 -8.74171,-9.88259 -4.92379,0 -9.00192,2.77213 -12.2294,8.34892 V 94.8136 H 276.38472 V 27.65703 h 16.70032 v 8.77424 c 1.92398,-2.86971 4.69611,-5.31659 8.25134,-7.37066 3.58775,-2.02156 7.40318,-3.06736 11.48131,-3.06736 5.99961,0 10.50057,1.59873 13.47035,4.79619 2.96727,3.19495 4.46843,7.72843 4.46843,13.56792 z m 39.4653,27.23341 c -10.08023,0 -18.33157,-2.86971 -24.72398,-8.60911 l 6.65511,-12.78732 c 4.56601,4.92628 10.30541,7.37316 17.25325,7.37316 4.27078,0 7.826,-1.27348 10.69821,-3.81793 2.8697,-2.54195 4.30331,-6.55504 4.30331,-12.03424 v -8.18629 c -4.27079,6.85026 -9.91512,10.27289 -16.95802,10.27289 -7.60084,0 -13.60295,-2.96728 -18.07138,-8.90434 -4.43591,-5.93455 -6.65261,-14.31599 -6.65261,-25.14681 0,-10.66318 2.2167,-19.0146 6.65261,-25.11178 4.46843,-6.06715 10.47054,-9.10199 18.07138,-9.10199 7.4357,0 13.07754,3.3926 16.95802,10.1453 v -8.48152 h 16.70032 v 63.66639 c 0,5.83948 -0.88068,10.89336 -2.64203,15.10159 -1.76135,4.20823 -4.20823,7.37066 -7.30561,9.52231 -3.09988,2.12163 -6.35988,3.68783 -9.71996,4.66609 -3.39261,0.94572 -7.14299,1.4336 -11.21862,1.4336 z m 2.64203,-42.53016 c 2.24923,0 4.46593,-0.75055 6.68514,-2.2192 2.2167,-1.46613 3.84795,-3.32506 4.85873,-5.54426 V 48.66316 c -1.01078,-2.21921 -2.60951,-4.11066 -4.79369,-5.64433 -2.18418,-1.49865 -4.4359,-2.28176 -6.75018,-2.28176 -4.14318,0 -7.34063,1.76135 -9.58986,5.28406 -2.2192,3.52271 -3.32756,8.25134 -3.32756,14.18589 0,5.93707 1.10836,10.63317 3.32756,14.09082 2.24923,3.49018 5.44668,5.21901 9.58986,5.21901 z"
     style="fill:#ffffff;fill-rule:evenodd;stroke-width:25.01921082"
     id="path6"
     inkscape:connector-curvature="0" />
</svg>
