<?xml version="1.0" encoding="UTF-8" standalone="no"?>
<svg
   xmlns:dc="http://purl.org/dc/elements/1.1/"
   xmlns:cc="http://creativecommons.org/ns#"
   xmlns:rdf="http://www.w3.org/1999/02/22-rdf-syntax-ns#"
   xmlns:svg="http://www.w3.org/2000/svg"
   xmlns="http://www.w3.org/2000/svg"
   xmlns:sodipodi="http://sodipodi.sourceforge.net/DTD/sodipodi-0.dtd"
   xmlns:inkscape="http://www.inkscape.org/namespaces/inkscape"
   version="1.1"
   width="456.89499"
   height="234.36501"
   id="svg44"
   viewBox="0 0 456.895 234.36501"
   sodipodi:docname="gp-triangle-white.svg"
   inkscape:version="0.92.1 r15371">
  <metadata
     id="metadata50">
    <rdf:RDF>
      <cc:Work
         rdf:about="">
        <dc:format>image/svg+xml</dc:format>
        <dc:type
           rdf:resource="http://purl.org/dc/dcmitype/StillImage" />
        <dc:title></dc:title>
      </cc:Work>
    </rdf:RDF>
  </metadata>
  <defs
     id="defs48" />
  <sodipodi:namedview
     pagecolor="#ffffff"
     bordercolor="#666666"
     borderopacity="1"
     objecttolerance="10"
     gridtolerance="10"
     guidetolerance="10"
     inkscape:pageopacity="0"
     inkscape:pageshadow="2"
     inkscape:window-width="2560"
     inkscape:window-height="1377"
     id="namedview46"
     showgrid="false"
     inkscape:zoom="1"
     inkscape:cx="9.1388996"
     inkscape:cy="4.6884998"
     inkscape:window-x="-8"
     inkscape:window-y="-8"
     inkscape:window-maximized="1"
     inkscape:current-layer="svg44" />
  <path
     d="m 36.445568,210.45072 c -7.242565,0 -12.885959,-3.39104 -16.96522,-10.1456 V 234.3657 H 2.7779016 V 141.61382 H 19.480348 v 8.48136 c 4.241931,-6.75205 9.917859,-10.1456 16.96522,-10.1456 7.602942,0 13.636744,3.13327 18.138947,9.39732 4.502203,6.26404 6.722021,14.843 6.722021,25.80445 0,10.83131 -2.219818,19.44531 -6.722021,25.77442 -4.502203,6.36165 -10.536005,9.52495 -18.138947,9.52495 z m -5.44819,-14.7454 c 4.176862,0 7.405235,-1.89198 9.690121,-5.67593 2.24985,-3.81649 3.393545,-8.77667 3.393545,-14.87804 0,-6.0338 -1.143695,-10.96145 -3.393545,-14.7454 -2.284886,-3.81649 -5.513259,-5.70846 -9.690121,-5.70846 -2.217316,0 -4.404601,0.74828 -6.589383,2.21731 -2.187285,1.50157 -3.816487,3.36101 -4.927647,5.57833 v 25.28391 c 1.11116,2.25235 2.740362,4.11179 4.927647,5.64589 2.184782,1.5316 4.372067,2.28239 6.589383,2.28239 z m 93.600272,13.08366 h -16.80256 v -6.68948 c -1.85944,2.61022 -4.40209,4.63234 -7.60043,6.1339 -3.198345,1.46904 -6.556853,2.21732 -10.080534,2.21732 -5.643394,0 -10.505973,-1.98958 -14.582732,-5.96873 -4.07926,-3.98166 -6.133907,-9.42985 -6.133907,-16.27951 0,-6.94976 2.022113,-12.33288 6.068839,-16.11683 4.011691,-3.81649 8.904301,-5.71097 14.6478,-5.71097 3.621283,0 7.047362,0.68572 10.243204,2.08968 3.19834,1.40147 5.67592,3.32848 7.43776,5.8386 v -8.74163 c 0,-3.62128 -1.10865,-6.49428 -3.29344,-8.58146 -2.15475,-2.08718 -5.187914,-3.09824 -9.102003,-3.09824 -6.101373,0 -11.614631,2.37999 -16.542278,7.21003 l -6.264043,-11.38689 c 6.787089,-6.49178 15.398584,-9.75519 25.872024,-9.75519 7.89575,0 14.22486,1.92451 18.98733,5.77603 4.76248,3.84902 7.14497,9.85029 7.14497,18.00881 z m -28.089345,-9.59251 c 5.220455,0 8.971875,-2.11972 11.286785,-6.39418 v -8.614 c -2.41252,-4.37207 -6.16393,-6.55685 -11.286785,-6.55685 -3.133272,0 -5.675928,1.01106 -7.570407,3.00063 -1.891976,1.99209 -2.837964,4.59981 -2.837964,7.86322 0,3.23087 0.945988,5.8411 2.837964,7.76561 1.894479,1.95704 4.437135,2.93557 7.570407,2.93557 z m 60.095275,9.59251 h -16.70495 v -67.17516 h 16.70495 v 9.19961 c 1.92451,-3.0657 4.5998,-5.6434 7.99335,-7.73058 3.3585,-2.08968 6.81712,-3.13327 10.3408,-3.13327 v 16.40964 c -1.10866,-0.26027 -2.44756,-0.42294 -4.01169,-0.42294 -2.70783,0 -5.41566,0.78332 -8.15602,2.31492 -2.74287,1.5341 -4.79751,3.45861 -6.16644,5.77603 z m 48.12026,1.66174 c -11.41943,0 -17.09536,-5.9362 -17.09536,-17.77857 v -36.44307 h -8.77666 v -14.61526 h 8.77666 v -18.33415 h 16.67242 v 18.33415 h 11.12412 v 14.61526 H 204.3009 v 32.52648 c 0,4.63484 1.6317,6.94976 4.86007,6.94976 2.31742,0 3.98166,-0.65318 5.02525,-1.92451 l 3.45862,12.78836 c -2.87301,2.57769 -7.1775,3.88155 -12.921,3.88155 z m 76.08197,-1.66174 h -16.70495 v -44.20867 c 0,-6.58938 -2.90303,-9.88282 -8.74413,-9.88282 -4.92515,0 -9.00441,2.77289 -12.23278,8.35122 v 45.74027 H 226.419 v -67.17516 h 16.70495 v 8.77667 c 1.92451,-2.8705 4.69741,-5.31806 8.25362,-7.3727 3.58875,-2.02462 7.40524,-3.06821 11.4845,-3.06821 6.00126,0 10.50347,1.59917 13.47407,4.79501 2.9681,3.19834 4.46967,7.73308 4.46967,13.57418 z m 43.26019,1.66174 c -9.46239,0 -17.06283,-3.22837 -22.73876,-9.72015 -5.71096,-6.49429 -8.54893,-15.00818 -8.54893,-25.57922 0,-10.01546 2.70783,-18.39922 8.18856,-25.12124 5.48072,-6.71952 12.75582,-10.08053 21.82529,-10.08053 9.10451,0 16.18191,3.32848 21.27222,9.95039 5.12285,6.62442 7.66801,15.26845 7.66801,25.9371 v 4.72994 h -42.15152 c 0.3904,4.83004 1.95704,8.74413 4.72994,11.80983 2.77289,3.06821 6.62191,4.59981 11.54956,4.59981 2.51262,0 5.08781,-0.58562 7.79564,-1.75934 2.6753,-1.1437 4.96018,-2.74287 6.78709,-4.79751 l 7.66801,10.01546 c -6.13391,6.68949 -14.12726,10.01546 -24.04511,10.01546 z m 11.51703,-41.30064 c -0.16518,-4.17686 -1.27384,-7.83068 -3.32848,-10.96395 -2.05465,-3.16331 -5.28552,-4.72994 -9.72266,-4.72994 -4.27446,0 -7.43777,1.56663 -9.52495,4.72994 -2.08968,3.13327 -3.23087,6.78709 -3.42607,10.96395 z m 44.2387,39.6389 h -16.70495 v -67.17516 h 16.70495 v 9.19961 c 1.92451,-3.0657 4.59981,-5.6434 7.99335,-7.73058 3.35851,-2.08968 6.81712,-3.13327 10.3408,-3.13327 v 16.40964 c -1.10865,-0.26027 -2.44755,-0.42294 -4.01169,-0.42294 -2.70782,0 -5.41565,0.78332 -8.15602,2.31492 -2.74036,1.5341 -4.79751,3.45861 -6.16644,5.77603 z m 48.80598,1.66174 c -11.12412,0 -19.73811,-3.19584 -25.87202,-9.59002 l 7.11243,-11.6797 c 2.12221,2.31492 4.89511,4.27447 8.35122,5.8386 3.42608,1.56664 6.78709,2.38249 10.1481,2.38249 3.13077,0 5.57833,-0.65318 7.2751,-1.95704 1.72931,-1.30637 2.57769,-3.00314 2.57769,-5.15539 0,-2.02211 -1.14369,-3.68635 -3.39354,-4.92514 -2.28489,-1.27383 -5.02525,-2.38249 -8.28616,-3.42608 -3.23087,-1.01106 -6.49428,-2.21982 -9.78772,-3.58875 -3.29594,-1.40397 -6.06884,-3.62128 -8.35122,-6.68949 -2.28489,-3.0657 -3.39355,-6.91472 -3.39355,-11.54706 0,-5.6459 2.15225,-10.40837 6.52432,-14.32246 4.37206,-3.88406 10.3433,-5.8411 17.94374,-5.8411 9.06947,0 16.86762,2.8705 23.3594,8.64653 l -6.68949,11.25426 c -1.75934,-1.95705 -4.10929,-3.58875 -7.07739,-4.95768 -2.9706,-1.3389 -6.06884,-1.98958 -9.33225,-1.98958 -2.57769,0 -4.72994,0.58561 -6.39418,1.79438 -1.66424,1.20625 -2.48009,2.74036 -2.48009,4.5998 0,1.85944 1.11116,3.35851 3.39355,4.56727 2.28488,1.20626 5.05778,2.31492 8.35122,3.35851 3.29594,1.01356 6.55935,2.25235 9.85279,3.68885 3.29594,1.434 6.06884,3.75142 8.35373,6.94726 2.28238,3.19834 3.39104,7.11243 3.39104,11.74477 0,6.10137 -2.31492,11.12662 -6.94726,15.00817 -4.63234,3.88156 -10.83131,5.8386 -18.62946,5.8386 z"
     style="fill:#ffffff;fill-rule:evenodd;stroke-width:25.02614021"
     id="path38"
     inkscape:connector-curvature="0" />
  <path
     d="m 431.59581,53.59188 -25.29642,41.41075 h 23.99506 2.60522 23.99507 z m 0,20.18108 -6.95977,11.37688 h 6.61191 0.69823 6.6094 z"
     style="fill:#0293fe;fill-rule:evenodd;stroke-width:25.02614021"
     id="path40"
     inkscape:connector-curvature="0" />
  <path
     d="m 27.503728,122.08092 c -10.083032,0 -18.3366528,-2.8705 -24.7308316,-8.6115 l 6.6544507,-12.79086 c 4.5697729,4.92765 10.3107699,7.3752 17.2605289,7.3752 4.271962,0 7.828177,-1.27383 10.701178,-3.81899 2.870498,-2.54265 4.304496,-6.55684 4.304496,-12.03757 v -8.18855 c -4.271962,6.85216 -9.917859,10.27573 -16.965221,10.27573 -7.600438,0 -13.60421,-2.9681 -18.0738783,-8.9068 C 2.217316,79.44138 0,71.05762 0,60.2238 0,49.55766 2.217316,41.20394 6.6544507,35.10507 11.124119,29.03623 17.127891,26.00056 24.728329,26.00056 c 7.440272,0 13.083667,3.39354 16.965221,10.1481 V 27.6648 h 16.704949 v 63.68402 c 0,5.8411 -0.88092,10.89638 -2.642761,15.10577 -1.76184,4.2094 -4.209397,7.3727 -7.307633,9.52495 -3.100739,2.12222 -6.361645,3.68886 -9.722655,4.66738 -3.393545,0.94599 -7.144963,1.434 -11.221722,1.434 z m 2.642761,-42.54194 c 2.24985,0 4.467166,-0.75078 6.686985,-2.21982 2.217316,-1.46653 3.84902,-3.32597 4.860076,-5.54579 V 48.67674 c -1.011056,-2.21982 -2.610226,-4.11179 -4.795009,-5.64589 -2.184782,-1.49907 -4.437134,-2.28239 -6.752052,-2.28239 -4.144329,0 -7.34267,1.76184 -9.59252,5.28552 -2.219819,3.52368 -3.328477,8.25362 -3.328477,14.18982 0,5.93871 1.108658,10.63611 3.328477,14.09473 2.24985,3.49114 5.448191,5.22045 9.59252,5.22045 z m 95.262001,15.30098 h -16.80005 v -6.68698 c -1.85944,2.60772 -4.4046,4.63234 -7.60294,6.1314 -3.195835,1.46904 -6.556846,2.21982 -10.080527,2.21982 -5.643394,0 -10.505973,-1.98958 -14.582732,-5.97124 -4.07926,-3.97915 -6.133907,-9.42734 -6.133907,-16.2795 0,-6.94976 2.022113,-12.33288 6.068839,-16.11684 4.011691,-3.81648 8.906804,-5.70846 14.6478,-5.70846 3.621283,0 7.047362,0.68572 10.243197,2.08718 3.19834,1.40397 5.67843,3.32848 7.44027,5.8411 v -8.74413 c 0,-3.62128 -1.11116,-6.49178 -3.29594,-8.58146 -2.15225,-2.08718 -5.18792,-3.09824 -9.102006,-3.09824 -6.101373,0 -11.614631,2.38249 -16.539776,7.21003 L 73.406675,35.75575 c 6.784587,-6.49178 15.398584,-9.75519 25.869522,-9.75519 7.895743,0 14.224853,1.92701 18.987333,5.77603 4.76498,3.84902 7.14496,9.85279 7.14496,18.00881 z M 97.319152,85.24744 c 5.220458,0 8.971868,-2.11971 11.289288,-6.39418 v -8.61149 c -2.41502,-4.37207 -6.16644,-6.55935 -11.289288,-6.55935 -3.13077,0 -5.675928,1.01105 -7.567905,3.00313 -1.891976,1.98958 -2.837964,4.59981 -2.837964,7.86071 0,3.23088 0.945988,5.84111 2.837964,7.76562 1.891977,1.95704 4.437135,2.93556 7.567905,2.93556 z M 229.15686,94.83996 H 212.45191 V 49.65527 c 0,-5.93871 -2.54516,-8.90681 -7.63297,-8.90681 -2.41502,0 -4.63484,0.84839 -6.68949,2.51263 -2.02211,1.66173 -3.65382,3.62128 -4.86008,5.83859 V 94.83996 H 176.59696 V 49.65527 c 0,-5.93871 -2.54516,-8.90681 -7.66551,-8.90681 -2.31742,0 -4.5022,0.84839 -6.59188,2.51263 -2.08718,1.66173 -3.71889,3.62128 -4.92515,5.83859 V 94.83996 H 140.70947 V 27.6648 h 16.70495 v 8.77666 c 1.46904,-2.61022 4.01169,-4.99271 7.63298,-7.17749 3.62128,-2.15225 7.3752,-3.26341 11.25675,-3.26341 9.00441,0 14.42007,3.91659 16.27951,11.6797 1.66424,-3.13077 4.33953,-5.87114 7.99335,-8.18856 3.65381,-2.31491 7.53537,-3.49114 11.61463,-3.49114 5.38312,0 9.52495,1.46903 12.49555,4.4046 2.9681,2.90553 4.46967,7.3752 4.46967,13.409 z m 23.65221,-74.678 c -2.70783,0 -5.02525,-0.97852 -7.01483,-2.90303 -1.98958,-1.95705 -3.00064,-4.307 -3.00064,-7.11243 0,-2.7728999 1.01106,-5.1553899 3.00064,-7.1449699 1.98958,-1.98957 4.307,-3.00062995504 7.01483,-3.00062995504 2.77289,0 5.15538,1.01105995504 7.07989,3.00062995504 1.95704,1.98958 2.93557,4.37207 2.93557,7.1449699 0,2.80543 -0.97853,5.15538 -2.93557,7.11243 -1.92451,1.92451 -4.307,2.90303 -7.07989,2.90303 z m 8.35122,74.678 H 244.45784 V 27.6648 h 16.70245 z m 69.68779,0 H 314.14313 V 50.63379 c 0,-6.59189 -2.90303,-9.88533 -8.74413,-9.88533 -4.92515,0 -9.00441,2.7729 -12.23278,8.35122 V 94.83996 H 276.46127 V 27.6648 h 16.70495 v 8.77666 c 1.92451,-2.8705 4.69741,-5.31805 8.25362,-7.3727 3.58875,-2.02211 7.40524,-3.0682 11.4845,-3.0682 6.00127,0 10.50347,1.59917 13.47407,4.79751 2.9681,3.19584 4.46967,7.73057 4.46967,13.57167 z m 39.47623,27.24096 c -10.08303,0 -18.33665,-2.8705 -24.73083,-8.6115 l 6.65695,-12.79086 c 4.56728,4.92765 10.30827,7.3752 17.25803,7.3752 4.27196,0 7.82818,-1.27383 10.70118,-3.81899 2.8705,-2.54265 4.30449,-6.55684 4.30449,-12.03757 v -8.18855 c -4.27196,6.85216 -9.91785,10.27573 -16.96271,10.27573 -7.60294,0 -13.60672,-2.9681 -18.07638,-8.9068 -4.43714,-5.9362 -6.65446,-14.31996 -6.65446,-25.15378 0,-10.66614 2.21732,-19.01986 6.65446,-25.11873 4.46966,-6.06884 10.47344,-9.10451 18.07638,-9.10451 7.43777,0 13.08116,3.39354 16.96271,10.1481 V 27.6648 h 16.70495 v 63.68402 c 0,5.8411 -0.88092,10.89638 -2.64276,15.10577 -1.76184,4.2094 -4.20939,7.3727 -7.30763,9.52495 -3.10074,2.12222 -6.36164,3.68886 -9.72266,4.66738 -3.39354,0.94599 -7.14496,1.434 -11.22172,1.434 z m 2.64276,-42.54194 c 2.24985,0 4.46717,-0.75078 6.68699,-2.21982 2.21731,-1.46653 3.84902,-3.32597 4.86007,-5.54579 V 48.67674 c -1.01105,-2.21982 -2.61022,-4.11179 -4.795,-5.64589 -2.18479,-1.49907 -4.43714,-2.28239 -6.75206,-2.28239 -4.14433,0 -7.34267,1.76184 -9.59252,5.28552 -2.21981,3.52368 -3.32847,8.25362 -3.32847,14.18982 0,5.93871 1.10866,10.63611 3.32847,14.09473 2.24985,3.49114 5.44819,5.22045 9.59252,5.22045 z"
     style="fill:#ffffff;fill-rule:evenodd;stroke-width:25.02614021"
     id="path42"
     inkscape:connector-curvature="0" />
</svg>
