<?xml version="1.0" encoding="UTF-8" standalone="no"?>
<svg
   xmlns:dc="http://purl.org/dc/elements/1.1/"
   xmlns:cc="http://creativecommons.org/ns#"
   xmlns:rdf="http://www.w3.org/1999/02/22-rdf-syntax-ns#"
   xmlns:svg="http://www.w3.org/2000/svg"
   xmlns="http://www.w3.org/2000/svg"
   xmlns:sodipodi="http://sodipodi.sourceforge.net/DTD/sodipodi-0.dtd"
   xmlns:inkscape="http://www.inkscape.org/namespaces/inkscape"
   version="1.1"
   width="4.612"
   height="2.6447001"
   id="svg3870"
   viewBox="0 0 4.612 2.6447001"
   sodipodi:docname="grass-back.svg"
   inkscape:version="0.92.1 r15371">
  <metadata
     id="metadata3876">
    <rdf:RDF>
      <cc:Work
         rdf:about="">
        <dc:format>image/svg+xml</dc:format>
        <dc:type
           rdf:resource="http://purl.org/dc/dcmitype/StillImage" />
        <dc:title></dc:title>
      </cc:Work>
    </rdf:RDF>
  </metadata>
  <defs
     id="defs3874" />
  <sodipodi:namedview
     pagecolor="#ffffff"
     bordercolor="#666666"
     borderopacity="1"
     objecttolerance="10"
     gridtolerance="10"
     guidetolerance="10"
     inkscape:pageopacity="0"
     inkscape:pageshadow="2"
     inkscape:window-width="640"
     inkscape:window-height="480"
     id="namedview3872"
     showgrid="false"
     inkscape:zoom="61.578491"
     inkscape:cx="2.306"
     inkscape:cy="1.32235"
     inkscape:window-x="0"
     inkscape:window-y="0"
     inkscape:window-maximized="0"
     inkscape:current-layer="svg3870" />
  <g
     id="Layer1000">
    <path
       d="m 2.9743,-5e-4 c 0.9043,0 1.6376,0.7244 1.6376,1.618 0,0.3903 -0.1399,0.7484 -0.3729,1.0279 H 1.7096 C 1.4766,2.3659 1.3367,2.0078 1.3367,1.6175 1.3367,0.7239 2.07,-5e-4 2.9743,-5e-4 Z"
       style="fill:#86c441;fill-rule:evenodd"
       id="path3861"
       inkscape:connector-curvature="0" />
    <path
       d="M 1.7092,2.6456 H 0.124 c 0,0 -0.2666,-0.3363 -0.0175,-0.7316 0.3318,-0.5266 0.9723,-0.2446 1.0982,0.0765 0,0 0.3408,-0.1464 0.5241,0.1462 0.1834,0.2926 0.0021,0.4717 -0.0196,0.5089 z"
       style="fill:#5a903f;fill-rule:evenodd"
       id="path3863"
       inkscape:connector-curvature="0" />
    <path
       d="M 2.8447,0.4138 A 0.7008,0.8579 43.938 0 0 1.7444,0.7197 0.7008,0.8579 43.938 1 0 2.8447,0.4138 Z"
       style="fill:#add475;fill-rule:evenodd"
       id="path3865"
       inkscape:connector-curvature="0" />
    <path
       d="m 1.4181,2.0892 c -0.044,0 -0.0797,0.0314 -0.0797,0.0703 0,0.0389 0.0357,0.0703 0.0797,0.0703 0.0439,0 0.0796,-0.0314 0.0796,-0.0703 0,-0.0389 -0.0357,-0.0703 -0.0796,-0.0703 z M 0.5032,1.7431 c -0.1519,0 -0.2751,0.1158 -0.2751,0.2586 0,0.1428 0.1232,0.2586 0.2751,0.2586 0.1519,0 0.275,-0.1158 0.275,-0.2586 0,-0.1428 -0.1231,-0.2586 -0.275,-0.2586 z"
       style="fill:#6daa44;fill-rule:evenodd"
       id="path3867"
       inkscape:connector-curvature="0" />
  </g>
</svg>
