<?xml version="1.0" encoding="UTF-8" standalone="no"?>
<svg
   xmlns:dc="http://purl.org/dc/elements/1.1/"
   xmlns:cc="http://creativecommons.org/ns#"
   xmlns:rdf="http://www.w3.org/1999/02/22-rdf-syntax-ns#"
   xmlns:svg="http://www.w3.org/2000/svg"
   xmlns="http://www.w3.org/2000/svg"
   xmlns:sodipodi="http://sodipodi.sourceforge.net/DTD/sodipodi-0.dtd"
   xmlns:inkscape="http://www.inkscape.org/namespaces/inkscape"
   version="1.1"
   width="5.8818998"
   height="5.4113002"
   id="svg3950"
   viewBox="0 0 5.8818998 5.4113002"
   sodipodi:docname="grass-rg-front.svg"
   inkscape:version="0.92.1 r15371">
  <metadata
     id="metadata3956">
    <rdf:RDF>
      <cc:Work
         rdf:about="">
        <dc:format>image/svg+xml</dc:format>
        <dc:type
           rdf:resource="http://purl.org/dc/dcmitype/StillImage" />
        <dc:title></dc:title>
      </cc:Work>
    </rdf:RDF>
  </metadata>
  <defs
     id="defs3954" />
  <sodipodi:namedview
     pagecolor="#ffffff"
     bordercolor="#666666"
     borderopacity="1"
     objecttolerance="10"
     gridtolerance="10"
     guidetolerance="10"
     inkscape:pageopacity="0"
     inkscape:pageshadow="2"
     inkscape:window-width="640"
     inkscape:window-height="480"
     id="namedview3952"
     showgrid="false"
     inkscape:zoom="43.612439"
     inkscape:cx="2.9409499"
     inkscape:cy="2.7056501"
     inkscape:window-x="0"
     inkscape:window-y="0"
     inkscape:window-maximized="0"
     inkscape:current-layer="svg3950" />
  <g
     id="Layer1000">
    <path
       d="m 1.3283,3.5218 c 0.176,0 0.341,0.0482 0.4822,0.1321 0.0122,-0.6565 0.5476,-1.1844 1.2067,-1.1844 0.6162,0 1.1245,0.4612 1.1982,1.0576 C 4.2812,3.4809 4.3608,3.454 4.4473,3.454 c 0.2231,0 0.4039,0.1809 0.4039,0.4045 0,0.0646 -0.0153,0.1256 -0.0422,0.1797 0.1026,-0.055 0.2197,-0.0861 0.3441,-0.0861 0.4028,0 0.7294,0.3265 0.7294,0.7296 0,0.4028 -0.3266,0.7294 -0.7294,0.7294 v 2e-4 H 1.3283 c -0.5218,0 -0.9448,-0.4229 -0.9448,-0.9447 0,-0.5219 0.423,-0.9448 0.9448,-0.9448 z"
       style="fill:#5a903f;fill-rule:evenodd"
       id="path3878"
       inkscape:connector-curvature="0" />
    <path
       d="m 5.2407,4.2483 c 0.2134,0 0.3866,0.1514 0.3866,0.3382 0,0.1868 -0.1732,0.3381 -0.3866,0.3381 -0.2135,0 -0.3867,-0.1513 -0.3867,-0.3381 0,-0.1868 0.1732,-0.3382 0.3867,-0.3382 z M 3.1924,2.9475 c 0.481,0 0.8708,0.3625 0.8708,0.8098 0,0.0887 -0.0156,0.1741 -0.0437,0.2537 l 0.0131,-3e-4 c 0.161,0 0.2914,0.1214 0.2914,0.271 0,0.1497 -0.1304,0.271 -0.2914,0.271 C 3.9061,4.5527 3.7984,4.4779 3.7582,4.373 3.6062,4.494 3.4084,4.5672 3.1924,4.5672 2.7113,4.5672 2.3216,4.2046 2.3216,3.7573 2.3216,3.31 2.7113,2.9475 3.1924,2.9475 Z"
       style="fill:#6daa44;fill-rule:evenodd"
       id="path3880"
       inkscape:connector-curvature="0" />
    <g
       id="Layer1001">
      <path
         d="M 2.5823,2.7032 C 2.563,2.7914 2.6188,2.8787 2.707,2.8981 2.7952,2.9174 2.8825,2.8616 2.9019,2.7734 Z"
         style="fill:#f08572;fill-rule:evenodd"
         id="path3882"
         inkscape:connector-curvature="0" />
      <path
         d="M 2.5823,2.7032 C 2.6017,2.615 2.689,2.5592 2.7772,2.5785 2.8654,2.5979 2.9212,2.6852 2.9019,2.7734 Z"
         style="fill:#de7d62;fill-rule:evenodd"
         id="path3884"
         inkscape:connector-curvature="0" />
    </g>
    <path
       d="M 1.6119,4.0859 V 3.6443 L 1.3363,3.4086 1.0765,3.4808 1.1195,3.422 1.2852,3.3764 0.7206,2.9053 0.8542,2.8651 1.1407,3.1034 1.1728,2.9027 1.213,2.9159 1.1837,3.1462 1.6173,3.4943 V 2.5144 L 1.422,2.1502 1.1381,2.1717 1.1327,2.1316 1.4111,2.102 0.7713,0.8406 0.9231,0.868 1.098,1.2213 1.1757,1.1009 1.2078,1.1221 1.1275,1.2801 1.6173,2.2789 V 1.1682 L 1.7271,1.1571 V 1.655 L 1.9118,1.4757 1.9895,1.548 1.9012,1.6443 2.1582,1.6764 2.1618,1.7125 1.8315,1.6899 1.7271,1.7995 V 3.1089 L 1.952,2.9268 2.0056,2.5305 2.0403,2.5411 2.0082,2.8731 2.6775,2.3191 2.7524,2.4046 1.7217,3.2454 l -5e-4,0.841 z"
       style="fill:#5a903f;fill-rule:evenodd"
       id="path3887"
       inkscape:connector-curvature="0" />
    <g
       id="Layer1002">
      <path
         d="M 2.0232,2.5578 C 2.0938,2.563 2.1554,2.5099 2.1605,2.4393 2.1657,2.3686 2.1126,2.3071 2.042,2.3019 Z"
         style="fill:#f08572;fill-rule:evenodd"
         id="path3889"
         inkscape:connector-curvature="0" />
      <path
         d="M 2.0232,2.5578 C 1.9525,2.5526 1.8994,2.4911 1.9046,2.4205 1.9098,2.3498 1.9713,2.2967 2.042,2.3019 Z"
         style="fill:#de7d62;fill-rule:evenodd"
         id="path3891"
         inkscape:connector-curvature="0" />
    </g>
    <g
       id="Layer1003">
      <path
         d="M 2.6397,2.4385 3.4455,1.6702 c 0,0 -0.755,0.0402 -0.8058,0.7683 z"
         style="fill:#5a903f;fill-rule:evenodd"
         id="path3894"
         inkscape:connector-curvature="0" />
      <path
         d="M 3.4453,1.6702 2.6394,2.4385 c 0,0 0.7551,-0.0401 0.8059,-0.7683 z"
         style="fill:#6daa44;fill-rule:evenodd"
         id="path3896"
         inkscape:connector-curvature="0" />
    </g>
    <g
       id="Layer1004">
      <path
         d="M 1.882,1.5897 2.6879,0.8214 c 0,0 -0.7551,0.0402 -0.8059,0.7683 z"
         style="fill:#5a903f;fill-rule:evenodd"
         id="path3899"
         inkscape:connector-curvature="0" />
      <path
         d="M 2.6876,0.8214 1.8818,1.5897 c 0,0 0.755,-0.0402 0.8058,-0.7683 z"
         style="fill:#6daa44;fill-rule:evenodd"
         id="path3901"
         inkscape:connector-curvature="0" />
    </g>
    <g
       id="Layer1005">
      <path
         d="M 1.6672,1.2855 1.6655,0.1722 c 0,0 -0.4911,0.5749 0.0017,1.1133 z"
         style="fill:#5a903f;fill-rule:evenodd"
         id="path3904"
         inkscape:connector-curvature="0" />
      <path
         d="m 1.6653,0.1723 0.0018,1.1134 c 0,0 0.491,-0.575 -0.0018,-1.1134 z"
         style="fill:#6daa44;fill-rule:evenodd"
         id="path3906"
         inkscape:connector-curvature="0" />
    </g>
    <g
       id="Layer1006">
      <path
         d="M 0.936,0.9753 0.399,0 c 0,0 -0.154,0.7402 0.537,0.9753 z"
         style="fill:#5a903f;fill-rule:evenodd"
         id="path3909"
         inkscape:connector-curvature="0" />
      <path
         d="m 0.399,2e-4 0.5369,0.9754 c 0,0 0.1541,-0.7403 -0.5369,-0.9754 z"
         style="fill:#6daa44;fill-rule:evenodd"
         id="path3911"
         inkscape:connector-curvature="0" />
    </g>
    <g
       id="Layer1007">
      <path
         d="M 1.3553,1.8162 0.2888,1.4965 c 0,0 0.4087,0.6362 1.0665,0.3197 z"
         style="fill:#5a903f;fill-rule:evenodd"
         id="path3914"
         inkscape:connector-curvature="0" />
      <path
         d="m 0.2889,1.4968 1.0665,0.3197 c 0,0 -0.4087,-0.6362 -1.0665,-0.3197 z"
         style="fill:#6daa44;fill-rule:evenodd"
         id="path3916"
         inkscape:connector-curvature="0" />
    </g>
    <g
       id="Layer1008">
      <path
         d="M 0.8734,2.941 -6e-4,2.2512 c 0,0 0.146,0.742 0.874,0.6898 z"
         style="fill:#5a903f;fill-rule:evenodd"
         id="path3919"
         inkscape:connector-curvature="0" />
      <path
         d="m -6e-4,2.2515 0.874,0.6898 c 0,0 -0.1459,-0.742 -0.874,-0.6898 z"
         style="fill:#6daa44;fill-rule:evenodd"
         id="path3921"
         inkscape:connector-curvature="0" />
    </g>
    <g
       id="Layer1009">
      <path
         d="M 2.1479,1.6941 C 2.1333,1.7634 2.1777,1.8315 2.247,1.8461 2.3163,1.8607 2.3844,1.8164 2.3991,1.747 Z"
         style="fill:#f08572;fill-rule:evenodd"
         id="path3924"
         inkscape:connector-curvature="0" />
      <path
         d="M 2.1479,1.6941 C 2.1626,1.6247 2.2307,1.5804 2.3,1.595 2.3693,1.6096 2.4137,1.6777 2.3991,1.747 Z"
         style="fill:#de7d62;fill-rule:evenodd"
         id="path3926"
         inkscape:connector-curvature="0" />
    </g>
    <g
       id="Layer1010">
      <path
         d="M 1.2067,2.9246 C 1.2774,2.9298 1.3389,2.8767 1.3441,2.8061 1.3493,2.7354 1.2962,2.6739 1.2255,2.6687 Z"
         style="fill:#f08572;fill-rule:evenodd"
         id="path3929"
         inkscape:connector-curvature="0" />
      <path
         d="M 1.2067,2.9246 C 1.1361,2.9194 1.083,2.8579 1.0882,2.7872 1.0933,2.7166 1.1549,2.6635 1.2255,2.6687 Z"
         style="fill:#de7d62;fill-rule:evenodd"
         id="path3931"
         inkscape:connector-curvature="0" />
    </g>
    <g
       id="Layer1011">
      <path
         d="M 0.8884,3.4969 C 0.9069,3.5653 0.9773,3.6058 1.0457,3.5874 1.1141,3.5689 1.1547,3.4985 1.1362,3.4301 Z"
         style="fill:#f08572;fill-rule:evenodd"
         id="path3934"
         inkscape:connector-curvature="0" />
      <path
         d="M 0.8884,3.4969 C 0.87,3.4285 0.9105,3.358 0.9789,3.3396 1.0473,3.3211 1.1178,3.3617 1.1362,3.4301 Z"
         style="fill:#de7d62;fill-rule:evenodd"
         id="path3936"
         inkscape:connector-curvature="0" />
    </g>
    <g
       id="Layer1012">
      <path
         d="M 1.1988,2.1303 C 1.2182,2.2185 1.1623,2.3057 1.0741,2.3251 0.9859,2.3445 0.8987,2.2886 0.8793,2.2004 Z"
         style="fill:#f08572;fill-rule:evenodd"
         id="path3939"
         inkscape:connector-curvature="0" />
      <path
         d="M 1.1988,2.1303 C 1.1795,2.042 1.0922,1.9862 1.004,2.0056 0.9158,2.0249 0.8599,2.1122 0.8793,2.2004 Z"
         style="fill:#de7d62;fill-rule:evenodd"
         id="path3941"
         inkscape:connector-curvature="0" />
    </g>
    <g
       id="Layer1013">
      <path
         d="M 1.1852,1.1151 C 1.2485,1.1468 1.3256,1.1211 1.3573,1.0577 1.389,0.9944 1.3633,0.9173 1.3,0.8856 Z"
         style="fill:#f08572;fill-rule:evenodd"
         id="path3944"
         inkscape:connector-curvature="0" />
      <path
         d="M 1.1852,1.1151 C 1.1218,1.0834 1.0961,1.0063 1.1278,0.9429 1.1595,0.8796 1.2366,0.8539 1.3,0.8856 Z"
         style="fill:#de7d62;fill-rule:evenodd"
         id="path3946"
         inkscape:connector-curvature="0" />
    </g>
  </g>
</svg>
