<?xml version="1.0" encoding="UTF-8" standalone="no"?>
<svg
   xmlns:dc="http://purl.org/dc/elements/1.1/"
   xmlns:cc="http://creativecommons.org/ns#"
   xmlns:rdf="http://www.w3.org/1999/02/22-rdf-syntax-ns#"
   xmlns:svg="http://www.w3.org/2000/svg"
   xmlns="http://www.w3.org/2000/svg"
   xmlns:sodipodi="http://sodipodi.sourceforge.net/DTD/sodipodi-0.dtd"
   xmlns:inkscape="http://www.inkscape.org/namespaces/inkscape"
   version="1.1"
   width="6.1880002"
   height="4.4731002"
   id="svg3853"
   viewBox="0 0 6.1880002 4.4731002"
   sodipodi:docname="grass-lf-front.svg"
   inkscape:version="0.92.1 r15371">
  <metadata
     id="metadata3859">
    <rdf:RDF>
      <cc:Work
         rdf:about="">
        <dc:format>image/svg+xml</dc:format>
        <dc:type
           rdf:resource="http://purl.org/dc/dcmitype/StillImage" />
        <dc:title></dc:title>
      </cc:Work>
    </rdf:RDF>
  </metadata>
  <defs
     id="defs3857" />
  <sodipodi:namedview
     pagecolor="#ffffff"
     bordercolor="#666666"
     borderopacity="1"
     objecttolerance="10"
     gridtolerance="10"
     guidetolerance="10"
     inkscape:pageopacity="0"
     inkscape:pageshadow="2"
     inkscape:window-width="640"
     inkscape:window-height="480"
     id="namedview3855"
     showgrid="false"
     inkscape:zoom="45.89528"
     inkscape:cx="3.0940001"
     inkscape:cy="2.2365501"
     inkscape:window-x="0"
     inkscape:window-y="0"
     inkscape:window-maximized="0"
     inkscape:current-layer="svg3853" />
  <g
     id="Layer1000">
    <path
       d="m 3.9909,0.9221 c 1.2135,0 2.1974,0.972 2.1974,2.1711 0,0.5238 -0.1876,1.0043 -0.5003,1.3793 H 2.2938 C 1.9811,4.0975 1.7935,3.617 1.7935,3.0932 c 0,-1.1991 0.9839,-2.1711 2.1974,-2.1711 z"
       style="fill:#86c441;fill-rule:evenodd"
       id="path3777"
       inkscape:connector-curvature="0" />
    <path
       d="M 0.1349,4.4728 H 2.262 c 0,0 0.3578,-0.4513 0.0236,-0.9817 C 1.8403,2.7845 0.9808,3.1629 0.8118,3.5938 c 0,0 -0.4572,-0.1965 -0.7032,0.1961 -0.2461,0.3926 -0.0029,0.633 0.0263,0.6829 z"
       style="fill:#5a903f;fill-rule:evenodd"
       id="path3779"
       inkscape:connector-curvature="0" />
    <g
       id="Layer1001">
      <path
         d="M 1.6958,2.9588 C 1.717,3.0553 1.6559,3.1508 1.5593,3.172 1.4628,3.1932 1.3673,3.1321 1.3461,3.0356 Z"
         style="fill:#f08572;fill-rule:evenodd"
         id="path3781"
         inkscape:connector-curvature="0" />
      <path
         d="M 1.6958,2.9588 C 1.6746,2.8623 1.5791,2.8011 1.4826,2.8223 1.386,2.8435 1.3249,2.939 1.3461,3.0356 Z"
         style="fill:#de7d62;fill-rule:evenodd"
         id="path3783"
         inkscape:connector-curvature="0" />
    </g>
    <path
       d="M 2.7578,4.4719 V 3.9886 L 3.0594,3.7307 3.3437,3.8098 3.2967,3.7454 3.1153,3.6955 3.7332,3.1799 3.587,3.136 3.2734,3.3968 3.2383,3.1771 3.1944,3.1915 3.2264,3.4435 2.7519,3.8245 V 2.7522 L 2.9656,2.3536 3.2763,2.3771 3.2822,2.3332 2.9775,2.3009 3.6777,0.9204 3.5116,0.9505 3.3202,1.3371 3.2352,1.2053 3.2,1.2285 3.2879,1.4014 2.7519,2.4945 V 1.279 L 2.6317,1.2668 V 1.8116 L 2.4296,1.6155 2.3445,1.6946 2.4412,1.8 2.16,1.8351 2.156,1.8746 2.5174,1.8499 2.6317,1.9698 V 3.4027 L 2.3856,3.2034 2.327,2.7697 2.289,2.7814 2.3241,3.1448 1.5917,2.5384 1.5097,2.632 l 1.1279,0.9201 6e-4,0.9204 z"
       style="fill:#5a903f;fill-rule:evenodd"
       id="path3786"
       inkscape:connector-curvature="0" />
    <g
       id="Layer1002">
      <path
         d="M 2.3077,2.7997 C 2.2304,2.8054 2.1631,2.7473 2.1574,2.6699 2.1517,2.5926 2.2098,2.5253 2.2871,2.5196 Z"
         style="fill:#f08572;fill-rule:evenodd"
         id="path3788"
         inkscape:connector-curvature="0" />
      <path
         d="M 2.3077,2.7997 C 2.385,2.794 2.4432,2.7267 2.4375,2.6494 2.4318,2.572 2.3645,2.5139 2.2871,2.5196 Z"
         style="fill:#de7d62;fill-rule:evenodd"
         id="path3790"
         inkscape:connector-curvature="0" />
    </g>
    <g
       id="Layer1003">
      <path
         d="M 1.633,2.6691 0.7512,1.8283 c 0,0 0.8263,0.044 0.8818,0.8408 z"
         style="fill:#5a903f;fill-rule:evenodd"
         id="path3793"
         inkscape:connector-curvature="0" />
      <path
         d="m 0.7515,1.8283 0.8818,0.8408 c 0,0 -0.8263,-0.0439 -0.8818,-0.8408 z"
         style="fill:#6daa44;fill-rule:evenodd"
         id="path3795"
         inkscape:connector-curvature="0" />
    </g>
    <g
       id="Layer1004">
      <path
         d="M 2.4622,1.7402 1.5803,0.8994 c 0,0 0.8263,0.044 0.8819,0.8408 z"
         style="fill:#5a903f;fill-rule:evenodd"
         id="path3798"
         inkscape:connector-curvature="0" />
      <path
         d="m 1.5806,0.8994 0.8819,0.8408 c 0,0 -0.8263,-0.0439 -0.8819,-0.8408 z"
         style="fill:#6daa44;fill-rule:evenodd"
         id="path3800"
         inkscape:connector-curvature="0" />
    </g>
    <g
       id="Layer1005">
      <path
         d="m 2.6972,1.4073 0.002,-1.2184 c 0,0 0.5373,0.6293 -0.002,1.2184 z"
         style="fill:#5a903f;fill-rule:evenodd"
         id="path3803"
         inkscape:connector-curvature="0" />
      <path
         d="m 2.6994,0.1891 -0.002,1.2184 c 0,0 -0.5373,-0.6292 0.002,-1.2184 z"
         style="fill:#6daa44;fill-rule:evenodd"
         id="path3805"
         inkscape:connector-curvature="0" />
    </g>
    <g
       id="Layer1006">
      <path
         d="M 3.4975,1.0679 4.0851,5e-4 c 0,0 0.1686,0.8101 -0.5876,1.0674 z"
         style="fill:#5a903f;fill-rule:evenodd"
         id="path3808"
         inkscape:connector-curvature="0" />
      <path
         d="M 4.0852,8e-4 3.4976,1.0682 c 0,0 -0.1686,-0.8101 0.5876,-1.0674 z"
         style="fill:#6daa44;fill-rule:evenodd"
         id="path3810"
         inkscape:connector-curvature="0" />
    </g>
    <path
       d="M 3.9446,1.478 A 0.9404,1.1512 -43.938 0 1 5.421,1.8885 0.9404,1.1512 -43.938 1 1 3.9446,1.478 Z"
       style="fill:#add475;fill-rule:evenodd"
       id="path3813"
       inkscape:connector-curvature="0" />
    <g
       id="Layer1007">
      <path
         d="M 3.0386,1.9881 4.2057,1.6383 c 0,0 -0.4473,0.6961 -1.1671,0.3498 z"
         style="fill:#5a903f;fill-rule:evenodd"
         id="path3815"
         inkscape:connector-curvature="0" />
      <path
         d="M 4.2056,1.6385 3.0385,1.9884 c 0,0 0.4473,-0.6962 1.1671,-0.3499 z"
         style="fill:#6daa44;fill-rule:evenodd"
         id="path3817"
         inkscape:connector-curvature="0" />
    </g>
    <g
       id="Layer1008">
      <path
         d="M 3.566,3.219 4.5224,2.4642 c 0,0 -0.1597,0.8119 -0.9564,0.7548 z"
         style="fill:#5a903f;fill-rule:evenodd"
         id="path3820"
         inkscape:connector-curvature="0" />
      <path
         d="M 4.5224,2.4645 3.5659,3.2193 c 0,0 0.1598,-0.8119 0.9565,-0.7548 z"
         style="fill:#6daa44;fill-rule:evenodd"
         id="path3822"
         inkscape:connector-curvature="0" />
    </g>
    <g
       id="Layer1009">
      <path
         d="M 2.1712,1.8544 C 2.1872,1.9303 2.1386,2.0048 2.0628,2.0208 1.9869,2.0368 1.9124,1.9883 1.8964,1.9124 Z"
         style="fill:#f08572;fill-rule:evenodd"
         id="path3825"
         inkscape:connector-curvature="0" />
      <path
         d="M 2.1712,1.8544 C 2.1552,1.7785 2.0806,1.73 2.0048,1.746 1.9289,1.762 1.8804,1.8365 1.8964,1.9124 Z"
         style="fill:#de7d62;fill-rule:evenodd"
         id="path3827"
         inkscape:connector-curvature="0" />
    </g>
    <g
       id="Layer1010">
      <path
         d="M 3.2012,3.2011 C 3.1239,3.2068 3.0565,3.1487 3.0509,3.0713 3.0452,2.994 3.1033,2.9267 3.1806,2.921 Z"
         style="fill:#f08572;fill-rule:evenodd"
         id="path3830"
         inkscape:connector-curvature="0" />
      <path
         d="M 3.2012,3.2011 C 3.2785,3.1954 3.3366,3.1281 3.331,3.0507 3.3253,2.9734 3.2579,2.9153 3.1806,2.921 Z"
         style="fill:#de7d62;fill-rule:evenodd"
         id="path3832"
         inkscape:connector-curvature="0" />
    </g>
    <g
       id="Layer1011">
      <path
         d="M 3.5495,3.8274 C 3.5293,3.9022 3.4522,3.9466 3.3774,3.9264 3.3025,3.9062 3.2582,3.8291 3.2784,3.7542 Z"
         style="fill:#f08572;fill-rule:evenodd"
         id="path3835"
         inkscape:connector-curvature="0" />
      <path
         d="M 3.5495,3.8274 C 3.5697,3.7525 3.5254,3.6754 3.4505,3.6552 3.3757,3.635 3.2985,3.6794 3.2784,3.7542 Z"
         style="fill:#de7d62;fill-rule:evenodd"
         id="path3837"
         inkscape:connector-curvature="0" />
    </g>
    <g
       id="Layer1012">
      <path
         d="M 3.2098,2.3318 C 3.1886,2.4283 3.2498,2.5238 3.3463,2.545 3.4428,2.5662 3.5383,2.5051 3.5595,2.4085 Z"
         style="fill:#f08572;fill-rule:evenodd"
         id="path3840"
         inkscape:connector-curvature="0" />
      <path
         d="M 3.2098,2.3318 C 3.231,2.2352 3.3265,2.1741 3.4231,2.1953 3.5196,2.2165 3.5807,2.312 3.5595,2.4085 Z"
         style="fill:#de7d62;fill-rule:evenodd"
         id="path3842"
         inkscape:connector-curvature="0" />
    </g>
    <g
       id="Layer1013">
      <path
         d="M 3.2248,1.2208 C 3.1554,1.2555 3.0711,1.2274 3.0364,1.1581 3.0017,1.0887 3.0298,1.0043 3.0991,0.9696 Z"
         style="fill:#f08572;fill-rule:evenodd"
         id="path3845"
         inkscape:connector-curvature="0" />
      <path
         d="M 3.2248,1.2208 C 3.2941,1.1861 3.3222,1.1018 3.2876,1.0324 3.2529,0.9631 3.1685,0.935 3.0991,0.9696 Z"
         style="fill:#de7d62;fill-rule:evenodd"
         id="path3847"
         inkscape:connector-curvature="0" />
    </g>
    <path
       d="m 0.5255,3.7261 c 0.059,0 0.1069,0.0423 0.1069,0.0944 0,0.0522 -0.0479,0.0944 -0.1069,0.0944 -0.0589,0 -0.1068,-0.0422 -0.1068,-0.0944 0,-0.0521 0.0479,-0.0944 0.1068,-0.0944 z M 1.7532,3.2618 c 0.2038,0 0.3691,0.1554 0.3691,0.347 0,0.1916 -0.1653,0.3469 -0.3691,0.3469 -0.2038,0 -0.369,-0.1553 -0.369,-0.3469 0,-0.1916 0.1652,-0.347 0.369,-0.347 z"
       style="fill:#6daa44;fill-rule:evenodd"
       id="path3850"
       inkscape:connector-curvature="0" />
  </g>
</svg>
