<?xml version="1.0" encoding="UTF-8" standalone="no"?>
<svg
   xmlns:dc="http://purl.org/dc/elements/1.1/"
   xmlns:cc="http://creativecommons.org/ns#"
   xmlns:rdf="http://www.w3.org/1999/02/22-rdf-syntax-ns#"
   xmlns:svg="http://www.w3.org/2000/svg"
   xmlns="http://www.w3.org/2000/svg"
   xmlns:sodipodi="http://sodipodi.sourceforge.net/DTD/sodipodi-0.dtd"
   xmlns:inkscape="http://www.inkscape.org/namespaces/inkscape"
   version="1.1"
   width="23.604099"
   height="23.604099"
   id="svg20"
   viewBox="0 0 23.604099 23.604099"
   sodipodi:docname="icon-target.svg"
   inkscape:version="0.92.1 r15371">
  <metadata
     id="metadata26">
    <rdf:RDF>
      <cc:Work
         rdf:about="">
        <dc:format>image/svg+xml</dc:format>
        <dc:type
           rdf:resource="http://purl.org/dc/dcmitype/StillImage" />
        <dc:title></dc:title>
      </cc:Work>
    </rdf:RDF>
  </metadata>
  <defs
     id="defs24" />
  <sodipodi:namedview
     pagecolor="#ffffff"
     bordercolor="#666666"
     borderopacity="1"
     objecttolerance="10"
     gridtolerance="10"
     guidetolerance="10"
     inkscape:pageopacity="0"
     inkscape:pageshadow="2"
     inkscape:window-width="2560"
     inkscape:window-height="1377"
     id="namedview22"
     showgrid="false"
     inkscape:zoom="9.9982633"
     inkscape:cx="11.80205"
     inkscape:cy="11.80205"
     inkscape:window-x="-8"
     inkscape:window-y="-8"
     inkscape:window-maximized="1"
     inkscape:current-layer="svg20" />
  <path
     d="M 11.802,0 A 11.802,11.802 0 0 1 23.6041,11.802 11.802,11.802 0 1 1 11.802,0 Z"
     style="fill:#ffffff;fill-rule:evenodd"
     id="path2"
     inkscape:connector-curvature="0" />
  <path
     d="M 11.802,1.4173 A 10.3847,10.3847 0 0 1 22.1868,11.802 10.3847,10.3847 0 1 1 11.802,1.4173 Z"
     style="fill:#6200ef;fill-rule:evenodd"
     id="path4"
     inkscape:connector-curvature="0" />
  <path
     d="M 11.802,2.8346 A 8.9674,8.9674 0 0 1 20.7694,11.802 8.9674,8.9674 0 1 1 11.802,2.8346 Z"
     style="fill:#ffffff;fill-rule:evenodd"
     id="path6"
     inkscape:connector-curvature="0" />
  <path
     d="m 11.802,4.252 a 7.5501,7.5501 0 0 1 7.5501,7.55 7.5501,7.5501 0 1 1 -7.5501,-7.55 z"
     style="fill:#6200ef;fill-rule:evenodd"
     id="path8"
     inkscape:connector-curvature="0" />
  <path
     d="M 11.802,5.6693 A 6.1328,6.1328 0 0 1 17.9348,11.802 6.1328,6.1328 0 1 1 11.802,5.6693 Z"
     style="fill:#ffffff;fill-rule:evenodd"
     id="path10"
     inkscape:connector-curvature="0" />
  <path
     d="M 11.802,7.0866 A 4.7154,4.7154 0 0 1 16.5175,11.802 4.7154,4.7154 0 1 1 11.802,7.0866 Z"
     style="fill:#6200ef;fill-rule:evenodd"
     id="path12"
     inkscape:connector-curvature="0" />
  <path
     d="M 11.802,8.5039 A 3.2981,3.2981 0 0 1 15.1002,11.802 3.2981,3.2981 0 1 1 11.802,8.5039 Z"
     style="fill:#ffffff;fill-rule:evenodd"
     id="path14"
     inkscape:connector-curvature="0" />
  <path
     d="M 11.802,9.9213 A 1.8808,1.8808 0 0 1 13.6828,11.802 1.8808,1.8808 0 1 1 11.802,9.9213 Z"
     style="fill:#02dac5;fill-rule:evenodd"
     id="path16"
     inkscape:connector-curvature="0" />
  <path
     d="m 12.0067,12.1553 c 0,-0.0546 -0.015,-0.0984 -0.0454,-0.1305 -0.0304,-0.0325 -0.082,-0.0622 -0.1548,-0.0895 -0.0728,-0.0273 -0.1353,-0.0547 -0.1879,-0.0817 -0.053,-0.027 -0.0981,-0.0581 -0.1357,-0.0929 -0.0379,-0.0352 -0.0673,-0.0765 -0.0881,-0.1237 -0.0212,-0.0475 -0.0315,-0.1039 -0.0315,-0.1691 0,-0.1128 0.0359,-0.2054 0.108,-0.2775 0.0721,-0.0721 0.1678,-0.1141 0.2874,-0.1261 v -0.2142 h 0.1602 v 0.2173 c 0.1179,0.0168 0.2105,0.066 0.2771,0.1476 0.0666,0.0817 0.1001,0.1876 0.1001,0.3178 h -0.2894 c 0,-0.08 -0.0164,-0.1398 -0.0495,-0.1794 -0.0328,-0.0396 -0.0773,-0.0595 -0.1326,-0.0595 -0.0547,0 -0.097,0.0154 -0.1271,0.0465 -0.0301,0.0308 -0.0451,0.0738 -0.0451,0.1282 0,0.0505 0.0147,0.0912 0.0441,0.1219 0.0293,0.0305 0.084,0.0619 0.1636,0.094 0.08,0.0318 0.1452,0.0618 0.1968,0.0902 0.0513,0.0284 0.0947,0.0605 0.1302,0.0964 0.0352,0.0355 0.0622,0.0765 0.081,0.1223 0.0188,0.0458 0.028,0.0987 0.028,0.1596 0,0.1137 -0.0355,0.2056 -0.1062,0.2764 -0.0708,0.071 -0.1682,0.1127 -0.2922,0.1254 v 0.1992 h -0.1592 v -0.1982 c -0.1367,-0.0147 -0.2426,-0.0632 -0.3178,-0.1456 -0.0752,-0.0823 -0.1127,-0.192 -0.1127,-0.329 h 0.2894 c 0,0.0793 0.0188,0.1401 0.0567,0.1825 0.0376,0.0423 0.0919,0.0635 0.1626,0.0635 0.0588,0 0.1049,-0.0154 0.1391,-0.0465 0.0342,-0.0311 0.0509,-0.0727 0.0509,-0.1254 z"
     style="fill:#1b1918;fill-rule:evenodd"
     id="path18"
     inkscape:connector-curvature="0" />
</svg>
