<?xml version="1.0" encoding="UTF-8" standalone="no"?>
<svg
   xmlns:dc="http://purl.org/dc/elements/1.1/"
   xmlns:cc="http://creativecommons.org/ns#"
   xmlns:rdf="http://www.w3.org/1999/02/22-rdf-syntax-ns#"
   xmlns:svg="http://www.w3.org/2000/svg"
   xmlns="http://www.w3.org/2000/svg"
   xmlns:xlink="http://www.w3.org/1999/xlink"
   xmlns:sodipodi="http://sodipodi.sourceforge.net/DTD/sodipodi-0.dtd"
   xmlns:inkscape="http://www.inkscape.org/namespaces/inkscape"
   version="1.1"
   width="41.7883"
   height="23.604099"
   id="svg88"
   viewBox="0 0 41.7883 23.604099"
   sodipodi:docname="art-tech.svg"
   inkscape:version="0.92.1 r15371">
  <metadata
     id="metadata94">
    <rdf:RDF>
      <cc:Work
         rdf:about="">
        <dc:format>image/svg+xml</dc:format>
        <dc:type
           rdf:resource="http://purl.org/dc/dcmitype/StillImage" />
        <dc:title></dc:title>
      </cc:Work>
    </rdf:RDF>
  </metadata>
  <defs
     id="defs92" />
  <sodipodi:namedview
     pagecolor="#ffffff"
     bordercolor="#666666"
     borderopacity="1"
     objecttolerance="10"
     gridtolerance="10"
     guidetolerance="10"
     inkscape:pageopacity="0"
     inkscape:pageshadow="2"
     inkscape:window-width="2560"
     inkscape:window-height="1377"
     id="namedview90"
     showgrid="false"
     inkscape:zoom="6.7961607"
     inkscape:cx="20.89415"
     inkscape:cy="11.80205"
     inkscape:window-x="-8"
     inkscape:window-y="-8"
     inkscape:window-maximized="1"
     inkscape:current-layer="svg88" />
  <path
     d="M 3e-4,0 V 23.6044 H 41.7884 V 0 Z"
     style="fill:#ffffff;fill-rule:evenodd"
     id="path2"
     inkscape:connector-curvature="0" />
  <path
     d="m 3.0875,19.7725 h 11.3987 v 0.8969 H 3.0875 Z m 0,-14.6968 H 18.652 V 5.9726 H 3.0875 Z m 0,1.7938 h 7.8111 V 7.7664 H 3.0875 Z m 0,9.3155 h 18.6313 v 0.8969 H 3.0875 Z m 0,1.7937 h 26.3846 v 0.8969 H 3.0875 Z"
     style="fill:#f8f8f8;fill-rule:evenodd"
     id="path4"
     inkscape:connector-curvature="0" />
  <path
     d="M 6e-4,0 V 2.7034 H 41.7824 V 0 Z"
     style="fill:#f8f8f8;fill-rule:evenodd"
     id="path6"
     inkscape:connector-curvature="0" />
  <path
     d="M 1.6156,0.7345 A 0.6328,0.6328 0 0 1 2.2484,1.3673 0.6328,0.6328 0 1 1 1.6156,0.7345 Z"
     style="fill:#fd6059;fill-rule:evenodd"
     id="path8"
     inkscape:connector-curvature="0" />
  <path
     d="M 3.811,0.7345 A 0.6328,0.6328 0 0 1 4.4439,1.3673 0.6328,0.6328 0 1 1 3.811,0.7345 Z"
     style="fill:#ffbe2e;fill-rule:evenodd"
     id="path10"
     inkscape:connector-curvature="0" />
  <path
     d="M 5.9829,0.7345 A 0.6328,0.6328 0 0 1 6.6158,1.3673 0.6328,0.6328 0 1 1 5.9829,0.7345 Z"
     style="fill:#2ac840;fill-rule:evenodd"
     id="path12"
     inkscape:connector-curvature="0" />
  <g
     id="Layer1000">
    <g
       id="Layer1001">
      <g
         id="Layer1002">
        <path
           d="m 25.2228,11.8214 a 0.4268,0.4268 0 0 1 -0.4268,0.4268 0.4268,0.4268 0 1 1 0.4268,-0.4268 z"
           style="fill:#00d8ff;fill-rule:evenodd"
           id="path14"
           inkscape:connector-curvature="0" />
      </g>
      <g
         id="Layer1003">
        <path
           d="m 24.796,12.7996 c -0.5988,0 -1.1205,-0.0711 -1.5118,-0.2075 -0.2549,-0.0889 -0.4683,-0.2015 -0.6225,-0.332 -0.166,-0.1423 -0.249,-0.2905 -0.249,-0.4387 0,-0.2846 0.3083,-0.5573 0.83,-0.7411 0.4269,-0.1482 0.9783,-0.2311 1.5593,-0.2311 0.5692,0 1.1146,0.077 1.5354,0.2253 0.249,0.0829 0.4565,0.1956 0.6047,0.3201 0.1601,0.1363 0.2431,0.2786 0.2431,0.4268 0,0.2904 -0.3439,0.5928 -0.9011,0.7767 -0.4032,0.1304 -0.9249,0.2015 -1.4881,0.2015 z m 0,-1.7431 c -0.5514,0 -1.0908,0.0771 -1.494,0.2194 -0.3438,0.1185 -0.6936,0.3379 -0.6936,0.5454 0,0.0829 0.0653,0.1838 0.1779,0.2846 0.1363,0.1126 0.326,0.2193 0.5572,0.2964 0.3735,0.1304 0.8715,0.1957 1.4465,0.1957 0.5396,0 1.0435,-0.0653 1.4229,-0.1957 0.5276,-0.1719 0.7647,-0.421 0.7647,-0.581 0,-0.0771 -0.0593,-0.1779 -0.1719,-0.2668 -0.1304,-0.1067 -0.3142,-0.2075 -0.5395,-0.2846 -0.4031,-0.1363 -0.9248,-0.2134 -1.4702,-0.2134 z"
           style="fill:#00d8ff;fill-rule:evenodd"
           id="path17"
           inkscape:connector-curvature="0" />
      </g>
      <g
         id="Layer1004">
        <path
           d="m 23.8296,13.9497 c -0.0889,0 -0.166,-0.0178 -0.2253,-0.0533 -0.2431,-0.1423 -0.3261,-0.5454 -0.2253,-1.085 0.083,-0.4446 0.2905,-0.9604 0.581,-1.4643 v 0 c 0.2846,-0.4921 0.6285,-0.9249 0.9664,-1.2213 0.1957,-0.1719 0.3972,-0.2964 0.5751,-0.3617 0.1956,-0.0711 0.3675,-0.0711 0.492,0 0.255,0.1482 0.3379,0.5929 0.2194,1.1679 -0.083,0.409 -0.2846,0.9011 -0.5632,1.3872 -0.2965,0.5158 -0.6225,0.9368 -0.9308,1.2094 -0.2015,0.1779 -0.409,0.3083 -0.5988,0.3735 -0.1186,0.0298 -0.2075,0.0476 -0.2905,0.0476 z m 0.2965,-2.5078 c -0.2728,0.4743 -0.4803,0.9842 -0.5573,1.3992 -0.0652,0.3557 -0.0533,0.7647 0.1304,0.8714 0.1364,0.0771 0.4683,0.006 0.8715,-0.3497 0.2964,-0.2608 0.6047,-0.6581 0.8893,-1.1561 0.2727,-0.4683 0.4624,-0.9367 0.5454,-1.3279 0.0533,-0.249 0.0652,-0.4743 0.0356,-0.6462 C 26.0173,10.0784 25.9639,9.9718 25.8868,9.9302 25.8157,9.8887 25.703,9.8946 25.5667,9.9421 c -0.1542,0.0592 -0.3379,0.1718 -0.5158,0.326 -0.3202,0.2845 -0.6462,0.6995 -0.9248,1.1738 z"
           style="fill:#00d8ff;fill-rule:evenodd"
           id="path20"
           inkscape:connector-curvature="0" />
      </g>
      <g
         id="Layer1005">
        <path
           d="m 25.7624,13.9497 c -0.2312,0 -0.5276,-0.1423 -0.83,-0.4032 -0.3439,-0.2964 -0.6878,-0.7292 -0.9782,-1.2331 v 0 c -0.2846,-0.4921 -0.4921,-1.0079 -0.5751,-1.4466 -0.0533,-0.2549 -0.0593,-0.492 -0.0236,-0.6817 0.0356,-0.2075 0.1185,-0.3557 0.2431,-0.4269 0.2549,-0.1482 0.6817,0.006 1.1204,0.3914 0.3083,0.2786 0.6343,0.6996 0.9189,1.1797 0.3024,0.5158 0.504,1.0078 0.5811,1.411 0.0533,0.2608 0.0592,0.5099 0.0236,0.7055 -0.0415,0.2134 -0.1304,0.3616 -0.2549,0.4386 -0.0653,0.0475 -0.1424,0.0653 -0.2253,0.0653 z M 24.132,12.2126 c 0.2728,0.4743 0.6165,0.9071 0.9368,1.1797 0.2786,0.2372 0.6343,0.4328 0.8181,0.3261 0.1364,-0.0771 0.2372,-0.4032 0.1304,-0.9249 -0.0771,-0.3853 -0.2668,-0.8537 -0.5572,-1.3517 -0.2728,-0.4683 -0.581,-0.8715 -0.8775,-1.1324 -0.1897,-0.166 -0.3793,-0.2905 -0.5454,-0.3497 -0.1422,-0.0534 -0.2668,-0.0593 -0.3379,-0.0179 -0.0711,0.0415 -0.1185,0.1423 -0.1482,0.2846 -0.0296,0.1661 -0.0178,0.3736 0.0237,0.6047 0.0829,0.4152 0.2785,0.9072 0.5572,1.3815 z"
           style="fill:#00d8ff;fill-rule:evenodd"
           id="path23"
           inkscape:connector-curvature="0" />
      </g>
    </g>
    <g
       id="Layer1006">
      <path
         d="m 29.5685,13.3272 -0.7767,-1.2154 h -0.6107 v 1.2154 H 27.8017 V 10.274 h 1.2272 c 0.5573,0 0.9546,0.3557 0.9546,0.9189 0,0.5514 -0.3735,0.8537 -0.7944,0.8893 l 0.824,1.245 z m 0.0236,-2.1343 c 0,-0.3439 -0.2489,-0.581 -0.6106,-0.581 h -0.8004 v 1.1679 l 0.8004,10e-5 c 0.3617,0 0.6106,-0.2431 0.6106,-0.587 z"
         style="fill:#00d8ff;fill-rule:evenodd"
         id="path27"
         inkscape:connector-curvature="0" />
    </g>
    <g
       id="Layer1007">
      <path
         d="m 30.351,12.2186 c 0,-0.6403 0.4565,-1.1561 1.0908,-1.1561 0.67,0 1.0612,0.5217 1.0612,1.1857 v 0.0889 h -1.7903 c 0.0296,0.415 0.3201,0.7648 0.7944,0.7648 0.249,0 0.5099,-0.1008 0.6818,-0.2786 l 0.166,0.2253 c -0.2193,0.2193 -0.5158,0.3379 -0.8775,0.3379 -0.6521,-0.0059 -1.1264,-0.4743 -1.1264,-1.1679 z m 1.085,-0.8715 c -0.4743,0 -0.7055,0.3972 -0.7233,0.7351 h 1.4525 c -0.006,-0.3319 -0.2253,-0.7351 -0.7292,-0.7351 z"
         style="fill:#00d8ff;fill-rule:evenodd"
         id="path30"
         inkscape:connector-curvature="0" />
    </g>
    <g
       id="Layer1008">
      <path
         d="m 34.3053,13.3272 v -0.249 c -0.1838,0.2015 -0.4328,0.3083 -0.7351,0.3083 -0.3735,0 -0.7766,-0.249 -0.7766,-0.7351 0,-0.4921 0.3971,-0.7292 0.7766,-0.7292 0.3024,0 0.5514,0.0949 0.7351,0.3023 v -0.3971 c 0,-0.2965 -0.2371,-0.4684 -0.5572,-0.4684 -0.2668,0 -0.4803,0.0949 -0.6758,0.3083 l -0.1601,-0.2371 c 0.2372,-0.249 0.5218,-0.3676 0.8833,-0.3676 0.4684,0 0.8537,0.2135 0.8537,0.7471 v 1.5177 z m 0,-0.4683 v -0.415 c -0.1304,-0.1838 -0.3675,-0.2728 -0.6106,-0.2728 -0.3201,0 -0.5454,0.2016 -0.5454,0.4861 0,0.2787 0.2253,0.4803 0.5454,0.4803 0.2431,0 0.4743,-0.0949 0.6106,-0.2786 z"
         style="fill:#00d8ff;fill-rule:evenodd"
         id="path33"
         inkscape:connector-curvature="0" />
    </g>
    <g
       id="Layer1009">
      <path
         d="m 34.9753,12.2186 c 0,-0.6522 0.4446,-1.1561 1.1027,-1.1561 0.4032,0 0.6403,0.166 0.8122,0.3854 l -0.2311,0.2134 c -0.1483,-0.2015 -0.3321,-0.2904 -0.5633,-0.2904 -0.4742,0 -0.7647,0.3617 -0.7647,0.8536 0,0.4921 0.2905,0.8537 0.7647,0.8537 0.2312,0 0.415,-0.0889 0.5633,-0.2904 l 0.2311,0.2134 c -0.1719,0.2194 -0.409,0.3854 -0.8122,0.3854 -0.6581,-0.006 -1.1027,-0.5099 -1.1027,-1.168 z"
         style="fill:#00d8ff;fill-rule:evenodd"
         id="path36"
         inkscape:connector-curvature="0" />
      <path
         d="m 37.4416,12.8647 v -1.4465 h -0.3677 v -0.3024 h 0.3677 v -0.6047 h 0.3438 v 0.6047 h 0.4506 v 0.3024 h -0.4506 v 1.3754 c 0,0.166 0.0711,0.2846 0.2253,0.2846 0.0949,0 0.1897,-0.0415 0.2311,-0.0889 l 0.1008,0.2549 c -0.0889,0.083 -0.2135,0.1423 -0.415,0.1423 -0.326,-0.0059 -0.486,-0.1897 -0.486,-0.5218 z"
         style="fill:#00d8ff;fill-rule:evenodd"
         id="path38"
         inkscape:connector-curvature="0" />
    </g>
  </g>
  <g
     id="Layer1010">
    <g
       id="Layer1011">
      <path
         d="m 9.7726,11.9062 c 0,-0.5291 -0.1509,-0.8008 -0.4527,-0.8156 -0.12,-0.0057 -0.2373,0.0134 -0.3513,0.0577 -0.091,0.0326 -0.1523,0.0648 -0.1845,0.0974 v 1.263 c 0.193,0.1211 0.3644,0.1774 0.5139,0.1686 0.3163,-0.0209 0.4746,-0.2777 0.4746,-0.7711 z m 0.3722,0.022 c 0,0.2688 -0.063,0.4919 -0.1898,0.6694 -0.1413,0.2008 -0.3372,0.3042 -0.5876,0.3099 -0.1888,0.006 -0.3832,-0.0531 -0.5833,-0.1771 v 1.1479 L 8.4603,13.7628 v -2.5479 c 0.0532,-0.0652 0.1215,-0.1212 0.2044,-0.1686 0.1927,-0.1123 0.4268,-0.17 0.7023,-0.1729 l 0.0047,0.0046 c 0.2518,-0.0031 0.4459,0.1003 0.5822,0.31 0.1272,0.1923 0.1909,0.4388 0.1909,0.7402 z"
         style="fill:#646464;fill-rule:evenodd"
         id="path42"
         inkscape:connector-curvature="0" />
      <path
         d="m 12.1233,12.6815 c 0,0.3606 -0.0362,0.6103 -0.1084,0.7491 -0.0726,0.1388 -0.2108,0.2497 -0.4148,0.3322 -0.1654,0.0652 -0.3442,0.1006 -0.5362,0.1066 l -0.0535,-0.204 c 0.1952,-0.0265 0.3326,-0.0531 0.4123,-0.0797 0.1569,-0.0531 0.2646,-0.1346 0.3237,-0.2436 0.0475,-0.089 0.0708,-0.2586 0.0708,-0.5097 v -0.0843 c -0.2213,0.1006 -0.4533,0.1505 -0.6959,0.1505 -0.1594,0 -0.3,-0.0499 -0.4211,-0.1505 -0.136,-0.1094 -0.204,-0.2483 -0.204,-0.4165 v -1.3473 l 0.3237,-0.1109 v 1.3562 c 0,0.1448 0.0467,0.2564 0.1402,0.3347 0.0935,0.0783 0.2147,0.1158 0.3631,0.113 0.1484,-0.0032 0.3074,-0.0606 0.4763,-0.1729 v -1.5821 h 0.3238 z"
         style="fill:#646464;fill-rule:evenodd"
         id="path44"
         inkscape:connector-curvature="0" />
      <path
         d="m 13.3869,12.8898 c -0.0386,0.0032 -0.074,0.0046 -0.1066,0.0046 -0.1831,0 -0.3258,-0.0436 -0.4278,-0.1311 -0.1017,-0.0875 -0.1527,-0.2082 -0.1527,-0.3623 v -1.275 h -0.2217 v -0.2037 h 0.2217 v -0.5408 l 0.3234,-0.1151 v 0.6559 h 0.3637 v 0.2037 h -0.3637 v 1.2662 c 0,0.1214 0.0326,0.2075 0.0978,0.2578 0.0559,0.0414 0.1448,0.0652 0.2659,0.0712 z"
         style="fill:#646464;fill-rule:evenodd"
         id="path46"
         inkscape:connector-curvature="0" />
      <path
         d="m 15.347,12.8632 h -0.3238 v -1.2495 c 0,-0.1272 -0.0297,-0.2366 -0.0889,-0.328 -0.0683,-0.1034 -0.1632,-0.1551 -0.2851,-0.1551 -0.1484,0 -0.3339,0.0782 -0.5567,0.2348 v 1.4978 H 13.7688 V 9.8764 l 0.3237,-0.102 v 1.3604 c 0.2068,-0.1505 0.4328,-0.2259 0.6782,-0.2259 0.1714,0 0.3103,0.0577 0.4165,0.1728 0.1066,0.1151 0.1598,0.2585 0.1598,0.43 v 1.3515 z"
         style="fill:#646464;fill-rule:evenodd"
         id="path48"
         inkscape:connector-curvature="0" />
      <path
         d="m 17.0676,11.8552 c 0,-0.2033 -0.0386,-0.3712 -0.1155,-0.504 -0.0914,-0.1618 -0.2334,-0.2472 -0.4254,-0.256 -0.3549,0.0205 -0.5319,0.2748 -0.5319,0.7621 0,0.2235 0.0368,0.4102 0.1112,0.56 0.0949,0.1909 0.2373,0.2851 0.4271,0.2819 0.3563,-0.0028 0.5345,-0.284 0.5345,-0.844 z m 0.3545,0.0021 c 0,0.2894 -0.074,0.5303 -0.2217,0.7226 -0.1626,0.2153 -0.3871,0.3233 -0.6737,0.3233 -0.284,0 -0.5054,-0.108 -0.6651,-0.3233 -0.1449,-0.1923 -0.2171,-0.4332 -0.2171,-0.7226 0,-0.272 0.0782,-0.5008 0.2348,-0.6871 0.1654,-0.1976 0.3829,-0.2968 0.6517,-0.2968 0.2688,0 0.4877,0.0992 0.6563,0.2968 0.1565,0.1863 0.2348,0.4151 0.2348,0.6871 z"
         style="fill:#646464;fill-rule:evenodd"
         id="path50"
         inkscape:connector-curvature="0" />
      <path
         d="m 19.278,12.8632 h -0.3237 v -1.3204 c 0,-0.1448 -0.0436,-0.2578 -0.1307,-0.3393 -0.0872,-0.0811 -0.2033,-0.1204 -0.3482,-0.1172 -0.1537,0.0028 -0.3,0.0531 -0.4388,0.1505 v 1.6264 h -0.3237 v -1.6664 c 0.1863,-0.1357 0.3577,-0.2242 0.5142,-0.2656 0.1477,-0.0386 0.2781,-0.0578 0.3903,-0.0578 0.0769,0 0.1491,0.0075 0.2172,0.0224 0.1271,0.0293 0.2305,0.0839 0.3102,0.1639 0.0889,0.0886 0.1332,0.1948 0.1332,0.3191 z"
         style="fill:#646464;fill-rule:evenodd"
         id="path52"
         inkscape:connector-curvature="0" />
      <defs
         id="defs60">
        <linearGradient
           id="grad1">
          <stop
             offset="0%"
             stop-color="#5a9fd4"
             stop-opacity="1.0000"
             id="stop54" />
          <stop
             offset="100%"
             stop-color="#ffffff"
             stop-opacity="1.0000"
             id="stop56" />
        </linearGradient>
        <linearGradient
           xlink:href="#grad1"
           id="grad2"
           x1="0"
           y1="0"
           x2="0"
           y2="1"
           gradientTransform="rotate(-49,0.5,0.5)"
           gradientUnits="objectBoundingBox" />
      </defs>
      <path
         d="M 5.2631,9.8884 C 5.0965,9.8892 4.9375,9.9034 4.7975,9.9281 4.3852,10.001 4.3104,10.1534 4.3104,10.4346 v 0.3713 h 0.9742 v 0.1238 H 4.3104 3.9447 c -0.2831,0 -0.5311,0.1702 -0.6086,0.4939 -0.0895,0.3711 -0.0934,0.6027 0,0.9902 0.0692,0.2884 0.2346,0.494 0.5178,0.494 h 0.335 v -0.4452 c 0,-0.3216 0.2782,-0.6052 0.6086,-0.6052 h 0.9731 c 0.2709,0 0.4872,-0.2231 0.4872,-0.4951 V 10.4346 C 6.2578,10.1705 6.035,9.9722 5.7706,9.9281 5.6033,9.9003 5.4296,9.8876 5.2631,9.8884 Z M 4.7362,10.187 c 0.1006,0 0.1828,0.0836 0.1828,0.1863 0,0.1023 -0.0822,0.1851 -0.1828,0.1851 -0.101,0 -0.1828,-0.0828 -0.1828,-0.1851 0,-0.1027 0.0818,-0.1863 0.1828,-0.1863 z"
         style="fill:url(#grad2)"
         id="path62"
         inkscape:connector-curvature="0" />
      <defs
         id="defs70">
        <linearGradient
           id="grad3">
          <stop
             offset="0%"
             stop-color="#ffd43b"
             stop-opacity="1.0000"
             id="stop64" />
          <stop
             offset="100%"
             stop-color="#ffffff"
             stop-opacity="1.0000"
             id="stop66" />
        </linearGradient>
        <linearGradient
           xlink:href="#grad3"
           id="grad4"
           x1="0"
           y1="0"
           x2="0"
           y2="1"
           gradientTransform="rotate(146,0.5,0.5)"
           gradientUnits="objectBoundingBox" />
      </defs>
      <path
         d="m 6.3793,10.9297 v 0.4326 c 0,0.3354 -0.2844,0.6177 -0.6087,0.6177 H 4.7975 c -0.2666,0 -0.4871,0.2282 -0.4871,0.4951 v 0.9277 c 0,0.2641 0.2296,0.4194 0.4871,0.4951 0.3084,0.0907 0.6041,0.1071 0.9731,0 0.2453,-0.071 0.4872,-0.2139 0.4872,-0.4951 V 13.0315 H 5.2846 v -0.1237 h 0.9732 0.4871 c 0.2832,0 0.3887,-0.1976 0.4872,-0.494 0.1017,-0.3052 0.0974,-0.5987 0,-0.9902 -0.07,-0.2819 -0.2037,-0.4939 -0.4872,-0.4939 z M 5.832,13.2791 c 0.101,0 0.1828,0.0827 0.1828,0.1851 0,0.1027 -0.0818,0.1862 -0.1828,0.1862 -0.1007,0 -0.1829,-0.0835 -0.1829,-0.1862 0,-0.1024 0.0822,-0.1851 0.1829,-0.1851 z"
         style="fill:url(#grad4)"
         id="path72"
         inkscape:connector-curvature="0" />
      <path
         d="m 19.9084,10.6337 h 0.0567 v -0.356 h 0.1345 v -0.0424 h -0.3257 v 0.0424 h 0.1345 z m 0.2415,0 h 0.0485 v -0.3251 l 0.1052,0.3251 h 0.054 l 0.1097,-0.324 v 0.324 h 0.0529 v -0.3984 h -0.07 l -0.1198,0.3413 -0.1023,-0.3413 h -0.0782 z"
         style="fill:#646464;fill-rule:evenodd"
         id="path74"
         inkscape:connector-curvature="0" />
      <g
         id="Layer1012">
        <defs
           id="defs81">
          <radialGradient
             id="grad5"
             cx="0.75"
             cy="0.75"
             r="0.30000001">
            <stop
               offset="0%"
               stop-color="#ffffff"
               stop-opacity="1.0000"
               id="stop76" />
            <stop
               offset="100%"
               stop-color="#7f7f7f"
               stop-opacity="1.0000"
               id="stop78" />
          </radialGradient>
        </defs>
        <path
           d="m 6.6013,14.5286 c 0,0.1398 -0.5846,0.2531 -1.3056,0.2531 -0.7209,0 -1.3056,-0.1133 -1.3056,-0.2531 0,-0.1398 0.5847,-0.2532 1.3056,-0.2532 0.721,0 1.3056,0.1134 1.3056,0.2532 z"
           style="fill:url(#grad5);fill-opacity:0"
           id="path83"
           inkscape:connector-curvature="0" />
      </g>
    </g>
  </g>
</svg>
