<?xml version="1.0" encoding="UTF-8" standalone="no"?>
<svg
   xmlns:dc="http://purl.org/dc/elements/1.1/"
   xmlns:cc="http://creativecommons.org/ns#"
   xmlns:rdf="http://www.w3.org/1999/02/22-rdf-syntax-ns#"
   xmlns:svg="http://www.w3.org/2000/svg"
   xmlns="http://www.w3.org/2000/svg"
   xmlns:xlink="http://www.w3.org/1999/xlink"
   xmlns:sodipodi="http://sodipodi.sourceforge.net/DTD/sodipodi-0.dtd"
   xmlns:inkscape="http://www.inkscape.org/namespaces/inkscape"
   version="1.1"
   width="41.7883"
   height="23.6041"
   id="svg50"
   sodipodi:docname="art-graph.svg"
   inkscape:version="0.92.1 r15371">
  <metadata
     id="metadata54">
    <rdf:RDF>
      <cc:Work
         rdf:about="">
        <dc:format>image/svg+xml</dc:format>
        <dc:type
           rdf:resource="http://purl.org/dc/dcmitype/StillImage" />
        <dc:title></dc:title>
      </cc:Work>
    </rdf:RDF>
  </metadata>
  <sodipodi:namedview
     pagecolor="#ffffff"
     bordercolor="#666666"
     borderopacity="1"
     objecttolerance="10"
     gridtolerance="10"
     guidetolerance="10"
     inkscape:pageopacity="0"
     inkscape:pageshadow="2"
     inkscape:window-width="2560"
     inkscape:window-height="1377"
     id="namedview52"
     showgrid="false"
     inkscape:zoom="20.620921"
     inkscape:cx="13.013804"
     inkscape:cy="21.699968"
     inkscape:window-x="-8"
     inkscape:window-y="-8"
     inkscape:window-maximized="1"
     inkscape:current-layer="svg50" />
  <defs
     id="defs8">
    <linearGradient
       id="grad1">
      <stop
         offset="0%"
         stop-color="#3700b3"
         stop-opacity="1.0000"
         id="stop2" />
      <stop
         offset="100%"
         stop-color="#ffffff"
         stop-opacity="1.0000"
         id="stop4" />
    </linearGradient>
    <linearGradient
       xlink:href="#grad1"
       id="grad2"
       x1="0"
       y1="0"
       x2="0"
       y2="1"
       gradientUnits="objectBoundingBox"
       gradientTransform="rotate(-0 .5 .5)" />
  </defs>
  <path
     d="  M0.0003,0.0000 L0.0003,23.6044 L41.7884,23.6044 L41.7884,0.0000 L0.0003,0.0000 Z"
     style="fill:#3700b3;fill-opacity:1"
     id="path10" />
  <path
     d="  M41.7884,23.6044 L0.0003,23.6044 L6.1861,17.5803 L12.0020,18.7381 L23.4754,13.1328 L31.8967,15.7114 L36.9488,9.2908 L41.7909,10.0540 L41.7884,23.6044 Z"
     style="fill-rule: evenodd; fill: #6a24de; "
     id="path12" />
  <path
     d="  M0.0003,23.6044 L41.7884,23.6044 L41.7884,15.4746 L39.8177,17.2906 L37.2652,15.5275 L27.0279,20.2378 L22.7122,17.1328 L12.0549,20.3167 L6.6596,19.1060 L0.0003,23.6044 Z"
     style="fill-rule: evenodd; fill: #833fec; "
     id="path14" />
  <path
     d="  M0.0003,23.6044 L6.2128,17.5803 L12.0020,18.7381 L23.4754,13.1328 L31.8967,15.7114 L36.9227,9.2908 L41.7909,10.0540"
     style="stroke-width: 0.0499; stroke: #a788df; stroke-dasharray: none; stroke-linecap: butt; stroke-linejoin: miter; fill: none; "
     id="path16" />
  <path
     d="  M6.2128,17.3518 A0.2285,0.2285 0.0000 0,1 6.4413,17.5803 A0.2285,0.2285 0.0000 1,1 6.2128,17.3518 Z"
     style="fill-rule: evenodd; fill: #ffffff; "
     id="path18" />
  <path
     d="  M12.0020,18.5096 A0.2285,0.2285 0.0000 0,1 12.2305,18.7381 A0.2285,0.2285 0.0000 1,1 12.0020,18.5096 Z"
     style="fill-rule: evenodd; fill: #ffffff; "
     id="path20" />
  <path
     d="  M23.4754,12.9043 A0.2285,0.2285 0.0000 0,1 23.7040,13.1328 A0.2285,0.2285 0.0000 1,1 23.4754,12.9043 Z"
     style="fill-rule: evenodd; fill: #ffffff; "
     id="path22" />
  <path
     d="  M31.8967,15.4829 A0.2285,0.2285 0.0000 0,1 32.1252,15.7114 A0.2285,0.2285 0.0000 1,1 31.8967,15.4829 Z"
     style="fill-rule: evenodd; fill: #ffffff; "
     id="path24" />
  <path
     d="  M36.9488,9.0623 A0.2285,0.2285 0.0000 0,1 37.1773,9.2908 A0.2285,0.2285 0.0000 1,1 36.9488,9.0623 Z"
     style="fill-rule: evenodd; fill: #ffffff; "
     id="path26" />
  <path
     d="  M6.0495,12.9565 A1.5923,1.5923 0.0000 0,1 7.6418,14.5488 A1.5923,1.5923 0.0000 1,1 6.0495,12.9565 Z"
     style="fill-rule: evenodd; fill: #ffffff; "
     id="path28" />
  <path
     d="  M6.2208,14.8454 C6.2208,14.7995 6.2081,14.7629 6.1826,14.7355 C6.1572,14.7082 6.1138,14.6832 6.0527,14.6603 C5.9911,14.6373 5.9389,14.6144 5.8944,14.5919 C5.8500,14.5689 5.8119,14.5430 5.7806,14.5137 C5.7488,14.4839 5.7239,14.4492 5.7063,14.4097 C5.6888,14.3696 5.6800,14.3222 5.6800,14.2675 C5.6800,14.1727 5.7103,14.0946 5.7708,14.0340 C5.8314,13.9734 5.9120,13.9383 6.0122,13.9280 L6.0122,13.7482 L6.1470,13.7482 L6.1470,13.9309 C6.2462,13.9446 6.3238,13.9861 6.3800,14.0550 C6.4362,14.1234 6.4640,14.2123 6.4640,14.3222 L6.2208,14.3222 C6.2208,14.2548 6.2071,14.2045 6.1792,14.1713 C6.1519,14.1381 6.1143,14.1215 6.0678,14.1215 C6.0219,14.1215 5.9863,14.1342 5.9609,14.1600 C5.9355,14.1859 5.9228,14.2221 5.9228,14.2680 C5.9228,14.3105 5.9355,14.3447 5.9599,14.3706 C5.9848,14.3960 6.0307,14.4224 6.0976,14.4497 C6.1651,14.4761 6.2198,14.5015 6.2633,14.5255 C6.3062,14.5494 6.3429,14.5763 6.3727,14.6065 C6.4020,14.6363 6.4250,14.6705 6.4406,14.7091 C6.4562,14.7477 6.4640,14.7922 6.4640,14.8435 C6.4640,14.9392 6.4342,15.0164 6.3746,15.0755 C6.3155,15.1356 6.2335,15.1703 6.1294,15.1810 L6.1294,15.3486 L5.9955,15.3486 L5.9955,15.1820 C5.8803,15.1698 5.7913,15.1288 5.7283,15.0594 C5.6648,14.9905 5.6336,14.8982 5.6336,14.7829 L5.8768,14.7829 C5.8768,14.8498 5.8925,14.9006 5.9242,14.9363 C5.9560,14.9720 6.0019,14.9900 6.0610,14.9900 C6.1103,14.9900 6.1494,14.9768 6.1783,14.9510 C6.2066,14.9246 6.2208,14.8894 6.2208,14.8454 Z"
     style="fill-rule: evenodd; fill: #1b1918; "
     id="path30" />
  <path
     d="  M36.8645,4.7988 A1.5923,1.5923 0.0000 0,1 38.4568,6.3911 A1.5923,1.5923 0.0000 1,1 36.8645,4.7988 Z"
     style="fill-rule: evenodd; fill: #ffffff; "
     id="path32" />
  <path
     d="  M37.0357,6.6877 C37.0357,6.6418 37.0230,6.6051 36.9976,6.5778 C36.9722,6.5504 36.9287,6.5255 36.8677,6.5025 C36.8061,6.4796 36.7538,6.4566 36.7094,6.4341 C36.6649,6.4112 36.6268,6.3853 36.5956,6.3560 C36.5638,6.3262 36.5389,6.2915 36.5213,6.2519 C36.5037,6.2119 36.4949,6.1645 36.4949,6.1098 C36.4949,6.0150 36.5252,5.9368 36.5858,5.8763 C36.6464,5.8157 36.7270,5.7805 36.8271,5.7703 L36.8271,5.5905 L36.9619,5.5905 L36.9619,5.7732 C37.0611,5.7869 37.1388,5.8284 37.1950,5.8973 C37.2511,5.9657 37.2790,6.0546 37.2790,6.1645 L37.0357,6.1645 C37.0357,6.0971 37.0220,6.0468 36.9942,6.0135 C36.9668,5.9803 36.9292,5.9637 36.8828,5.9637 C36.8369,5.9637 36.8012,5.9764 36.7758,6.0023 C36.7504,6.0282 36.7377,6.0643 36.7377,6.1103 C36.7377,6.1528 36.7504,6.1870 36.7748,6.2129 C36.7998,6.2383 36.8457,6.2646 36.9126,6.2920 C36.9800,6.3184 37.0347,6.3438 37.0782,6.3677 C37.1212,6.3916 37.1578,6.4185 37.1876,6.4488 C37.2170,6.4786 37.2399,6.5128 37.2555,6.5514 C37.2712,6.5900 37.2790,6.6344 37.2790,6.6857 C37.2790,6.7815 37.2492,6.8587 37.1896,6.9178 C37.1305,6.9779 37.0484,7.0125 36.9444,7.0233 L36.9444,7.1909 L36.8105,7.1909 L36.8105,7.0243 C36.6952,7.0121 36.6063,6.9710 36.5433,6.9017 C36.4798,6.8328 36.4485,6.7404 36.4485,6.6252 L36.6918,6.6252 C36.6918,6.6921 36.7074,6.7429 36.7392,6.7786 C36.7709,6.8142 36.8169,6.8323 36.8760,6.8323 C36.9253,6.8323 36.9644,6.8191 36.9932,6.7932 C37.0215,6.7668 37.0357,6.7317 37.0357,6.6877 Z"
     style="fill-rule: evenodd; fill: #1b1918; "
     id="path34" />
  <path
     d="  M11.8641,15.2563 A1.1778,1.1778 0.0000 0,1 13.0419,16.4341 A1.1778,1.1778 0.0000 1,1 11.8641,15.2563 Z"
     style="fill-rule: evenodd; fill: #ffffff; "
     id="path36" />
  <path
     d="  M11.9908,16.6535 C11.9908,16.6196 11.9814,16.5925 11.9626,16.5722 C11.9438,16.5520 11.9116,16.5336 11.8665,16.5166 C11.8209,16.4996 11.7823,16.4826 11.7494,16.4660 C11.7165,16.4490 11.6883,16.4299 11.6652,16.4082 C11.6417,16.3861 11.6233,16.3605 11.6103,16.3312 C11.5973,16.3016 11.5908,16.2665 11.5908,16.2260 C11.5908,16.1559 11.6132,16.0981 11.6580,16.0533 C11.7028,16.0085 11.7624,15.9825 11.8365,15.9749 L11.8365,15.8419 L11.9362,15.8419 L11.9362,15.9771 C12.0096,15.9872 12.0670,16.0179 12.1086,16.0689 C12.1501,16.1194 12.1707,16.1852 12.1707,16.2665 L11.9908,16.2665 C11.9908,16.2167 11.9807,16.1794 11.9601,16.1549 C11.9398,16.1303 11.9120,16.1180 11.8777,16.1180 C11.8437,16.1180 11.8173,16.1274 11.7985,16.1466 C11.7798,16.1657 11.7704,16.1924 11.7704,16.2264 C11.7704,16.2578 11.7798,16.2831 11.7978,16.3023 C11.8162,16.3211 11.8502,16.3406 11.8997,16.3608 C11.9496,16.3803 11.9901,16.3991 12.0222,16.4168 C12.0540,16.4346 12.0811,16.4544 12.1032,16.4768 C12.1248,16.4989 12.1418,16.5242 12.1534,16.5527 C12.1650,16.5813 12.1707,16.6141 12.1707,16.6521 C12.1707,16.7229 12.1487,16.7800 12.1046,16.8237 C12.0609,16.8682 12.0002,16.8938 11.9232,16.9018 L11.9232,17.0257 L11.8242,17.0257 L11.8242,16.9025 C11.7389,16.8935 11.6732,16.8631 11.6265,16.8118 C11.5796,16.7609 11.5564,16.6926 11.5564,16.6073 L11.7364,16.6073 C11.7364,16.6568 11.7480,16.6944 11.7714,16.7207 C11.7949,16.7471 11.8289,16.7605 11.8726,16.7605 C11.9091,16.7605 11.9380,16.7507 11.9593,16.7316 C11.9803,16.7121 11.9908,16.6861 11.9908,16.6535 Z"
     style="fill-rule: evenodd; fill: #1b1918; "
     id="path38" />
  <path
     d="  M31.7161,12.4460 A0.9053,0.9053 0.0000 0,1 32.6214,13.3514 A0.9053,0.9053 0.0000 1,1 31.7161,12.4460 Z"
     style="fill-rule: evenodd; fill: #ffffff; "
     id="path40" />
  <path
     d="  M31.8135,13.5200 C31.8135,13.4939 31.8062,13.4731 31.7918,13.4575 C31.7774,13.4420 31.7526,13.4278 31.7179,13.4147 C31.6829,13.4017 31.6532,13.3886 31.6279,13.3759 C31.6026,13.3628 31.5810,13.3481 31.5632,13.3314 C31.5452,13.3145 31.5310,13.2948 31.5210,13.2723 C31.5110,13.2495 31.5060,13.2225 31.5060,13.1914 C31.5060,13.1375 31.5232,13.0931 31.5577,13.0587 C31.5921,13.0242 31.6379,13.0042 31.6949,12.9984 L31.6949,12.8962 L31.7715,12.8962 L31.7715,13.0001 C31.8279,13.0078 31.8721,13.0314 31.9040,13.0706 C31.9360,13.1095 31.9518,13.1600 31.9518,13.2225 L31.8135,13.2225 C31.8135,13.1842 31.8057,13.1556 31.7899,13.1367 C31.7743,13.1178 31.7529,13.1084 31.7265,13.1084 C31.7004,13.1084 31.6801,13.1156 31.6657,13.1303 C31.6513,13.1450 31.6440,13.1656 31.6440,13.1917 C31.6440,13.2159 31.6513,13.2353 31.6651,13.2500 C31.6793,13.2645 31.7054,13.2795 31.7435,13.2950 C31.7818,13.3100 31.8129,13.3245 31.8376,13.3381 C31.8621,13.3517 31.8829,13.3670 31.8998,13.3842 C31.9165,13.4011 31.9296,13.4206 31.9385,13.4425 C31.9473,13.4645 31.9518,13.4897 31.9518,13.5189 C31.9518,13.5733 31.9348,13.6172 31.9010,13.6508 C31.8674,13.6850 31.8207,13.7047 31.7615,13.7108 L31.7615,13.8061 L31.6854,13.8061 L31.6854,13.7114 C31.6199,13.7044 31.5693,13.6811 31.5335,13.6417 C31.4974,13.6025 31.4796,13.5500 31.4796,13.4845 L31.6179,13.4845 C31.6179,13.5225 31.6268,13.5514 31.6449,13.5717 C31.6629,13.5920 31.6890,13.6022 31.7226,13.6022 C31.7507,13.6022 31.7729,13.5947 31.7893,13.5800 C31.8054,13.5650 31.8135,13.5450 31.8135,13.5200 Z"
     style="fill-rule: evenodd; fill: #1b1918; "
     id="path42" />
  <path
     d="  M23.4978,4.4271 A3.5436,3.5436 0.0000 0,1 27.0414,7.9707 A3.5436,3.5436 0.0000 1,1 23.4978,4.4271 Z"
     style="fill-rule: evenodd; fill: #03dac5; "
     id="path44" />
  <path
     d="  M23.8789,8.6308 C23.8789,8.5286 23.8506,8.4471 23.7940,8.3862 C23.7375,8.3253 23.6408,8.2699 23.5049,8.2188 C23.3679,8.1677 23.2515,8.1166 23.1526,8.0666 C23.0537,8.0155 22.9689,7.9579 22.8993,7.8926 C22.8286,7.8263 22.7732,7.7491 22.7340,7.6610 C22.6949,7.5719 22.6753,7.4664 22.6753,7.3447 C22.6753,7.1338 22.7427,6.9598 22.8775,6.8250 C23.0124,6.6902 23.1917,6.6119 23.4146,6.5891 L23.4146,6.1890 L23.7147,6.1890 L23.7147,6.5956 C23.9354,6.6260 24.1082,6.7184 24.2333,6.8717 C24.3583,7.0239 24.4203,7.2218 24.4203,7.4664 L23.8789,7.4664 C23.8789,7.3164 23.8484,7.2044 23.7864,7.1305 C23.7256,7.0566 23.6418,7.0196 23.5386,7.0196 C23.4364,7.0196 23.3570,7.0479 23.3005,7.1055 C23.2439,7.1631 23.2157,7.2436 23.2157,7.3458 C23.2157,7.4403 23.2439,7.5164 23.2983,7.5741 C23.3537,7.6306 23.4559,7.6893 23.6049,7.7502 C23.7549,7.8089 23.8767,7.8654 23.9734,7.9187 C24.0691,7.9720 24.1506,8.0318 24.2170,8.0992 C24.2822,8.1655 24.3333,8.2416 24.3681,8.3275 C24.4029,8.4134 24.4203,8.5123 24.4203,8.6265 C24.4203,8.8396 24.3540,9.0113 24.2213,9.1429 C24.0898,9.2766 23.9071,9.3538 23.6755,9.3777 L23.6755,9.7506 L23.3777,9.7506 L23.3777,9.3799 C23.1211,9.3527 22.9232,9.2614 22.7830,9.1070 C22.6416,8.9537 22.5720,8.7482 22.5720,8.4917 L23.1135,8.4917 C23.1135,8.6406 23.1483,8.7537 23.2189,8.8330 C23.2896,8.9124 23.3918,8.9526 23.5233,8.9526 C23.6331,8.9526 23.7201,8.9233 23.7843,8.8657 C23.8473,8.8069 23.8789,8.7287 23.8789,8.6308 Z"
     style="fill-rule: evenodd; fill: #1b1918; "
     id="path46" />
  <path
     d="  M23.4979,3.8122 A4.1586,4.1586 0.0000 0,1 27.6565,7.9708 A4.1586,4.1586 0.0000 1,1 23.4979,3.8122 Z"
     style="stroke-width: 0.0499; stroke: #a788df; stroke-dasharray: none; stroke-linecap: butt; stroke-linejoin: miter; fill: none; "
     id="path48" />
</svg>
