<?xml version="1.0" encoding="UTF-8" standalone="no"?>
<svg
   xmlns:dc="http://purl.org/dc/elements/1.1/"
   xmlns:cc="http://creativecommons.org/ns#"
   xmlns:rdf="http://www.w3.org/1999/02/22-rdf-syntax-ns#"
   xmlns:svg="http://www.w3.org/2000/svg"
   xmlns="http://www.w3.org/2000/svg"
   xmlns:sodipodi="http://sodipodi.sourceforge.net/DTD/sodipodi-0.dtd"
   xmlns:inkscape="http://www.inkscape.org/namespaces/inkscape"
   version="1.1"
   width="8.5804996"
   height="8.5804996"
   id="svg4493"
   viewBox="0 0 8.5804996 8.5804996"
   sodipodi:docname="majas-darbs-lv.svg"
   inkscape:version="0.92.1 r15371">
  <metadata
     id="metadata4499">
    <rdf:RDF>
      <cc:Work
         rdf:about="">
        <dc:format>image/svg+xml</dc:format>
        <dc:type
           rdf:resource="http://purl.org/dc/dcmitype/StillImage" />
        <dc:title></dc:title>
      </cc:Work>
    </rdf:RDF>
  </metadata>
  <defs
     id="defs4497" />
  <sodipodi:namedview
     pagecolor="#ffffff"
     bordercolor="#666666"
     borderopacity="1"
     objecttolerance="10"
     gridtolerance="10"
     guidetolerance="10"
     inkscape:pageopacity="0"
     inkscape:pageshadow="2"
     inkscape:window-width="2560"
     inkscape:window-height="1377"
     id="namedview4495"
     showgrid="false"
     inkscape:zoom="140.78434"
     inkscape:cx="4.2902498"
     inkscape:cy="4.2902498"
     inkscape:window-x="-8"
     inkscape:window-y="-8"
     inkscape:window-maximized="1"
     inkscape:current-layer="svg4493" />
  <path
     d="m 4.4991,6.7226 c 0,0 -0.1111,-0.0513 -0.1258,0 C 4.3586,6.774 4.3673,6.806 4.4025,6.8516 4.4376,6.8973 4.5224,6.9982 4.5094,7.0685 4.4963,7.1388 4.4671,7.2125 4.445,7.2357 4.4229,7.259 4.4141,7.2853 4.4714,7.3103 4.5286,7.3352 4.9725,7.5447 5.078,7.577 5.1834,7.6093 5.2744,7.6694 5.5689,7.5858 5.8635,7.5022 6.2076,7.3837 6.2853,7.3148 6.3629,7.2459 6.3686,7.2091 6.3731,7.1036 6.3777,6.9982 6.3879,6.6787 6.3879,6.6787 l -0.923,0.2976 c 0,0 -0.0706,0.0423 -0.2098,0.0043 C 5.116,6.9426 4.4991,6.7226 4.4991,6.7226 Z M 4.4875,6.5835 5.2656,6.846 c 0,0 0.0777,0.0249 0.2197,-0.0176 0.142,-0.0425 1.118,-0.3796 1.118,-0.3796 0,0 0.2548,-0.0833 0.2432,-0.1479 C 6.8349,6.2362 6.7759,6.2082 6.6926,6.1761 6.6093,6.1441 5.4193,5.7484 5.4193,5.7484 c 0,0 -0.1143,-0.0468 -0.2461,-0.0029 -0.1318,0.044 -1.313,0.4513 -1.313,0.4513 0,0 -0.1128,0.0397 -0.1156,0.1114 -0.0029,0.0717 0.1131,0.1058 0.1437,0.1128 0.0306,0.0071 0.2109,0.0746 0.2109,0.0746 0,0 -0.0644,0.1142 -0.0644,0.1451 0,0.0309 -0.0105,0.1656 -0.0572,0.1817 C 3.9308,6.8386 3.7902,6.9046 3.8106,7.0702 3.831,7.2357 3.9875,7.2105 3.9643,7.3205 3.941,7.4305 3.875,7.5787 3.7811,7.668 3.6873,7.7573 3.7973,7.8347 3.812,7.8494 3.8268,7.8642 3.9966,7.9461 4.1066,7.8392 4.2165,7.7323 4.218,7.5626 4.218,7.4687 c 0,-0.0938 -0.0032,-0.201 -0.0032,-0.201 0,0 -0.0028,-0.0394 0.0411,-0.0717 C 4.2999,7.1637 4.3747,7.0713 4.3396,6.982 4.3044,6.8927 4.2457,6.8533 4.2457,6.8533 c 0,0 -0.053,-0.028 -0.0397,-0.0822 C 4.2194,6.717 4.2868,6.5716 4.4011,6.5132 4.5153,6.4548 4.987,6.2538 5.0355,6.2362 5.0839,6.2186 5.292,6.1396 5.3184,6.1557 5.3447,6.1719 5.3711,6.198 5.311,6.2289 5.2509,6.2597 4.6735,6.4942 4.4875,6.5835 Z"
     style="fill:#ffffff;fill-rule:evenodd"
     id="path4485"
     inkscape:connector-curvature="0" />
  <path
     d="M 2.929,1.58 V 3.3525 H 2.5257 L 2.5245,2.156 2.3644,3.3525 H 2.082 L 1.9128,2.183 1.9117,3.3525 H 1.5083 V 1.58 H 2.1042 C 2.1209,1.6872 2.139,1.8136 2.1589,1.9576 L 2.2243,2.4077 2.3292,1.58 Z m 0.9808,0 0.2636,1.7725 H 3.7026 L 3.6777,3.0342 H 3.5113 L 3.4863,3.3525 H 3.0095 L 3.2431,1.58 Z M 3.6652,2.7207 C 3.6431,2.5197 3.6201,2.2711 3.5955,1.974 3.5498,2.3148 3.5212,2.5634 3.5087,2.7207 Z M 4.8708,1.58 V 2.7646 C 4.8708,2.9421 4.8691,3.056 4.8651,3.1068 4.8614,3.1575 4.8447,3.2031 4.8152,3.2443 4.7854,3.2851 4.7449,3.3134 4.6945,3.329 4.6443,3.3446 4.568,3.3525 4.4663,3.3525 H 4.2367 V 3.0421 c 0.0272,0.0023 0.047,0.0034 0.0595,0.0034 0.032,0 0.0578,-0.0079 0.0765,-0.0238 C 4.3914,3.0056 4.4022,2.9857 4.4048,2.9622 4.4079,2.9392 4.4093,2.8939 4.4093,2.8267 V 1.58 Z m 0.9745,0 0.2636,1.7725 H 5.6381 L 5.6132,3.0342 H 5.4468 L 5.4218,3.3525 H 4.945 L 5.1786,1.58 Z M 5.6007,2.7207 C 5.5786,2.5197 5.5556,2.2711 5.531,1.974 5.4853,2.3148 5.4567,2.5634 5.4442,2.7207 Z M 7.1629,2.1178 H 6.7348 V 1.9868 C 6.7348,1.9256 6.7292,1.8862 6.7184,1.8694 6.7076,1.8527 6.6898,1.8445 6.6643,1.8445 c -0.0278,0 -0.0485,0.0111 -0.0627,0.034 -0.0142,0.0224 -0.0215,0.0564 -0.0215,0.1024 0,0.0589 0.0082,0.1034 0.0243,0.1332 0.0156,0.0295 0.059,0.0657 0.1304,0.1083 0.2044,0.1221 0.3331,0.2225 0.3861,0.3007 0.0536,0.078 0.08,0.2038 0.08,0.3773 0,0.1262 -0.0151,0.2191 -0.0446,0.2792 C 7.1269,3.2394 7.0702,3.2893 6.9854,3.3299 6.9009,3.3704 6.8029,3.3905 6.6903,3.3905 6.567,3.3905 6.4621,3.367 6.3748,3.3205 6.2878,3.2737 6.2311,3.2145 6.2036,3.1422 6.177,3.0699 6.1634,2.967 6.1634,2.8346 V 2.7184 h 0.428 v 0.2155 c 0,0.0666 0.006,0.1091 0.0179,0.1281 0.0119,0.019 0.0334,0.0283 0.064,0.0283 0.0306,0 0.0533,-0.0119 0.0683,-0.0363 C 6.7564,3.0302 6.764,2.9945 6.764,2.9475 6.764,2.8431 6.7499,2.7748 6.7212,2.7431 6.6917,2.7111 6.62,2.6572 6.5058,2.5818 6.3916,2.5058 6.3162,2.4506 6.2787,2.4163 6.2419,2.382 6.2107,2.3343 6.1866,2.274 6.1622,2.2136 6.15,2.1362 6.15,2.0421 6.15,1.9066 6.1671,1.8071 6.2019,1.7444 6.2365,1.6818 6.2923,1.6328 6.3694,1.5973 6.4468,1.5619 6.5398,1.5443 6.6492,1.5443 c 0.1197,0 0.2211,0.0193 0.3056,0.0578 0.0839,0.0389 0.1398,0.0873 0.167,0.1463 0.0272,0.0587 0.0411,0.1585 0.0411,0.2993 z"
     style="fill:#ffffff;fill-rule:evenodd"
     id="path4487"
     inkscape:connector-curvature="0" />
  <path
     d="M 1.5083,3.5957 H 1.853 c 0.2222,0 0.3728,0.0103 0.4513,0.0307 0.0782,0.0207 0.138,0.0541 0.1788,0.1009 C 2.5237,3.774 2.5495,3.8259 2.5597,3.8829 2.5696,3.9404 2.575,4.053 2.575,4.2211 V 4.8416 C 2.575,5.0009 2.5676,5.1072 2.5526,5.1605 2.5376,5.2143 2.5115,5.2566 2.4744,5.2869 2.4372,5.3172 2.3913,5.3379 2.3363,5.3504 2.2819,5.3623 2.1991,5.3683 2.0891,5.3683 H 1.5083 Z m 0.4618,0.3025 v 1.1676 c 0.0652,0 0.1054,-0.0136 0.1205,-0.04 C 2.1059,4.9989 2.1132,4.9263 2.1132,4.8081 V 4.1187 C 2.1132,4.0382 2.1107,3.9869 2.1059,3.964 2.1008,3.9413 2.0894,3.9249 2.0713,3.9144 2.0531,3.9036 2.0197,3.8982 1.9701,3.8982 Z M 3.5141,3.5957 3.7777,5.3683 H 3.3069 L 3.282,5.0499 H 3.1156 L 3.0906,5.3683 H 2.6138 L 2.8474,3.5957 Z M 3.2695,4.7364 C 3.2474,4.5354 3.2244,4.2868 3.1997,3.9898 3.1541,4.3305 3.1255,4.5791 3.113,4.7364 Z M 3.829,3.5957 h 0.326 c 0.2174,0 0.3646,0.0083 0.4417,0.025 0.0768,0.017 0.1394,0.0598 0.1882,0.129 0.0485,0.0686 0.0725,0.1788 0.0725,0.3296 0,0.1378 -0.017,0.2305 -0.0513,0.2781 -0.034,0.0474 -0.1017,0.0757 -0.2024,0.0851 0.091,0.0226 0.1526,0.053 0.184,0.0909 0.0315,0.0377 0.0508,0.0729 0.0584,0.1046 0.0077,0.0318 0.0113,0.1194 0.0113,0.2623 v 0.468 H 4.4297 V 4.7786 C 4.4297,4.6837 4.422,4.625 4.4073,4.6023 4.3926,4.5794 4.3537,4.5683 4.2908,4.5683 v 0.8 H 3.829 Z m 0.4618,0.3025 v 0.3946 c 0.0513,0 0.0873,-0.0071 0.1077,-0.0213 C 4.4192,4.2571 4.4297,4.2109 4.4297,4.1329 V 4.0354 C 4.4297,3.979 4.4195,3.9419 4.3997,3.9246 4.3798,3.907 4.3432,3.8982 4.2908,3.8982 Z M 5.008,3.5957 h 0.4586 c 0.1449,0 0.2548,0.0114 0.3294,0.0341 C 5.8708,3.6522 5.9309,3.6981 5.9769,3.767 6.0228,3.8358 6.0454,3.947 6.0454,4.1 6.0454,4.2035 6.0293,4.2755 5.997,4.3163 5.9644,4.3574 5.9003,4.3883 5.8045,4.4104 5.9114,4.4345 5.9839,4.4745 6.0219,4.5303 6.0602,4.5862 6.0792,4.6718 6.0792,4.7874 V 4.9518 C 6.0792,5.0717 6.0653,5.1602 6.0381,5.218 6.0109,5.2756 5.9675,5.3152 5.9077,5.3365 5.8479,5.3578 5.7254,5.3683 5.5403,5.3683 H 5.008 Z M 5.4697,3.8982 V 4.2928 C 5.489,4.2919 5.504,4.2917 5.5148,4.2917 5.5587,4.2917 5.5874,4.2803 5.5993,4.2582 5.6115,4.2358 5.6174,4.172 5.6174,4.0671 5.6174,4.0116 5.6126,3.9728 5.6027,3.9501 5.5925,3.9283 5.5794,3.9141 5.5633,3.9081 5.5474,3.9025 5.5159,3.8991 5.4697,3.8982 Z m 0,0.6701 V 5.0658 C 5.5332,5.0635 5.5738,5.0533 5.5913,5.0352 5.6089,5.0168 5.6174,4.9717 5.6174,4.9 V 4.7341 C 5.6174,4.6579 5.6098,4.612 5.5939,4.5955 5.5783,4.5794 5.5369,4.5706 5.4697,4.5683 Z M 7.1923,4.1335 H 6.7643 V 4.0025 C 6.7643,3.9413 6.7586,3.9019 6.7479,3.8852 6.7371,3.8684 6.7192,3.8602 6.6937,3.8602 6.666,3.8602 6.6453,3.8713 6.6311,3.8942 6.6169,3.9166 6.6095,3.9506 6.6095,3.9966 c 0,0.0589 0.0083,0.1034 0.0244,0.1332 0.0156,0.0295 0.059,0.0658 0.1304,0.1083 0.2044,0.1222 0.3331,0.2225 0.3861,0.3007 0.0536,0.078 0.0799,0.2038 0.0799,0.3773 0,0.1262 -0.015,0.2191 -0.0445,0.2792 C 7.1563,5.2551 7.0997,5.305 7.0149,5.3456 6.9304,5.3861 6.8323,5.4062 6.7198,5.4062 6.5965,5.4062 6.4916,5.3827 6.4043,5.3362 6.3173,5.2894 6.2606,5.2302 6.2331,5.1579 6.2065,5.0856 6.1929,4.9827 6.1929,4.8504 V 4.7341 h 0.428 v 0.2155 c 0,0.0666 0.0059,0.1091 0.0178,0.1281 0.0119,0.019 0.0335,0.0283 0.0641,0.0283 0.0306,0 0.0533,-0.0119 0.0683,-0.0362 C 6.7859,5.046 6.7935,5.0102 6.7935,4.9632 6.7935,4.8589 6.7793,4.7906 6.7507,4.7588 6.7212,4.7268 6.6495,4.6729 6.5353,4.5975 6.421,4.5215 6.3456,4.4663 6.3082,4.432 6.2714,4.3977 6.2402,4.35 6.2161,4.2897 6.1917,4.2293 6.1795,4.1519 6.1795,4.0578 6.1795,3.9223 6.1965,3.8228 6.2314,3.7602 6.266,3.6975 6.3218,3.6485 6.3989,3.613 6.4763,3.5776 6.5693,3.56 6.6787,3.56 6.7983,3.56 6.8998,3.5793 6.9843,3.6179 7.0682,3.6567 7.124,3.7052 7.1512,3.7641 7.1785,3.8228 7.1923,3.9226 7.1923,4.0635 Z M 7.6309,5.0074 V 5.3683 H 7.2969 V 5.0074 Z"
     style="fill:#ffffff;fill-rule:evenodd"
     id="path4489"
     inkscape:connector-curvature="0" />
  <path
     d="M 1.8663,5.6222 V 6.7224 H 2.082 V 6.997 H 1.5083 V 5.6222 Z m 1.078,0 L 2.7635,6.997 H 2.2221 L 2.0146,5.6222 H 2.3919 C 2.4344,6.0015 2.4653,6.3221 2.4849,6.5843 2.5038,6.3193 2.5237,6.084 2.5435,5.8788 L 2.5673,5.6222 Z"
     style="fill:#ffffff;fill-rule:evenodd"
     id="path4491"
     inkscape:connector-curvature="0" />
</svg>
