<?xml version="1.0" encoding="UTF-8" standalone="no"?>
<!-- Created with Inkscape (http://www.inkscape.org/) -->

<svg
   xmlns:dc="http://purl.org/dc/elements/1.1/"
   xmlns:cc="http://creativecommons.org/ns#"
   xmlns:rdf="http://www.w3.org/1999/02/22-rdf-syntax-ns#"
   xmlns:svg="http://www.w3.org/2000/svg"
   xmlns="http://www.w3.org/2000/svg"
   xmlns:sodipodi="http://sodipodi.sourceforge.net/DTD/sodipodi-0.dtd"
   xmlns:inkscape="http://www.inkscape.org/namespaces/inkscape"
   version="1.1"
   id="svg4485"
   width="57.333328"
   height="45.333332"
   viewBox="0 0 57.333328 45.333332"
   sodipodi:docname="quote.svg"
   inkscape:version="0.92.1 r15371">
  <metadata
     id="metadata4491">
    <rdf:RDF>
      <cc:Work
         rdf:about="">
        <dc:format>image/svg+xml</dc:format>
        <dc:type
           rdf:resource="http://purl.org/dc/dcmitype/StillImage" />
        <dc:title></dc:title>
      </cc:Work>
    </rdf:RDF>
  </metadata>
  <defs
     id="defs4489" />
  <sodipodi:namedview
     pagecolor="#ffffff"
     bordercolor="#666666"
     borderopacity="1"
     objecttolerance="10"
     gridtolerance="10"
     guidetolerance="10"
     inkscape:pageopacity="0"
     inkscape:pageshadow="2"
     inkscape:window-width="2560"
     inkscape:window-height="1377"
     id="namedview4487"
     showgrid="false"
     inkscape:zoom="26.64706"
     inkscape:cx="28.666666"
     inkscape:cy="13.067104"
     inkscape:window-x="-8"
     inkscape:window-y="-8"
     inkscape:window-maximized="1"
     inkscape:current-layer="svg4485" />
  <path
     style="opacity:1;fill:#ffffff;fill-opacity:1;stroke:none;stroke-width:11.58425236;stroke-miterlimit:4;stroke-dasharray:none"
     d="M 0 0 L 0 3.078125 L 0 23.679688 L 0 26.757812 L 3.078125 26.757812 L 7.5800781 26.757812 L 7.5800781 38.615234 L 7.5800781 39.693359 L 7.5800781 42.769531 L 7.5800781 44.769531 L 10.658203 41.693359 L 26.832031 26.757812 L 26.832031 23.679688 L 26.832031 3.078125 L 26.832031 0 L 23.755859 0 L 3.078125 0 L 0 0 z M 30.501953 0 L 30.501953 3.078125 L 30.501953 23.679688 L 30.501953 26.757812 L 33.578125 26.757812 L 38.082031 26.757812 L 38.082031 38.615234 L 38.082031 39.693359 L 38.082031 42.769531 L 38.082031 44.769531 L 41.158203 41.693359 L 57.333984 26.757812 L 57.333984 23.679688 L 57.333984 3.078125 L 57.333984 0 L 54.255859 0 L 33.578125 0 L 30.501953 0 z M 3.078125 3.078125 L 23.755859 3.078125 L 23.755859 23.679688 L 23.755859 24.382812 L 10.658203 36.615234 L 10.658203 26.757812 L 10.658203 23.679688 L 7.5800781 23.679688 L 3.078125 23.679688 L 3.078125 3.078125 z M 33.578125 3.078125 L 54.255859 3.078125 L 54.255859 23.679688 L 54.255859 24.382812 L 41.158203 36.615234 L 41.158203 26.757812 L 41.158203 23.679688 L 38.082031 23.679688 L 33.578125 23.679688 L 33.578125 3.078125 z M 5.0664062 4.9902344 L 5.0664062 21.728516 L 13.171875 21.728516 L 13.171875 30.060547 L 21.802734 21.728516 L 21.802734 4.9902344 L 5.0664062 4.9902344 z M 35.566406 4.9902344 L 35.566406 21.728516 L 43.673828 21.728516 L 43.673828 30.060547 L 52.304688 21.728516 L 52.304688 4.9902344 L 35.566406 4.9902344 z "
     id="rect4495" />
</svg>
