<?xml version="1.0" encoding="UTF-8" standalone="no"?>
<svg
   xmlns:dc="http://purl.org/dc/elements/1.1/"
   xmlns:cc="http://creativecommons.org/ns#"
   xmlns:rdf="http://www.w3.org/1999/02/22-rdf-syntax-ns#"
   xmlns:svg="http://www.w3.org/2000/svg"
   xmlns="http://www.w3.org/2000/svg"
   xmlns:sodipodi="http://sodipodi.sourceforge.net/DTD/sodipodi-0.dtd"
   xmlns:inkscape="http://www.inkscape.org/namespaces/inkscape"
   version="1.1"
   width="3.7757001"
   height="5.1420002"
   id="svg3970"
   viewBox="0 0 3.7757001 5.1420002"
   sodipodi:docname="road-sign.svg"
   inkscape:version="0.92.1 r15371">
  <metadata
     id="metadata3976">
    <rdf:RDF>
      <cc:Work
         rdf:about="">
        <dc:format>image/svg+xml</dc:format>
        <dc:type
           rdf:resource="http://purl.org/dc/dcmitype/StillImage" />
        <dc:title></dc:title>
      </cc:Work>
    </rdf:RDF>
  </metadata>
  <defs
     id="defs3974" />
  <sodipodi:namedview
     pagecolor="#ffffff"
     bordercolor="#666666"
     borderopacity="1"
     objecttolerance="10"
     gridtolerance="10"
     guidetolerance="10"
     inkscape:pageopacity="0"
     inkscape:pageshadow="2"
     inkscape:window-width="640"
     inkscape:window-height="480"
     id="namedview3972"
     showgrid="false"
     inkscape:zoom="45.896537"
     inkscape:cx="1.88785"
     inkscape:cy="2.5710001"
     inkscape:window-x="0"
     inkscape:window-y="0"
     inkscape:window-maximized="0"
     inkscape:current-layer="svg3970" />
  <g
     id="Layer1000">
    <path
       d="m -6e-4,0.0564 v 0.9825 q 0,0.0567 0.0567,0.0567 h 3.6635 q 0.0567,0 0.0567,-0.0567 V 0.0564 Q 3.7763,-3e-4 3.7196,-3e-4 H 0.0561 q -0.0567,0 -0.0567,0.0567 z"
       style="fill:#ffffff;fill-rule:evenodd"
       id="path3958"
       inkscape:connector-curvature="0" />
    <path
       d="M 0.1108,0.1379 V 0.96 q 0,0.0474 0.0475,0.0474 h 3.4592 q 0.0474,0 0.0474,-0.0474 V 0.1379 q 0,-0.0475 -0.0474,-0.0475 H 0.1583 q -0.0475,0 -0.0475,0.0475 z"
       style="fill:none;stroke:#565757;stroke-width:0.04;stroke-linecap:butt;stroke-linejoin:miter;stroke-dasharray:none"
       id="path3960"
       inkscape:connector-curvature="0" />
    <path
       d="M 1.3792,0.5778 H 1.2158 v 0.1031 h 0.193 V 0.761 H 1.1117 V 0.3298 h 0.2977 v 0.08 H 1.2158 v 0.091 h 0.1634 z m 0.3393,0 H 1.5551 V 0.6809 H 1.7482 V 0.761 H 1.4511 V 0.3298 h 0.2977 v 0.08 H 1.5551 v 0.091 H 1.7185 Z M 2.0129,0.6465 C 2.0129,0.6312 2.0074,0.6194 1.9967,0.6109 1.9859,0.6024 1.967,0.5936 1.94,0.5845 1.9129,0.5754 1.8909,0.5666 1.8737,0.5581 1.8178,0.5306 1.7899,0.4929 1.7899,0.4449 1.7899,0.421 1.7968,0.3999 1.8107,0.3816 1.8247,0.3633 1.8444,0.3492 1.8699,0.339 1.8952,0.3288 1.9239,0.3237 1.9557,0.3237 c 0.031,0 0.0588,0.0056 0.0834,0.0166 0.0245,0.011 0.0436,0.0268 0.0573,0.0472 C 2.11,0.4079 2.1168,0.4313 2.1168,0.4574 H 2.0132 C 2.0132,0.4399 2.0077,0.4262 1.997,0.4165 1.9862,0.4068 1.9716,0.4019 1.9534,0.4019 1.9348,0.4019 1.9201,0.4061 1.9094,0.4143 1.8986,0.4225 1.8932,0.433 1.8932,0.4456 c 0,0.0111 0.006,0.0211 0.0178,0.0301 0.0118,0.009 0.0326,0.0183 0.0625,0.0279 0.0298,0.0096 0.0542,0.02 0.0734,0.0311 0.0465,0.0269 0.0699,0.0638 0.0699,0.1112 0,0.0377 -0.0143,0.0673 -0.0427,0.0888 C 2.0457,0.7562 2.0067,0.7671 1.9572,0.7671 1.9222,0.7671 1.8906,0.7608 1.8623,0.7483 1.834,0.7357 1.8126,0.7185 1.7983,0.6967 1.7839,0.6749 1.7769,0.6497 1.7769,0.6213 h 0.1042 c 0,0.023 0.0059,0.0401 0.0179,0.051 0.0119,0.0111 0.0313,0.0165 0.0582,0.0165 0.0172,0 0.0307,-0.0037 0.0407,-0.0111 0.0099,-0.0074 0.015,-0.0178 0.015,-0.0312 z M 2.5086,0.4098 H 2.3792 V 0.761 H 2.2752 V 0.4098 H 2.1481 v -0.08 H 2.5086 Z M 2.6631,0.761 H 2.5595 V 0.3298 h 0.1036 z"
       style="fill:#404041;fill-rule:evenodd"
       id="path3962"
       inkscape:connector-curvature="0" />
    <g
       id="Layer1001">
      <path
         d="m 1.7133,5.1426 v -4.047 h 0.1114 v 4.047 z"
         style="fill:#666666;fill-rule:evenodd"
         id="path3964"
         inkscape:connector-curvature="0" />
      <path
         d="m 1.8247,5.1426 v -4.047 h 0.1114 v 4.047 z"
         style="fill:#404041;fill-rule:evenodd"
         id="path3966"
         inkscape:connector-curvature="0" />
    </g>
  </g>
</svg>
