<?xml version="1.0" encoding="UTF-8" standalone="no"?>
<svg
   xmlns:dc="http://purl.org/dc/elements/1.1/"
   xmlns:cc="http://creativecommons.org/ns#"
   xmlns:rdf="http://www.w3.org/1999/02/22-rdf-syntax-ns#"
   xmlns:svg="http://www.w3.org/2000/svg"
   xmlns="http://www.w3.org/2000/svg"
   xmlns:sodipodi="http://sodipodi.sourceforge.net/DTD/sodipodi-0.dtd"
   xmlns:inkscape="http://www.inkscape.org/namespaces/inkscape"
   version="1.1"
   width="11.9282"
   height="6.2816"
   id="svg4000"
   viewBox="0 0 11.9282 6.2816"
   sodipodi:docname="truck.svg"
   inkscape:version="0.92.1 r15371">
  <metadata
     id="metadata4006">
    <rdf:RDF>
      <cc:Work
         rdf:about="">
        <dc:format>image/svg+xml</dc:format>
        <dc:type
           rdf:resource="http://purl.org/dc/dcmitype/StillImage" />
        <dc:title></dc:title>
      </cc:Work>
    </rdf:RDF>
  </metadata>
  <defs
     id="defs4004" />
  <sodipodi:namedview
     pagecolor="#ffffff"
     bordercolor="#666666"
     borderopacity="1"
     objecttolerance="10"
     gridtolerance="10"
     guidetolerance="10"
     inkscape:pageopacity="0"
     inkscape:pageshadow="2"
     inkscape:window-width="640"
     inkscape:window-height="480"
     id="namedview4002"
     showgrid="false"
     inkscape:zoom="23.809125"
     inkscape:cx="5.9640999"
     inkscape:cy="3.1408"
     inkscape:window-x="0"
     inkscape:window-y="0"
     inkscape:window-maximized="0"
     inkscape:current-layer="svg4000" />
  <path
     d="M 3.8157,5.2693 3.5773,5.0556 1.5908,5.0321 1.3212,5.2458 1.1854,4.5743 1.9162,3.8163 3.009,3.7312 3.9407,4.0184 Z M 8.2729,5.2546 8.555,4.9822 10.5474,5.0261 10.7303,5.2135 10.9369,4.9207 10.8374,4.2469 9.7007,3.7372 8.7749,3.8571 8.1332,4.1854 Z"
     style="fill:#7c94a3;fill-rule:evenodd"
     id="path3978"
     inkscape:connector-curvature="0" />
  <path
     d="M 0.0763,6e-4 7.6294,0.036 7.6175,3.3758 7.7349,3.3817 7.7525,1.0261 9.4691,1.0437 c 0,0 0.4218,0.0584 0.6387,0.3515 0.2168,0.2931 0.885,1.3771 0.885,1.3771 L 11.8131,3.1297 11.8774,3.7743 11.7133,4.6531 10.9049,4.665 10.5707,4.2724 9.8209,3.7684 9.0414,3.8622 8.35,4.4597 8.2621,4.7704 3.8557,4.8115 3.5277,4.0966 2.971,3.7919 1.9514,3.9149 1.4182,4.6942 0.0882,4.7293 Z M 8.0626,1.338 8.0977,2.8497 10.6792,2.8264 9.9788,1.6778 c 0,0 -0.1261,-0.3458 -0.7588,-0.3458 -0.6327,0 -1.1574,0.006 -1.1574,0.006 z"
     style="fill:#ec222a;fill-rule:evenodd"
     id="path3980"
     inkscape:connector-curvature="0" />
  <path
     d="M 7.7471,1.0261 7.7233,4.6981 4.0042,4.674 C 3.8347,4.0683 3.261,3.6221 2.579,3.6221 1.904,3.6221 1.3351,4.0589 1.1588,4.6553 L 3e-4,4.6477 l 0.0059,0.3634 1.0968,8e-4 0.248,3e-4 C 1.4423,4.3841 1.9579,3.9027 2.5801,3.9027 c 0.623,0 1.1395,0.4819 1.2299,1.1109 l 0.245,3e-4 4.022,0.0029 0.2092,-0.002 C 8.3588,4.3654 8.8804,3.8616 9.5128,3.8616 c 0.6245,0 1.1409,0.4913 1.2234,1.1288 L 10.9037,4.9887 11.6966,4.9932 11.7142,4.6417 10.923,4.6769 H 10.9171 C 10.851,4.0555 10.2359,3.5694 9.4873,3.5694 8.7296,3.5694 8.1085,4.068 8.0555,4.7004 H 8.0459 L 7.8644,4.699 7.8877,1.0261 Z"
     style="fill:#b72127;fill-rule:evenodd"
     id="path3982"
     inkscape:connector-curvature="0" />
  <path
     d="M 3.81,5.0136 3.8166,5.3218 8.2732,5.2982 8.2706,5.0148 Z M 1.351,5.0122 1.3652,5.3016 0.0995,5.2957 0.0998,5.0111 Z m 9.3852,-0.0218 -0.0076,0.2755 1.0783,0.0031 c 0,0 0.0343,-0.1698 -0.038,-0.2228 -0.0723,-0.053 -0.0723,-0.053 -0.0723,-0.053 z"
     style="fill:#14597c;fill-rule:evenodd"
     id="path3984"
     inkscape:connector-curvature="0" />
  <path
     d="M 11.8766,3.7845 11.9279,4.2622 11.5997,4.252 c 0,0 -0.1231,-0.0176 -0.1157,-0.1304 0.0074,-0.1128 0.0777,-0.3192 0.1729,-0.3413 0.0953,-0.0221 0.2197,0.0042 0.2197,0.0042 z"
     style="fill:#ffffff;fill-rule:evenodd"
     id="path3986"
     inkscape:connector-curvature="0" />
  <path
     d="M 2.6012,4.2129 A 1.0342,1.0342 0 0 1 3.6354,5.2471 1.0342,1.0342 0 1 1 2.6012,4.2129 Z"
     style="fill:#404041;fill-rule:evenodd"
     id="path3988"
     inkscape:connector-curvature="0" />
  <path
     d="M 2.6013,4.6875 A 0.5595,0.5595 0 0 1 3.1608,5.247 0.5595,0.5595 0 1 1 2.6013,4.6875 Z"
     style="fill:#999c9d;fill-rule:evenodd"
     id="path3990"
     inkscape:connector-curvature="0" />
  <path
     d="M 9.539,4.2069 A 1.0342,1.0342 0 0 1 10.5732,5.2411 1.0342,1.0342 0 1 1 9.539,4.2069 Z"
     style="fill:#404041;fill-rule:evenodd"
     id="path3992"
     inkscape:connector-curvature="0" />
  <path
     d="M 9.5391,4.6816 A 0.5595,0.5595 0 0 1 10.0986,5.2411 0.5595,0.5595 0 1 1 9.5391,4.6816 Z"
     style="fill:#999c9d;fill-rule:evenodd"
     id="path3994"
     inkscape:connector-curvature="0" />
  <path
     d="M 4.5906,2.0479 C 4.7915,2.0465 4.9556,2.1985 4.957,2.4094 4.9584,2.6204 4.7963,2.7746 4.5954,2.776 4.3943,2.7773 4.2314,2.6252 4.23,2.4142 4.2286,2.2033 4.3895,2.0492 4.5906,2.0479 Z M 6.1893,2.082 C 6.1823,2.0643 6.1648,2.0519 6.1445,2.0519 l -0.0667,4e-4 H 6.0777 C 6.0576,2.0525 6.0403,2.0653 6.0334,2.083 L 5.7623,2.7543 5.9123,2.7533 5.9634,2.6188 6.2663,2.6168 6.3191,2.7506 6.4689,2.7496 Z M 6.0107,2.4956 v 0 L 6.0784,2.3183 C 6.0932,2.2792 6.1106,2.2212 6.1117,2.2212 h 0.0011 c 8e-4,0 0.0194,0.0578 0.0346,0.0966 L 6.2175,2.4943 Z M 2.4574,2.11 C 2.4513,2.0905 2.433,2.0765 2.4115,2.0766 L 2.345,2.077 h -1e-4 C 2.325,2.0771 2.308,2.0894 2.3008,2.1066 l -0.2716,0.6723 0.1502,-0.001 0.051,-0.1344 0.3029,-0.002 0.0528,0.1338 0.15,-10e-4 z M 2.2776,2.5203 v 0 L 2.3454,2.3429 C 2.3602,2.3039 2.3777,2.2459 2.3787,2.2458 h 0.001 c 9e-4,0 0.0194,0.0578 0.0346,0.0967 L 2.4844,2.5189 Z M 3.9729,2.3872 V 2.3861 C 4.0198,2.3718 4.0694,2.3136 4.069,2.2465 4.0683,2.1447 3.9827,2.0662 3.8588,2.067 l -0.1349,9e-4 -0.1069,7e-4 C 3.5903,2.0688 3.5691,2.0904 3.5692,2.1171 L 3.5735,2.7687 3.8674,2.7668 C 4.0323,2.7657 4.1107,2.6732 4.1099,2.5552 4.1094,2.4742 4.04,2.4017 3.9729,2.3872 Z M 3.7087,2.1859 v 0 l 0.1229,-8e-4 c 0.0569,-4e-4 0.0972,0.0326 0.0975,0.0794 3e-4,0.0451 -0.0395,0.0812 -0.0964,0.0816 l -0.123,8e-4 z m 0.1449,0.463 v 0 L 3.7117,2.6498 3.7104,2.4539 3.8514,2.4529 C 3.9143,2.4525 3.9636,2.4912 3.964,2.5501 3.9644,2.6092 3.9196,2.6484 3.8536,2.6489 Z M 5.5098,2.4909 C 5.5945,2.4555 5.641,2.3851 5.6404,2.2891 5.6395,2.1483 5.5359,2.0559 5.364,2.057 L 5.1671,2.0583 C 5.1407,2.0585 5.1192,2.0802 5.1194,2.1068 l 0.0043,0.6517 0.1391,-9e-4 -0.0016,-0.239 0.1059,-7e-4 c 0.0031,0 0.0049,0 0.008,0 l 0.1406,0.238 0.1557,-10e-4 z M 5.3842,2.3938 v 0 L 5.2604,2.3946 5.259,2.1878 5.3828,2.187 c 0.0761,-5e-4 0.1133,0.0482 0.1137,0.1031 3e-4,0.053 -0.0354,0.1032 -0.1123,0.1037 z M 3.244,2.5058 C 3.3288,2.4705 3.3753,2.4001 3.3746,2.3041 3.3737,2.1633 3.2701,2.0709 3.0981,2.072 L 2.9013,2.0733 v 0 C 2.8749,2.0735 2.8534,2.0951 2.8535,2.1218 L 2.8578,2.7735 2.9969,2.7725 2.9953,2.5336 3.1012,2.5329 c 0.0031,0 0.005,0 0.0079,0 L 3.2498,2.7709 3.4057,2.7698 Z M 3.1184,2.4087 v 0 l -0.1239,9e-4 -0.0014,-0.2068 0.124,-8e-4 c 0.076,-6e-4 0.1133,0.0482 0.1136,0.103 4e-4,0.053 -0.0353,0.1032 -0.1123,0.1037 z M 1.8121,2.4015 V 2.4004 C 1.8588,2.3861 1.9084,2.3278 1.908,2.2608 1.9073,2.159 1.8219,2.0804 1.6978,2.0813 L 1.4561,2.0829 C 1.4296,2.083 1.4082,2.1047 1.4084,2.1313 L 1.4127,2.783 1.7064,2.7811 C 1.8715,2.78 1.9497,2.6874 1.9489,2.5694 1.9484,2.4885 1.879,2.416 1.8121,2.4015 Z M 1.5477,2.2002 v 0 l 0.123,-8e-4 C 1.7276,2.199 1.7678,2.2319 1.7682,2.2788 1.7685,2.3238 1.7287,2.36 1.6717,2.3604 l -0.1229,8e-4 z m 0.1452,0.4629 v 0 l -0.1421,10e-4 -0.0013,-0.196 0.141,-9e-4 c 0.0631,-4e-4 0.1123,0.0383 0.1127,0.0972 3e-4,0.0591 -0.0444,0.0983 -0.1103,0.0987 z M 4.5945,2.6387 v 0 C 4.7235,2.6378 4.8128,2.5445 4.8119,2.4104 4.811,2.2754 4.7205,2.1839 4.5915,2.1848 4.4634,2.1856 4.3741,2.2782 4.375,2.4132 c 9e-4,0.1342 0.0914,0.2263 0.2195,0.2255 z"
     style="fill:#ffffff;fill-rule:evenodd"
     id="path3996"
     inkscape:connector-curvature="0" />
  <path
     d="m 3.5686,2.0083 c 0,0 -0.0359,-0.2457 0.2846,-0.2886 0,0 -0.0156,0.2515 -0.2846,0.2886 z"
     style="fill:#34a82b;fill-rule:evenodd"
     id="path3998"
     inkscape:connector-curvature="0" />
</svg>
