<?xml version="1.0" encoding="UTF-8" standalone="no"?>
<!-- Created with Inkscape (http://www.inkscape.org/) -->

<svg
   xmlns:dc="http://purl.org/dc/elements/1.1/"
   xmlns:cc="http://creativecommons.org/ns#"
   xmlns:rdf="http://www.w3.org/1999/02/22-rdf-syntax-ns#"
   xmlns:svg="http://www.w3.org/2000/svg"
   xmlns="http://www.w3.org/2000/svg"
   xmlns:sodipodi="http://sodipodi.sourceforge.net/DTD/sodipodi-0.dtd"
   xmlns:inkscape="http://www.inkscape.org/namespaces/inkscape"
   width="229.19mm"
   height="149.68201mm"
   viewBox="0 0 229.19 149.68201"
   version="1.1"
   id="svg8"
   inkscape:version="0.92.4 (5da689c313, 2019-01-14)"
   sodipodi:docname="wink-dark.svg">
  <defs
     id="defs2" />
  <sodipodi:namedview
     id="base"
     pagecolor="#ffffff"
     bordercolor="#666666"
     borderopacity="1.0"
     inkscape:pageopacity="0.0"
     inkscape:pageshadow="2"
     inkscape:zoom="0.87"
     inkscape:cx="280.427"
     inkscape:cy="345.36866"
     inkscape:document-units="mm"
     inkscape:current-layer="layer1"
     showgrid="false"
     inkscape:window-width="2560"
     inkscape:window-height="1377"
     inkscape:window-x="-8"
     inkscape:window-y="-8"
     inkscape:window-maximized="1" />
  <metadata
     id="metadata5">
    <rdf:RDF>
      <cc:Work
         rdf:about="">
        <dc:format>image/svg+xml</dc:format>
        <dc:type
           rdf:resource="http://purl.org/dc/dcmitype/StillImage" />
        <dc:title></dc:title>
      </cc:Work>
    </rdf:RDF>
  </metadata>
  <g
     inkscape:label="Layer 1"
     inkscape:groupmode="layer"
     id="layer1"
     transform="translate(0,-147.318)">
    <path
       inkscape:connector-curvature="0"
       style="fill:#333333;fill-opacity:1;stroke:none;stroke-width:0.28874093"
       d="m 177.92103,147.31797 v 5.3e-4 a 3.3747458,3.3747458 0 0 0 -1.68672,0.45579 l -0.003,-0.003 c 0,0 -9.22322,5.29024 -13.13874,7.45277 -3.20926,1.77251 -3.44225,3.9058 -3.42355,4.6266 -0.0188,0.72079 0.21429,2.8541 3.42355,4.62659 3.91552,2.16253 13.13874,7.45277 13.13874,7.45277 l 0.003,-0.003 a 3.3747458,3.3747458 0 0 0 1.68672,0.45578 3.3747458,3.3747458 0 0 0 3.37447,-3.37498 3.3747458,3.3747458 0 0 0 -1.69034,-2.92076 l 0.003,-0.005 -11.36417,-6.23166 11.36467,-6.23166 -0.003,-0.005 a 3.3747458,3.3747458 0 0 0 1.69034,-2.92075 3.3747458,3.3747458 0 0 0 -3.37447,-3.37499 z m -77.27642,1.80661 a 11.603578,11.603578 0 0 0 -11.603942,11.60343 11.603578,11.603578 0 0 0 11.603942,11.60394 11.603578,11.603578 0 0 0 11.60343,-11.60394 11.603578,11.603578 0 0 0 -11.60343,-11.60343 z m 119.24233,38.68085 a 9.3029756,9.3029756 0 0 0 -7.45691,3.75894 l -0.0161,-0.0119 -18.43196,25.91623 0.0336,0.0109 a 9.3029756,9.3029756 0 0 0 -1.84536,5.4901 9.3029756,9.3029756 0 0 0 1.84536,5.48961 l -0.0336,0.0114 18.43196,25.91573 0.0161,-0.0114 a 9.3029756,9.3029756 0 0 0 7.45691,3.75843 9.3029756,9.3029756 0 0 0 9.3033,-9.3028 9.3029756,9.3029756 0 0 0 -1.70685,-5.35159 l 0.0108,-0.008 -14.59241,-20.50161 14.59241,-20.50157 -0.0108,-0.008 a 9.3029756,9.3029756 0 0 0 1.70685,-5.3511 9.3029756,9.3029756 0 0 0 -9.3033,-9.30331 z M 88.534756,272.23387 c -2.58019,-1e-4 -4.671875,2.19366 -4.672065,4.89995 0.0011,1.86783 1.014716,3.57251 2.613276,4.39561 27.064273,16.97503 50.851673,15.4342 50.851673,15.4342 0,0 23.7869,1.54085 50.85115,-15.4342 1.59859,-0.8231 2.6121,-2.52778 2.61329,-4.39561 -1.8e-4,-2.70629 -2.0919,-4.90005 -4.67206,-4.89995 -0.98531,0.003 -1.94495,0.3306 -2.74143,0.93896 -5e-5,-3e-5 -0.40775,0.27077 -0.40775,0.27077 0,0 -20.29632,14.27144 -45.6432,13.83483 -25.34689,0.43661 -45.643721,-13.83483 -45.643721,-13.83483 0,0 -0.407678,-0.2708 -0.407728,-0.27077 -0.796499,-0.60836 -1.756135,-0.93697 -2.741435,-0.93896 z"
       id="path828" />
    <path
       style="fill:#fbc509;fill-opacity:1;stroke:none;stroke-width:0.225471"
       d="m 152.01346,187.40275 a 30.080249,30.080249 0 0 0 -2.58279,0.13074 30.080249,30.080249 0 0 0 -1.39733,0.1695 30.080249,30.080249 0 0 0 -1.60559,0.24391 30.080249,30.080249 0 0 0 -1.28467,0.28836 30.080249,30.080249 0 0 0 -1.66295,0.42529 30.080249,30.080249 0 0 0 -1.16686,0.38809 30.080249,30.080249 0 0 0 -1.6862,0.6165 30.080249,30.080249 0 0 0 -1.06505,0.47646 30.080249,30.080249 0 0 0 -1.67173,0.80874 30.080249,30.080249 0 0 0 -0.95395,0.54725 30.080249,30.080249 0 0 0 -1.64383,1.00924 30.080249,30.080249 0 0 0 -0.8294,0.59324 30.080249,30.080249 0 0 0 -1.59887,1.21698 30.080249,30.080249 0 0 0 -0.70642,0.62064 30.080249,30.080249 0 0 0 -1.52704,1.4242 30.080249,30.080249 0 0 0 -0.59583,0.63924 30.080249,30.080249 0 0 0 -1.4118,1.60869 30.080249,30.080249 0 0 0 -0.50849,0.66921 30.080249,30.080249 0 0 0 -1.26866,1.77663 30.080249,30.080249 0 0 0 -0.40876,0.66715 30.080249,30.080249 0 0 0 -1.11001,1.93683 30.080249,30.080249 0 0 0 -0.32659,0.67644 30.080249,30.080249 0 0 0 -0.92501,2.07068 30.080249,30.080249 0 0 0 -0.2434,0.66611 30.080249,30.080249 0 0 0 -0.72399,2.18332 30.080249,30.080249 0 0 0 -0.17311,0.678 30.080249,30.080249 0 0 0 -0.50436,2.25309 30.080249,30.080249 0 0 0 -0.10232,0.678 30.080249,30.080249 0 0 0 -0.27957,2.31303 30.080249,30.080249 0 0 0 -0.0863,1.48208 h -0.007 v 0.19586 a 30.080249,30.080249 0 0 0 -0.0222,0.62683 30.080249,30.080249 0 0 0 0.009,0.24547 h 0.003 0.01 v 31.44976 h 0.004 a 9.0609617,9.0609617 0 0 0 9.05732,8.955 9.0609617,9.0609617 0 0 0 9.05578,-8.955 h 0.005 v -0.10594 -32.35255 a 11.973483,11.973483 0 0 1 9.40511,-10.93318 11.973484,11.973484 0 0 1 0.0894,-0.0227 11.973483,11.973483 0 0 1 0.90175,-0.14263 11.973484,11.973484 0 0 1 0.29456,-0.0444 11.973483,11.973483 0 0 1 0.73174,-0.0419 11.973484,11.973484 0 0 1 0.51263,-0.0258 11.973483,11.973483 0 0 1 10e-4,0 11.973483,11.973483 0 0 1 0.5855,0.0294 11.973484,11.973484 0 0 1 0.6537,0.0372 11.973483,11.973483 0 0 1 0.34675,0.0527 11.973484,11.973484 0 0 1 0.8537,0.13539 11.973483,11.973483 0 0 1 0.1142,0.0289 11.973484,11.973484 0 0 1 1.0511,0.27595 11.973484,11.973484 0 0 1 8.33024,10.65103 v 32.35255 0.10594 h 0.005 a 9.0609617,9.0609617 0 0 0 9.05578,8.955 9.0609617,9.0609617 0 0 0 9.05733,-8.955 h 0.004 v -31.44976 h 0.01 0.004 a 30.080249,30.080249 0 0 0 0.009,-0.24547 30.080249,30.080249 0 0 0 -0.0222,-0.62683 v -0.19586 h -0.007 a 30.080249,30.080249 0 0 0 -0.0863,-1.48156 30.080249,30.080249 0 0 0 -0.28267,-2.33577 30.080249,30.080249 0 0 0 -0.0971,-0.64441 30.080249,30.080249 0 0 0 -0.5085,-2.27273 30.080249,30.080249 0 0 0 -0.17053,-0.66869 30.080249,30.080249 0 0 0 -0.7245,-2.18436 30.080249,30.080249 0 0 0 -0.24288,-0.6656 30.080249,30.080249 0 0 0 -0.93121,-2.08307 30.080249,30.080249 0 0 0 -0.31833,-0.6594 30.080249,30.080249 0 0 0 -1.11362,-1.94458 30.080249,30.080249 0 0 0 -0.40773,-0.66456 30.080249,30.080249 0 0 0 -1.26866,-1.77663 30.080249,30.080249 0 0 0 -0.50849,-0.66921 30.080249,30.080249 0 0 0 -1.4118,-1.60869 30.080249,30.080249 0 0 0 -0.59583,-0.63924 30.080249,30.080249 0 0 0 -1.52704,-1.4242 30.080249,30.080249 0 0 0 -0.70642,-0.62064 30.080249,30.080249 0 0 0 -1.603,-1.22008 30.080249,30.080249 0 0 0 -0.82269,-0.58807 30.080249,30.080249 0 0 0 -1.65365,-1.01544 30.080249,30.080249 0 0 0 -0.94361,-0.54157 30.080249,30.080249 0 0 0 -1.67845,-0.81184 30.080249,30.080249 0 0 0 -1.06091,-0.47491 30.080249,30.080249 0 0 0 -1.68672,-0.6165 30.080249,30.080249 0 0 0 -1.16686,-0.38809 30.080249,30.080249 0 0 0 -1.66294,-0.42529 30.080249,30.080249 0 0 0 -1.28468,-0.28836 30.080249,30.080249 0 0 0 -1.60559,-0.24391 30.080249,30.080249 0 0 0 -1.39733,-0.1695 30.080249,30.080249 0 0 0 -2.58279,-0.13074 30.080249,30.080249 0 0 0 -5.1e-4,0 z M 9.06094,188.00323 A 9.0609617,9.0609617 0 0 0 0,197.06417 a 9.0609617,9.0609617 0 0 0 0.23048,1.99678 l -0.0196,0.004 12.85089,52.38543 0.0243,-0.006 a 9.0609617,9.0609617 0 0 0 8.73384,6.68899 9.0609617,9.0609617 0 0 0 8.62634,-6.32209 l 0.0114,0.0558 9.57823,-27.33632 9.57874,27.33632 0.0114,-0.0558 a 9.0609617,9.0609617 0 0 0 8.62635,6.32209 9.0609617,9.0609617 0 0 0 8.73383,-6.68899 l 0.0243,0.006 12.85089,-52.38543 -0.0196,-0.004 a 9.0609617,9.0609617 0 0 0 0.23047,-1.99678 9.0609617,9.0609617 0 0 0 -9.06094,-9.06094 9.0609617,9.0609617 0 0 0 -8.93538,7.62641 l -0.0207,-0.004 -5.32268,21.63589 -8.1411,-23.25594 -0.0305,0.0109 a 9.0609617,9.0609617 0 0 0 -0.0165,-0.0403 9.0609617,9.0609617 0 0 0 -0.28215,-0.68006 9.0609617,9.0609617 0 0 0 -0.0708,-0.15917 9.0609617,9.0609617 0 0 0 -0.34416,-0.63975 9.0609617,9.0609617 0 0 0 -0.0899,-0.1571 9.0609617,9.0609617 0 0 0 -0.39998,-0.59272 9.0609617,9.0609617 0 0 0 -0.11213,-0.1571 9.0609617,9.0609617 0 0 0 -0.44236,-0.5333 9.0609617,9.0609617 0 0 0 -0.14675,-0.16691 9.0609617,9.0609617 0 0 0 -0.48215,-0.47439 9.0609617,9.0609617 0 0 0 -0.16743,-0.15555 9.0609617,9.0609617 0 0 0 -0.51521,-0.41496 9.0609617,9.0609617 0 0 0 -0.20102,-0.15297 9.0609617,9.0609617 0 0 0 -0.52762,-0.34416 9.0609617,9.0609617 0 0 0 -0.24236,-0.14831 9.0609617,9.0609617 0 0 0 -0.53744,-0.27802 9.0609617,9.0609617 0 0 0 -0.27543,-0.13333 9.0609617,9.0609617 0 0 0 -0.53227,-0.21135 9.0609617,9.0609617 0 0 0 -0.32246,-0.11782 9.0609617,9.0609617 0 0 0 -0.52917,-0.15038 9.0609617,9.0609617 0 0 0 -0.34623,-0.0884 9.0609617,9.0609617 0 0 0 -0.52245,-0.0941 9.0609617,9.0609617 0 0 0 -0.37879,-0.0574 9.0609617,9.0609617 0 0 0 -0.49299,-0.0382 9.0609617,9.0609617 0 0 0 -0.54519,-0.0274 9.0609617,9.0609617 0 0 0 -0.004,0 9.0609617,9.0609617 0 0 0 -0.55708,0.0284 9.0609617,9.0609617 0 0 0 -0.47283,0.0367 9.0609617,9.0609617 0 0 0 -0.40773,0.0615 9.0609617,9.0609617 0 0 0 -0.49454,0.0889 9.0609617,9.0609617 0 0 0 -0.36329,0.0925 9.0609617,9.0609617 0 0 0 -0.51935,0.1478 9.0609617,9.0609617 0 0 0 -0.32246,0.11782 9.0609617,9.0609617 0 0 0 -0.53227,0.21135 9.0609617,9.0609617 0 0 0 -0.27543,0.13333 9.0609617,9.0609617 0 0 0 -0.5364,0.2775 9.0609617,9.0609617 0 0 0 -0.25012,0.15348 9.0609617,9.0609617 0 0 0 -0.51728,0.33693 9.0609617,9.0609617 0 0 0 -0.21084,0.1602 9.0609617,9.0609617 0 0 0 -0.50901,0.41031 9.0609617,9.0609617 0 0 0 -0.16743,0.15555 9.0609617,9.0609617 0 0 0 -0.48111,0.47387 9.0609617,9.0609617 0 0 0 -0.1509,0.17156 9.0609617,9.0609617 0 0 0 -0.43718,0.52658 9.0609617,9.0609617 0 0 0 -0.11782,0.16485 9.0609617,9.0609617 0 0 0 -0.39584,0.58705 9.0609617,9.0609617 0 0 0 -0.0925,0.16123 9.0609617,9.0609617 0 0 0 -0.34055,0.63407 9.0609617,9.0609617 0 0 0 -0.0744,0.16536 9.0609617,9.0609617 0 0 0 -0.27957,0.67541 9.0609617,9.0609617 0 0 0 -0.0171,0.0408 l -0.0305,-0.0109 -8.1411,23.25594 -5.32267,-21.63589 -0.0207,0.004 a 9.0609617,9.0609617 0 0 0 -8.93538,-7.62641 z m 91.95305,5.1e-4 a 9.0609617,9.0609617 0 0 0 -9.0532,8.90954 h -0.008 v 0.15141 52.00768 0.62373 h 0.0222 a 9.0609617,9.0609617 0 0 0 9.03873,8.43721 9.0609617,9.0609617 0 0 0 9.02942,-8.43721 h 0.0315 v -0.62373 -52.00768 -0.15141 h -0.005 a 9.0609617,9.0609617 0 0 0 -9.05577,-8.90954 z"
       id="path828-4"
       inkscape:connector-curvature="0" />
  </g>
</svg>
